G75*
G70*
%OFA0B0*%
%FSLAX24Y24*%
%IPPOS*%
%LPD*%
%AMOC8*
5,1,8,0,0,1.08239X$1,22.5*
%
%ADD10C,0.0000*%
%ADD11C,0.0060*%
%ADD12C,0.0080*%
%ADD13C,0.0010*%
%ADD14C,0.0040*%
%ADD15C,0.0050*%
%ADD16C,0.0025*%
%ADD17C,0.0030*%
%ADD18R,0.0059X0.0118*%
%ADD19R,0.0118X0.0118*%
%ADD20R,0.0118X0.0059*%
%ADD21C,0.0059*%
%ADD22C,0.0100*%
%ADD23C,0.0070*%
%ADD24R,0.0660X0.0380*%
D10*
X007018Y004890D02*
X054254Y004890D01*
X053635Y006265D02*
X053637Y006315D01*
X053643Y006365D01*
X053653Y006414D01*
X053667Y006462D01*
X053684Y006509D01*
X053705Y006554D01*
X053730Y006598D01*
X053758Y006639D01*
X053790Y006678D01*
X053824Y006715D01*
X053861Y006749D01*
X053901Y006779D01*
X053943Y006806D01*
X053987Y006830D01*
X054033Y006851D01*
X054080Y006867D01*
X054128Y006880D01*
X054178Y006889D01*
X054227Y006894D01*
X054278Y006895D01*
X054328Y006892D01*
X054377Y006885D01*
X054426Y006874D01*
X054474Y006859D01*
X054520Y006841D01*
X054565Y006819D01*
X054608Y006793D01*
X054649Y006764D01*
X054688Y006732D01*
X054724Y006697D01*
X054756Y006659D01*
X054786Y006619D01*
X054813Y006576D01*
X054836Y006532D01*
X054855Y006486D01*
X054871Y006438D01*
X054883Y006389D01*
X054891Y006340D01*
X054895Y006290D01*
X054895Y006240D01*
X054891Y006190D01*
X054883Y006141D01*
X054871Y006092D01*
X054855Y006044D01*
X054836Y005998D01*
X054813Y005954D01*
X054786Y005911D01*
X054756Y005871D01*
X054724Y005833D01*
X054688Y005798D01*
X054649Y005766D01*
X054608Y005737D01*
X054565Y005711D01*
X054520Y005689D01*
X054474Y005671D01*
X054426Y005656D01*
X054377Y005645D01*
X054328Y005638D01*
X054278Y005635D01*
X054227Y005636D01*
X054178Y005641D01*
X054128Y005650D01*
X054080Y005663D01*
X054033Y005679D01*
X053987Y005700D01*
X053943Y005724D01*
X053901Y005751D01*
X053861Y005781D01*
X053824Y005815D01*
X053790Y005852D01*
X053758Y005891D01*
X053730Y005932D01*
X053705Y005976D01*
X053684Y006021D01*
X053667Y006068D01*
X053653Y006116D01*
X053643Y006165D01*
X053637Y006215D01*
X053635Y006265D01*
X054254Y004890D02*
X054326Y004892D01*
X054398Y004898D01*
X054470Y004907D01*
X054541Y004920D01*
X054611Y004937D01*
X054680Y004957D01*
X054748Y004982D01*
X054814Y005009D01*
X054880Y005040D01*
X054943Y005075D01*
X055005Y005112D01*
X055064Y005153D01*
X055121Y005197D01*
X055176Y005244D01*
X055228Y005294D01*
X055278Y005346D01*
X055325Y005401D01*
X055369Y005458D01*
X055410Y005517D01*
X055447Y005579D01*
X055482Y005642D01*
X055513Y005708D01*
X055540Y005774D01*
X055565Y005842D01*
X055585Y005911D01*
X055602Y005981D01*
X055615Y006052D01*
X055624Y006124D01*
X055630Y006196D01*
X055632Y006268D01*
X055632Y025362D01*
X053635Y025390D02*
X053637Y025440D01*
X053643Y025490D01*
X053653Y025539D01*
X053667Y025587D01*
X053684Y025634D01*
X053705Y025679D01*
X053730Y025723D01*
X053758Y025764D01*
X053790Y025803D01*
X053824Y025840D01*
X053861Y025874D01*
X053901Y025904D01*
X053943Y025931D01*
X053987Y025955D01*
X054033Y025976D01*
X054080Y025992D01*
X054128Y026005D01*
X054178Y026014D01*
X054227Y026019D01*
X054278Y026020D01*
X054328Y026017D01*
X054377Y026010D01*
X054426Y025999D01*
X054474Y025984D01*
X054520Y025966D01*
X054565Y025944D01*
X054608Y025918D01*
X054649Y025889D01*
X054688Y025857D01*
X054724Y025822D01*
X054756Y025784D01*
X054786Y025744D01*
X054813Y025701D01*
X054836Y025657D01*
X054855Y025611D01*
X054871Y025563D01*
X054883Y025514D01*
X054891Y025465D01*
X054895Y025415D01*
X054895Y025365D01*
X054891Y025315D01*
X054883Y025266D01*
X054871Y025217D01*
X054855Y025169D01*
X054836Y025123D01*
X054813Y025079D01*
X054786Y025036D01*
X054756Y024996D01*
X054724Y024958D01*
X054688Y024923D01*
X054649Y024891D01*
X054608Y024862D01*
X054565Y024836D01*
X054520Y024814D01*
X054474Y024796D01*
X054426Y024781D01*
X054377Y024770D01*
X054328Y024763D01*
X054278Y024760D01*
X054227Y024761D01*
X054178Y024766D01*
X054128Y024775D01*
X054080Y024788D01*
X054033Y024804D01*
X053987Y024825D01*
X053943Y024849D01*
X053901Y024876D01*
X053861Y024906D01*
X053824Y024940D01*
X053790Y024977D01*
X053758Y025016D01*
X053730Y025057D01*
X053705Y025101D01*
X053684Y025146D01*
X053667Y025193D01*
X053653Y025241D01*
X053643Y025290D01*
X053637Y025340D01*
X053635Y025390D01*
X054254Y026740D02*
X054326Y026738D01*
X054398Y026732D01*
X054470Y026723D01*
X054541Y026710D01*
X054611Y026693D01*
X054680Y026673D01*
X054748Y026648D01*
X054814Y026621D01*
X054880Y026590D01*
X054943Y026555D01*
X055005Y026518D01*
X055064Y026477D01*
X055121Y026433D01*
X055176Y026386D01*
X055228Y026336D01*
X055278Y026284D01*
X055325Y026229D01*
X055369Y026172D01*
X055410Y026113D01*
X055447Y026051D01*
X055482Y025988D01*
X055513Y025922D01*
X055540Y025856D01*
X055565Y025788D01*
X055585Y025719D01*
X055602Y025649D01*
X055615Y025578D01*
X055624Y025506D01*
X055630Y025434D01*
X055632Y025362D01*
X054254Y026740D02*
X007018Y026740D01*
X006385Y025390D02*
X006387Y025440D01*
X006393Y025490D01*
X006403Y025539D01*
X006417Y025587D01*
X006434Y025634D01*
X006455Y025679D01*
X006480Y025723D01*
X006508Y025764D01*
X006540Y025803D01*
X006574Y025840D01*
X006611Y025874D01*
X006651Y025904D01*
X006693Y025931D01*
X006737Y025955D01*
X006783Y025976D01*
X006830Y025992D01*
X006878Y026005D01*
X006928Y026014D01*
X006977Y026019D01*
X007028Y026020D01*
X007078Y026017D01*
X007127Y026010D01*
X007176Y025999D01*
X007224Y025984D01*
X007270Y025966D01*
X007315Y025944D01*
X007358Y025918D01*
X007399Y025889D01*
X007438Y025857D01*
X007474Y025822D01*
X007506Y025784D01*
X007536Y025744D01*
X007563Y025701D01*
X007586Y025657D01*
X007605Y025611D01*
X007621Y025563D01*
X007633Y025514D01*
X007641Y025465D01*
X007645Y025415D01*
X007645Y025365D01*
X007641Y025315D01*
X007633Y025266D01*
X007621Y025217D01*
X007605Y025169D01*
X007586Y025123D01*
X007563Y025079D01*
X007536Y025036D01*
X007506Y024996D01*
X007474Y024958D01*
X007438Y024923D01*
X007399Y024891D01*
X007358Y024862D01*
X007315Y024836D01*
X007270Y024814D01*
X007224Y024796D01*
X007176Y024781D01*
X007127Y024770D01*
X007078Y024763D01*
X007028Y024760D01*
X006977Y024761D01*
X006928Y024766D01*
X006878Y024775D01*
X006830Y024788D01*
X006783Y024804D01*
X006737Y024825D01*
X006693Y024849D01*
X006651Y024876D01*
X006611Y024906D01*
X006574Y024940D01*
X006540Y024977D01*
X006508Y025016D01*
X006480Y025057D01*
X006455Y025101D01*
X006434Y025146D01*
X006417Y025193D01*
X006403Y025241D01*
X006393Y025290D01*
X006387Y025340D01*
X006385Y025390D01*
X005640Y025362D02*
X005642Y025434D01*
X005648Y025506D01*
X005657Y025578D01*
X005670Y025649D01*
X005687Y025719D01*
X005707Y025788D01*
X005732Y025856D01*
X005759Y025922D01*
X005790Y025988D01*
X005825Y026051D01*
X005862Y026113D01*
X005903Y026172D01*
X005947Y026229D01*
X005994Y026284D01*
X006044Y026336D01*
X006096Y026386D01*
X006151Y026433D01*
X006208Y026477D01*
X006267Y026518D01*
X006329Y026555D01*
X006392Y026590D01*
X006458Y026621D01*
X006524Y026648D01*
X006592Y026673D01*
X006661Y026693D01*
X006731Y026710D01*
X006802Y026723D01*
X006874Y026732D01*
X006946Y026738D01*
X007018Y026740D01*
X005640Y025362D02*
X005640Y006268D01*
X006385Y006265D02*
X006387Y006315D01*
X006393Y006365D01*
X006403Y006414D01*
X006417Y006462D01*
X006434Y006509D01*
X006455Y006554D01*
X006480Y006598D01*
X006508Y006639D01*
X006540Y006678D01*
X006574Y006715D01*
X006611Y006749D01*
X006651Y006779D01*
X006693Y006806D01*
X006737Y006830D01*
X006783Y006851D01*
X006830Y006867D01*
X006878Y006880D01*
X006928Y006889D01*
X006977Y006894D01*
X007028Y006895D01*
X007078Y006892D01*
X007127Y006885D01*
X007176Y006874D01*
X007224Y006859D01*
X007270Y006841D01*
X007315Y006819D01*
X007358Y006793D01*
X007399Y006764D01*
X007438Y006732D01*
X007474Y006697D01*
X007506Y006659D01*
X007536Y006619D01*
X007563Y006576D01*
X007586Y006532D01*
X007605Y006486D01*
X007621Y006438D01*
X007633Y006389D01*
X007641Y006340D01*
X007645Y006290D01*
X007645Y006240D01*
X007641Y006190D01*
X007633Y006141D01*
X007621Y006092D01*
X007605Y006044D01*
X007586Y005998D01*
X007563Y005954D01*
X007536Y005911D01*
X007506Y005871D01*
X007474Y005833D01*
X007438Y005798D01*
X007399Y005766D01*
X007358Y005737D01*
X007315Y005711D01*
X007270Y005689D01*
X007224Y005671D01*
X007176Y005656D01*
X007127Y005645D01*
X007078Y005638D01*
X007028Y005635D01*
X006977Y005636D01*
X006928Y005641D01*
X006878Y005650D01*
X006830Y005663D01*
X006783Y005679D01*
X006737Y005700D01*
X006693Y005724D01*
X006651Y005751D01*
X006611Y005781D01*
X006574Y005815D01*
X006540Y005852D01*
X006508Y005891D01*
X006480Y005932D01*
X006455Y005976D01*
X006434Y006021D01*
X006417Y006068D01*
X006403Y006116D01*
X006393Y006165D01*
X006387Y006215D01*
X006385Y006265D01*
X005640Y006268D02*
X005642Y006196D01*
X005648Y006124D01*
X005657Y006052D01*
X005670Y005981D01*
X005687Y005911D01*
X005707Y005842D01*
X005732Y005774D01*
X005759Y005708D01*
X005790Y005642D01*
X005825Y005579D01*
X005862Y005517D01*
X005903Y005458D01*
X005947Y005401D01*
X005994Y005346D01*
X006044Y005294D01*
X006096Y005244D01*
X006151Y005197D01*
X006208Y005153D01*
X006267Y005112D01*
X006329Y005075D01*
X006392Y005040D01*
X006458Y005009D01*
X006524Y004982D01*
X006592Y004957D01*
X006661Y004937D01*
X006731Y004920D01*
X006802Y004907D01*
X006874Y004898D01*
X006946Y004892D01*
X007018Y004890D01*
D11*
X005665Y006265D02*
X005667Y006338D01*
X005673Y006411D01*
X005683Y006483D01*
X005697Y006555D01*
X005714Y006626D01*
X005736Y006696D01*
X005761Y006765D01*
X005790Y006832D01*
X005822Y006897D01*
X005858Y006961D01*
X005898Y007023D01*
X005940Y007082D01*
X005986Y007139D01*
X006035Y007193D01*
X006087Y007245D01*
X006141Y007294D01*
X006198Y007340D01*
X006257Y007382D01*
X006319Y007422D01*
X006383Y007458D01*
X006448Y007490D01*
X006515Y007519D01*
X006584Y007544D01*
X006654Y007566D01*
X006725Y007583D01*
X006797Y007597D01*
X006869Y007607D01*
X006942Y007613D01*
X007015Y007615D01*
X007088Y007613D01*
X007161Y007607D01*
X007233Y007597D01*
X007305Y007583D01*
X007376Y007566D01*
X007446Y007544D01*
X007515Y007519D01*
X007582Y007490D01*
X007647Y007458D01*
X007711Y007422D01*
X007773Y007382D01*
X007832Y007340D01*
X007889Y007294D01*
X007943Y007245D01*
X007995Y007193D01*
X008044Y007139D01*
X008090Y007082D01*
X008132Y007023D01*
X008172Y006961D01*
X008208Y006897D01*
X008240Y006832D01*
X008269Y006765D01*
X008294Y006696D01*
X008316Y006626D01*
X008333Y006555D01*
X008347Y006483D01*
X008357Y006411D01*
X008363Y006338D01*
X008365Y006265D01*
X008363Y006192D01*
X008357Y006119D01*
X008347Y006047D01*
X008333Y005975D01*
X008316Y005904D01*
X008294Y005834D01*
X008269Y005765D01*
X008240Y005698D01*
X008208Y005633D01*
X008172Y005569D01*
X008132Y005507D01*
X008090Y005448D01*
X008044Y005391D01*
X007995Y005337D01*
X007943Y005285D01*
X007889Y005236D01*
X007832Y005190D01*
X007773Y005148D01*
X007711Y005108D01*
X007647Y005072D01*
X007582Y005040D01*
X007515Y005011D01*
X007446Y004986D01*
X007376Y004964D01*
X007305Y004947D01*
X007233Y004933D01*
X007161Y004923D01*
X007088Y004917D01*
X007015Y004915D01*
X006942Y004917D01*
X006869Y004923D01*
X006797Y004933D01*
X006725Y004947D01*
X006654Y004964D01*
X006584Y004986D01*
X006515Y005011D01*
X006448Y005040D01*
X006383Y005072D01*
X006319Y005108D01*
X006257Y005148D01*
X006198Y005190D01*
X006141Y005236D01*
X006087Y005285D01*
X006035Y005337D01*
X005986Y005391D01*
X005940Y005448D01*
X005898Y005507D01*
X005858Y005569D01*
X005822Y005633D01*
X005790Y005698D01*
X005761Y005765D01*
X005736Y005834D01*
X005714Y005904D01*
X005697Y005975D01*
X005683Y006047D01*
X005673Y006119D01*
X005667Y006192D01*
X005665Y006265D01*
X005735Y007920D02*
X005295Y007920D01*
X005295Y008140D01*
X005368Y008214D01*
X005515Y008214D01*
X005588Y008140D01*
X005588Y007920D01*
X005588Y008067D02*
X005735Y008214D01*
X005735Y008380D02*
X005441Y008674D01*
X005368Y008674D01*
X005295Y008601D01*
X005295Y008454D01*
X005368Y008380D01*
X005735Y008380D02*
X005735Y008674D01*
X013260Y014400D02*
X013400Y014260D01*
X016020Y014260D01*
X016020Y017020D01*
X013260Y017020D01*
X013260Y014400D01*
X013419Y014560D02*
X013421Y014583D01*
X013427Y014606D01*
X013436Y014627D01*
X013449Y014647D01*
X013465Y014664D01*
X013483Y014678D01*
X013503Y014689D01*
X013525Y014697D01*
X013548Y014701D01*
X013572Y014701D01*
X013595Y014697D01*
X013617Y014689D01*
X013637Y014678D01*
X013655Y014664D01*
X013671Y014647D01*
X013684Y014627D01*
X013693Y014606D01*
X013699Y014583D01*
X013701Y014560D01*
X013699Y014537D01*
X013693Y014514D01*
X013684Y014493D01*
X013671Y014473D01*
X013655Y014456D01*
X013637Y014442D01*
X013617Y014431D01*
X013595Y014423D01*
X013572Y014419D01*
X013548Y014419D01*
X013525Y014423D01*
X013503Y014431D01*
X013483Y014442D01*
X013465Y014456D01*
X013449Y014473D01*
X013436Y014493D01*
X013427Y014514D01*
X013421Y014537D01*
X013419Y014560D01*
X011823Y015845D02*
X011823Y016435D01*
X011824Y016435D02*
X011820Y016454D01*
X011814Y016471D01*
X011804Y016488D01*
X011792Y016502D01*
X011777Y016514D01*
X011761Y016524D01*
X011743Y016530D01*
X011724Y016534D01*
X011705Y016534D01*
X011075Y016534D01*
X011056Y016534D01*
X011037Y016530D01*
X011019Y016524D01*
X011003Y016514D01*
X010988Y016502D01*
X010976Y016488D01*
X010966Y016471D01*
X010960Y016454D01*
X010956Y016435D01*
X010957Y016435D02*
X010957Y015845D01*
X010956Y015844D02*
X010960Y015826D01*
X010966Y015808D01*
X010976Y015791D01*
X010988Y015777D01*
X011003Y015764D01*
X011019Y015755D01*
X011037Y015749D01*
X011056Y015745D01*
X011075Y015745D01*
X011075Y015746D02*
X011705Y015746D01*
X011724Y015746D01*
X011743Y015750D01*
X011761Y015756D01*
X011777Y015766D01*
X011792Y015778D01*
X011804Y015792D01*
X011814Y015809D01*
X011820Y015826D01*
X011824Y015845D01*
X011825Y017996D02*
X012455Y017996D01*
X012474Y017996D01*
X012493Y018000D01*
X012511Y018006D01*
X012527Y018016D01*
X012542Y018028D01*
X012554Y018042D01*
X012564Y018059D01*
X012570Y018076D01*
X012574Y018095D01*
X012573Y018095D02*
X012573Y018685D01*
X012574Y018686D02*
X012570Y018704D01*
X012564Y018722D01*
X012554Y018739D01*
X012542Y018753D01*
X012527Y018766D01*
X012511Y018775D01*
X012493Y018781D01*
X012474Y018785D01*
X012455Y018785D01*
X012455Y018784D02*
X011825Y018784D01*
X011806Y018784D01*
X011787Y018780D01*
X011769Y018774D01*
X011753Y018764D01*
X011738Y018752D01*
X011726Y018738D01*
X011716Y018721D01*
X011710Y018704D01*
X011706Y018685D01*
X011707Y018685D02*
X011707Y018095D01*
X011706Y018095D02*
X011710Y018076D01*
X011716Y018059D01*
X011726Y018042D01*
X011738Y018028D01*
X011753Y018016D01*
X011769Y018006D01*
X011787Y018000D01*
X011806Y017996D01*
X011825Y017996D01*
X005735Y020170D02*
X005295Y020170D01*
X005295Y020390D01*
X005368Y020464D01*
X005515Y020464D01*
X005588Y020390D01*
X005588Y020170D01*
X005588Y020317D02*
X005735Y020464D01*
X005735Y020630D02*
X005735Y020924D01*
X005735Y020777D02*
X005295Y020777D01*
X005441Y020630D01*
X005368Y021091D02*
X005295Y021164D01*
X005295Y021311D01*
X005368Y021384D01*
X005662Y021091D01*
X005735Y021164D01*
X005735Y021311D01*
X005662Y021384D01*
X005368Y021384D01*
X005368Y021091D02*
X005662Y021091D01*
X005665Y025390D02*
X005667Y025463D01*
X005673Y025536D01*
X005683Y025608D01*
X005697Y025680D01*
X005714Y025751D01*
X005736Y025821D01*
X005761Y025890D01*
X005790Y025957D01*
X005822Y026022D01*
X005858Y026086D01*
X005898Y026148D01*
X005940Y026207D01*
X005986Y026264D01*
X006035Y026318D01*
X006087Y026370D01*
X006141Y026419D01*
X006198Y026465D01*
X006257Y026507D01*
X006319Y026547D01*
X006383Y026583D01*
X006448Y026615D01*
X006515Y026644D01*
X006584Y026669D01*
X006654Y026691D01*
X006725Y026708D01*
X006797Y026722D01*
X006869Y026732D01*
X006942Y026738D01*
X007015Y026740D01*
X007088Y026738D01*
X007161Y026732D01*
X007233Y026722D01*
X007305Y026708D01*
X007376Y026691D01*
X007446Y026669D01*
X007515Y026644D01*
X007582Y026615D01*
X007647Y026583D01*
X007711Y026547D01*
X007773Y026507D01*
X007832Y026465D01*
X007889Y026419D01*
X007943Y026370D01*
X007995Y026318D01*
X008044Y026264D01*
X008090Y026207D01*
X008132Y026148D01*
X008172Y026086D01*
X008208Y026022D01*
X008240Y025957D01*
X008269Y025890D01*
X008294Y025821D01*
X008316Y025751D01*
X008333Y025680D01*
X008347Y025608D01*
X008357Y025536D01*
X008363Y025463D01*
X008365Y025390D01*
X008363Y025317D01*
X008357Y025244D01*
X008347Y025172D01*
X008333Y025100D01*
X008316Y025029D01*
X008294Y024959D01*
X008269Y024890D01*
X008240Y024823D01*
X008208Y024758D01*
X008172Y024694D01*
X008132Y024632D01*
X008090Y024573D01*
X008044Y024516D01*
X007995Y024462D01*
X007943Y024410D01*
X007889Y024361D01*
X007832Y024315D01*
X007773Y024273D01*
X007711Y024233D01*
X007647Y024197D01*
X007582Y024165D01*
X007515Y024136D01*
X007446Y024111D01*
X007376Y024089D01*
X007305Y024072D01*
X007233Y024058D01*
X007161Y024048D01*
X007088Y024042D01*
X007015Y024040D01*
X006942Y024042D01*
X006869Y024048D01*
X006797Y024058D01*
X006725Y024072D01*
X006654Y024089D01*
X006584Y024111D01*
X006515Y024136D01*
X006448Y024165D01*
X006383Y024197D01*
X006319Y024233D01*
X006257Y024273D01*
X006198Y024315D01*
X006141Y024361D01*
X006087Y024410D01*
X006035Y024462D01*
X005986Y024516D01*
X005940Y024573D01*
X005898Y024632D01*
X005858Y024694D01*
X005822Y024758D01*
X005790Y024823D01*
X005761Y024890D01*
X005736Y024959D01*
X005714Y025029D01*
X005697Y025100D01*
X005683Y025172D01*
X005673Y025244D01*
X005667Y025317D01*
X005665Y025390D01*
X018203Y015078D02*
X020203Y015078D01*
X020203Y013078D01*
X019203Y013078D01*
X019203Y012078D01*
X018203Y012078D01*
X018203Y015078D01*
X020203Y013078D02*
X020203Y012078D01*
X019203Y012078D01*
X044505Y022955D02*
X044505Y024075D01*
X045025Y024075D01*
X045025Y022955D01*
X044505Y022955D01*
X046505Y022955D02*
X046505Y024075D01*
X047025Y024075D01*
X047025Y022955D01*
X046505Y022955D01*
X052915Y025390D02*
X052917Y025463D01*
X052923Y025536D01*
X052933Y025608D01*
X052947Y025680D01*
X052964Y025751D01*
X052986Y025821D01*
X053011Y025890D01*
X053040Y025957D01*
X053072Y026022D01*
X053108Y026086D01*
X053148Y026148D01*
X053190Y026207D01*
X053236Y026264D01*
X053285Y026318D01*
X053337Y026370D01*
X053391Y026419D01*
X053448Y026465D01*
X053507Y026507D01*
X053569Y026547D01*
X053633Y026583D01*
X053698Y026615D01*
X053765Y026644D01*
X053834Y026669D01*
X053904Y026691D01*
X053975Y026708D01*
X054047Y026722D01*
X054119Y026732D01*
X054192Y026738D01*
X054265Y026740D01*
X054338Y026738D01*
X054411Y026732D01*
X054483Y026722D01*
X054555Y026708D01*
X054626Y026691D01*
X054696Y026669D01*
X054765Y026644D01*
X054832Y026615D01*
X054897Y026583D01*
X054961Y026547D01*
X055023Y026507D01*
X055082Y026465D01*
X055139Y026419D01*
X055193Y026370D01*
X055245Y026318D01*
X055294Y026264D01*
X055340Y026207D01*
X055382Y026148D01*
X055422Y026086D01*
X055458Y026022D01*
X055490Y025957D01*
X055519Y025890D01*
X055544Y025821D01*
X055566Y025751D01*
X055583Y025680D01*
X055597Y025608D01*
X055607Y025536D01*
X055613Y025463D01*
X055615Y025390D01*
X055613Y025317D01*
X055607Y025244D01*
X055597Y025172D01*
X055583Y025100D01*
X055566Y025029D01*
X055544Y024959D01*
X055519Y024890D01*
X055490Y024823D01*
X055458Y024758D01*
X055422Y024694D01*
X055382Y024632D01*
X055340Y024573D01*
X055294Y024516D01*
X055245Y024462D01*
X055193Y024410D01*
X055139Y024361D01*
X055082Y024315D01*
X055023Y024273D01*
X054961Y024233D01*
X054897Y024197D01*
X054832Y024165D01*
X054765Y024136D01*
X054696Y024111D01*
X054626Y024089D01*
X054555Y024072D01*
X054483Y024058D01*
X054411Y024048D01*
X054338Y024042D01*
X054265Y024040D01*
X054192Y024042D01*
X054119Y024048D01*
X054047Y024058D01*
X053975Y024072D01*
X053904Y024089D01*
X053834Y024111D01*
X053765Y024136D01*
X053698Y024165D01*
X053633Y024197D01*
X053569Y024233D01*
X053507Y024273D01*
X053448Y024315D01*
X053391Y024361D01*
X053337Y024410D01*
X053285Y024462D01*
X053236Y024516D01*
X053190Y024573D01*
X053148Y024632D01*
X053108Y024694D01*
X053072Y024758D01*
X053040Y024823D01*
X053011Y024890D01*
X052986Y024959D01*
X052964Y025029D01*
X052947Y025100D01*
X052933Y025172D01*
X052923Y025244D01*
X052917Y025317D01*
X052915Y025390D01*
X052915Y006265D02*
X052917Y006338D01*
X052923Y006411D01*
X052933Y006483D01*
X052947Y006555D01*
X052964Y006626D01*
X052986Y006696D01*
X053011Y006765D01*
X053040Y006832D01*
X053072Y006897D01*
X053108Y006961D01*
X053148Y007023D01*
X053190Y007082D01*
X053236Y007139D01*
X053285Y007193D01*
X053337Y007245D01*
X053391Y007294D01*
X053448Y007340D01*
X053507Y007382D01*
X053569Y007422D01*
X053633Y007458D01*
X053698Y007490D01*
X053765Y007519D01*
X053834Y007544D01*
X053904Y007566D01*
X053975Y007583D01*
X054047Y007597D01*
X054119Y007607D01*
X054192Y007613D01*
X054265Y007615D01*
X054338Y007613D01*
X054411Y007607D01*
X054483Y007597D01*
X054555Y007583D01*
X054626Y007566D01*
X054696Y007544D01*
X054765Y007519D01*
X054832Y007490D01*
X054897Y007458D01*
X054961Y007422D01*
X055023Y007382D01*
X055082Y007340D01*
X055139Y007294D01*
X055193Y007245D01*
X055245Y007193D01*
X055294Y007139D01*
X055340Y007082D01*
X055382Y007023D01*
X055422Y006961D01*
X055458Y006897D01*
X055490Y006832D01*
X055519Y006765D01*
X055544Y006696D01*
X055566Y006626D01*
X055583Y006555D01*
X055597Y006483D01*
X055607Y006411D01*
X055613Y006338D01*
X055615Y006265D01*
X055613Y006192D01*
X055607Y006119D01*
X055597Y006047D01*
X055583Y005975D01*
X055566Y005904D01*
X055544Y005834D01*
X055519Y005765D01*
X055490Y005698D01*
X055458Y005633D01*
X055422Y005569D01*
X055382Y005507D01*
X055340Y005448D01*
X055294Y005391D01*
X055245Y005337D01*
X055193Y005285D01*
X055139Y005236D01*
X055082Y005190D01*
X055023Y005148D01*
X054961Y005108D01*
X054897Y005072D01*
X054832Y005040D01*
X054765Y005011D01*
X054696Y004986D01*
X054626Y004964D01*
X054555Y004947D01*
X054483Y004933D01*
X054411Y004923D01*
X054338Y004917D01*
X054265Y004915D01*
X054192Y004917D01*
X054119Y004923D01*
X054047Y004933D01*
X053975Y004947D01*
X053904Y004964D01*
X053834Y004986D01*
X053765Y005011D01*
X053698Y005040D01*
X053633Y005072D01*
X053569Y005108D01*
X053507Y005148D01*
X053448Y005190D01*
X053391Y005236D01*
X053337Y005285D01*
X053285Y005337D01*
X053236Y005391D01*
X053190Y005448D01*
X053148Y005507D01*
X053108Y005569D01*
X053072Y005633D01*
X053040Y005698D01*
X053011Y005765D01*
X052986Y005834D01*
X052964Y005904D01*
X052947Y005975D01*
X052933Y006047D01*
X052923Y006119D01*
X052917Y006192D01*
X052915Y006265D01*
D12*
X053596Y006265D02*
X053598Y006316D01*
X053604Y006367D01*
X053614Y006417D01*
X053627Y006467D01*
X053645Y006515D01*
X053665Y006562D01*
X053690Y006607D01*
X053718Y006650D01*
X053749Y006691D01*
X053783Y006729D01*
X053820Y006764D01*
X053859Y006797D01*
X053901Y006827D01*
X053945Y006853D01*
X053991Y006875D01*
X054039Y006895D01*
X054088Y006910D01*
X054138Y006922D01*
X054188Y006930D01*
X054239Y006934D01*
X054291Y006934D01*
X054342Y006930D01*
X054392Y006922D01*
X054442Y006910D01*
X054491Y006895D01*
X054539Y006875D01*
X054585Y006853D01*
X054629Y006827D01*
X054671Y006797D01*
X054710Y006764D01*
X054747Y006729D01*
X054781Y006691D01*
X054812Y006650D01*
X054840Y006607D01*
X054865Y006562D01*
X054885Y006515D01*
X054903Y006467D01*
X054916Y006417D01*
X054926Y006367D01*
X054932Y006316D01*
X054934Y006265D01*
X054932Y006214D01*
X054926Y006163D01*
X054916Y006113D01*
X054903Y006063D01*
X054885Y006015D01*
X054865Y005968D01*
X054840Y005923D01*
X054812Y005880D01*
X054781Y005839D01*
X054747Y005801D01*
X054710Y005766D01*
X054671Y005733D01*
X054629Y005703D01*
X054585Y005677D01*
X054539Y005655D01*
X054491Y005635D01*
X054442Y005620D01*
X054392Y005608D01*
X054342Y005600D01*
X054291Y005596D01*
X054239Y005596D01*
X054188Y005600D01*
X054138Y005608D01*
X054088Y005620D01*
X054039Y005635D01*
X053991Y005655D01*
X053945Y005677D01*
X053901Y005703D01*
X053859Y005733D01*
X053820Y005766D01*
X053783Y005801D01*
X053749Y005839D01*
X053718Y005880D01*
X053690Y005923D01*
X053665Y005968D01*
X053645Y006015D01*
X053627Y006063D01*
X053614Y006113D01*
X053604Y006163D01*
X053598Y006214D01*
X053596Y006265D01*
X032006Y013859D02*
X032006Y017871D01*
X028034Y019853D02*
X027246Y019853D01*
X027640Y019853D02*
X027246Y020393D01*
X028034Y020393D01*
X027640Y019853D01*
X025765Y020078D02*
X025765Y020578D01*
X025515Y020828D01*
X025015Y020828D01*
X024765Y020578D01*
X024515Y020828D01*
X024015Y020828D01*
X023765Y020578D01*
X023765Y020078D01*
X024015Y019828D01*
X024515Y019828D01*
X024765Y020078D01*
X025015Y019828D01*
X025515Y019828D01*
X025765Y020078D01*
X025515Y020953D02*
X025015Y020953D01*
X024765Y021203D01*
X024515Y020953D01*
X024015Y020953D01*
X023765Y021203D01*
X023765Y021703D01*
X024015Y021953D01*
X024515Y021953D01*
X024765Y021703D01*
X025015Y021953D01*
X025515Y021953D01*
X025765Y021703D01*
X025765Y021203D01*
X025515Y020953D01*
X024265Y018890D02*
X023765Y018890D01*
X023515Y018640D01*
X023515Y018140D01*
X023765Y017890D01*
X023515Y017640D01*
X023515Y017140D01*
X023765Y016890D01*
X023515Y016640D01*
X023515Y016140D01*
X023765Y015890D01*
X023515Y015640D01*
X023515Y015140D01*
X023765Y014890D01*
X023515Y014640D01*
X023515Y014140D01*
X023765Y013890D01*
X023515Y013640D01*
X023515Y013140D01*
X023765Y012890D01*
X024265Y012890D01*
X024515Y013140D01*
X024515Y013640D01*
X024265Y013890D01*
X024515Y014140D01*
X024515Y014640D01*
X024265Y014890D01*
X024515Y015140D01*
X024515Y015640D01*
X024265Y015890D01*
X024515Y016140D01*
X024515Y016640D01*
X024265Y016890D01*
X024515Y017140D01*
X024515Y017640D01*
X024265Y017890D01*
X024515Y018140D01*
X024515Y018640D01*
X024265Y018890D01*
X016599Y013146D02*
X016599Y012634D01*
X015181Y012634D02*
X015181Y013146D01*
X006346Y006265D02*
X006348Y006316D01*
X006354Y006367D01*
X006364Y006417D01*
X006377Y006467D01*
X006395Y006515D01*
X006415Y006562D01*
X006440Y006607D01*
X006468Y006650D01*
X006499Y006691D01*
X006533Y006729D01*
X006570Y006764D01*
X006609Y006797D01*
X006651Y006827D01*
X006695Y006853D01*
X006741Y006875D01*
X006789Y006895D01*
X006838Y006910D01*
X006888Y006922D01*
X006938Y006930D01*
X006989Y006934D01*
X007041Y006934D01*
X007092Y006930D01*
X007142Y006922D01*
X007192Y006910D01*
X007241Y006895D01*
X007289Y006875D01*
X007335Y006853D01*
X007379Y006827D01*
X007421Y006797D01*
X007460Y006764D01*
X007497Y006729D01*
X007531Y006691D01*
X007562Y006650D01*
X007590Y006607D01*
X007615Y006562D01*
X007635Y006515D01*
X007653Y006467D01*
X007666Y006417D01*
X007676Y006367D01*
X007682Y006316D01*
X007684Y006265D01*
X007682Y006214D01*
X007676Y006163D01*
X007666Y006113D01*
X007653Y006063D01*
X007635Y006015D01*
X007615Y005968D01*
X007590Y005923D01*
X007562Y005880D01*
X007531Y005839D01*
X007497Y005801D01*
X007460Y005766D01*
X007421Y005733D01*
X007379Y005703D01*
X007335Y005677D01*
X007289Y005655D01*
X007241Y005635D01*
X007192Y005620D01*
X007142Y005608D01*
X007092Y005600D01*
X007041Y005596D01*
X006989Y005596D01*
X006938Y005600D01*
X006888Y005608D01*
X006838Y005620D01*
X006789Y005635D01*
X006741Y005655D01*
X006695Y005677D01*
X006651Y005703D01*
X006609Y005733D01*
X006570Y005766D01*
X006533Y005801D01*
X006499Y005839D01*
X006468Y005880D01*
X006440Y005923D01*
X006415Y005968D01*
X006395Y006015D01*
X006377Y006063D01*
X006364Y006113D01*
X006354Y006163D01*
X006348Y006214D01*
X006346Y006265D01*
X006346Y025390D02*
X006348Y025441D01*
X006354Y025492D01*
X006364Y025542D01*
X006377Y025592D01*
X006395Y025640D01*
X006415Y025687D01*
X006440Y025732D01*
X006468Y025775D01*
X006499Y025816D01*
X006533Y025854D01*
X006570Y025889D01*
X006609Y025922D01*
X006651Y025952D01*
X006695Y025978D01*
X006741Y026000D01*
X006789Y026020D01*
X006838Y026035D01*
X006888Y026047D01*
X006938Y026055D01*
X006989Y026059D01*
X007041Y026059D01*
X007092Y026055D01*
X007142Y026047D01*
X007192Y026035D01*
X007241Y026020D01*
X007289Y026000D01*
X007335Y025978D01*
X007379Y025952D01*
X007421Y025922D01*
X007460Y025889D01*
X007497Y025854D01*
X007531Y025816D01*
X007562Y025775D01*
X007590Y025732D01*
X007615Y025687D01*
X007635Y025640D01*
X007653Y025592D01*
X007666Y025542D01*
X007676Y025492D01*
X007682Y025441D01*
X007684Y025390D01*
X007682Y025339D01*
X007676Y025288D01*
X007666Y025238D01*
X007653Y025188D01*
X007635Y025140D01*
X007615Y025093D01*
X007590Y025048D01*
X007562Y025005D01*
X007531Y024964D01*
X007497Y024926D01*
X007460Y024891D01*
X007421Y024858D01*
X007379Y024828D01*
X007335Y024802D01*
X007289Y024780D01*
X007241Y024760D01*
X007192Y024745D01*
X007142Y024733D01*
X007092Y024725D01*
X007041Y024721D01*
X006989Y024721D01*
X006938Y024725D01*
X006888Y024733D01*
X006838Y024745D01*
X006789Y024760D01*
X006741Y024780D01*
X006695Y024802D01*
X006651Y024828D01*
X006609Y024858D01*
X006570Y024891D01*
X006533Y024926D01*
X006499Y024964D01*
X006468Y025005D01*
X006440Y025048D01*
X006415Y025093D01*
X006395Y025140D01*
X006377Y025188D01*
X006364Y025238D01*
X006354Y025288D01*
X006348Y025339D01*
X006346Y025390D01*
X053596Y025390D02*
X053598Y025441D01*
X053604Y025492D01*
X053614Y025542D01*
X053627Y025592D01*
X053645Y025640D01*
X053665Y025687D01*
X053690Y025732D01*
X053718Y025775D01*
X053749Y025816D01*
X053783Y025854D01*
X053820Y025889D01*
X053859Y025922D01*
X053901Y025952D01*
X053945Y025978D01*
X053991Y026000D01*
X054039Y026020D01*
X054088Y026035D01*
X054138Y026047D01*
X054188Y026055D01*
X054239Y026059D01*
X054291Y026059D01*
X054342Y026055D01*
X054392Y026047D01*
X054442Y026035D01*
X054491Y026020D01*
X054539Y026000D01*
X054585Y025978D01*
X054629Y025952D01*
X054671Y025922D01*
X054710Y025889D01*
X054747Y025854D01*
X054781Y025816D01*
X054812Y025775D01*
X054840Y025732D01*
X054865Y025687D01*
X054885Y025640D01*
X054903Y025592D01*
X054916Y025542D01*
X054926Y025492D01*
X054932Y025441D01*
X054934Y025390D01*
X054932Y025339D01*
X054926Y025288D01*
X054916Y025238D01*
X054903Y025188D01*
X054885Y025140D01*
X054865Y025093D01*
X054840Y025048D01*
X054812Y025005D01*
X054781Y024964D01*
X054747Y024926D01*
X054710Y024891D01*
X054671Y024858D01*
X054629Y024828D01*
X054585Y024802D01*
X054539Y024780D01*
X054491Y024760D01*
X054442Y024745D01*
X054392Y024733D01*
X054342Y024725D01*
X054291Y024721D01*
X054239Y024721D01*
X054188Y024725D01*
X054138Y024733D01*
X054088Y024745D01*
X054039Y024760D01*
X053991Y024780D01*
X053945Y024802D01*
X053901Y024828D01*
X053859Y024858D01*
X053820Y024891D01*
X053783Y024926D01*
X053749Y024964D01*
X053718Y025005D01*
X053690Y025048D01*
X053665Y025093D01*
X053645Y025140D01*
X053627Y025188D01*
X053614Y025238D01*
X053604Y025288D01*
X053598Y025339D01*
X053596Y025390D01*
D13*
X047720Y023823D02*
X047720Y023723D01*
X047720Y023675D02*
X047720Y023575D01*
X047720Y023528D02*
X047670Y023478D01*
X047720Y023453D02*
X047695Y023428D01*
X047595Y023428D01*
X047570Y023453D01*
X047570Y023503D01*
X047595Y023528D01*
X047695Y023528D01*
X047720Y023503D01*
X047720Y023453D01*
X047620Y023575D02*
X047570Y023625D01*
X047720Y023625D01*
X047620Y023723D02*
X047570Y023773D01*
X047720Y023773D01*
X045720Y023798D02*
X045720Y023748D01*
X045695Y023723D01*
X045595Y023823D01*
X045695Y023823D01*
X045720Y023798D01*
X045695Y023723D02*
X045595Y023723D01*
X045570Y023748D01*
X045570Y023798D01*
X045595Y023823D01*
X045720Y023675D02*
X045720Y023575D01*
X045720Y023528D02*
X045670Y023478D01*
X045720Y023453D02*
X045695Y023428D01*
X045595Y023428D01*
X045570Y023453D01*
X045570Y023503D01*
X045595Y023528D01*
X045695Y023528D01*
X045720Y023503D01*
X045720Y023453D01*
X045620Y023575D02*
X045570Y023625D01*
X045720Y023625D01*
X015742Y013545D02*
X015742Y013395D01*
X015692Y013395D02*
X015792Y013395D01*
X015692Y013495D02*
X015742Y013545D01*
X015645Y013545D02*
X015645Y013520D01*
X015595Y013470D01*
X015595Y013395D01*
X015595Y013470D02*
X015545Y013520D01*
X015545Y013545D01*
X012635Y014420D02*
X012635Y014470D01*
X012610Y014495D01*
X012485Y014495D01*
X012535Y014542D02*
X012485Y014592D01*
X012635Y014592D01*
X012635Y014542D02*
X012635Y014642D01*
X012635Y014420D02*
X012610Y014395D01*
X012485Y014395D01*
X010189Y013256D02*
X010189Y013206D01*
X010164Y013181D01*
X010164Y013134D02*
X010064Y013134D01*
X010039Y013108D01*
X010039Y013033D01*
X010189Y013033D01*
X010189Y013108D01*
X010164Y013134D01*
X010114Y013231D02*
X010114Y013256D01*
X010139Y013281D01*
X010164Y013281D01*
X010189Y013256D01*
X010114Y013256D02*
X010089Y013281D01*
X010064Y013281D01*
X010039Y013256D01*
X010039Y013206D01*
X010064Y013181D01*
X008491Y012684D02*
X008341Y012684D01*
X008416Y012609D01*
X008416Y012709D01*
X008366Y012562D02*
X008341Y012537D01*
X008341Y012462D01*
X008491Y012462D01*
X008491Y012537D01*
X008466Y012562D01*
X008366Y012562D01*
X011046Y016645D02*
X011071Y016645D01*
X011096Y016670D01*
X011096Y016795D01*
X011071Y016795D02*
X011121Y016795D01*
X011168Y016795D02*
X011243Y016795D01*
X011268Y016770D01*
X011268Y016720D01*
X011243Y016695D01*
X011168Y016695D01*
X011168Y016645D02*
X011168Y016795D01*
X011316Y016770D02*
X011341Y016795D01*
X011391Y016795D01*
X011416Y016770D01*
X011416Y016745D01*
X011316Y016645D01*
X011416Y016645D01*
X011046Y016645D02*
X011021Y016670D01*
X012102Y017735D02*
X012127Y017735D01*
X012152Y017760D01*
X012152Y017885D01*
X012127Y017885D02*
X012177Y017885D01*
X012224Y017885D02*
X012299Y017885D01*
X012324Y017860D01*
X012324Y017810D01*
X012299Y017785D01*
X012224Y017785D01*
X012224Y017735D02*
X012224Y017885D01*
X012372Y017885D02*
X012372Y017810D01*
X012422Y017835D01*
X012447Y017835D01*
X012472Y017810D01*
X012472Y017760D01*
X012447Y017735D01*
X012397Y017735D01*
X012372Y017760D01*
X012372Y017885D02*
X012472Y017885D01*
X012102Y017735D02*
X012077Y017760D01*
D14*
X012123Y017894D02*
X012123Y017587D01*
X012199Y017510D01*
X012353Y017510D01*
X012430Y017587D01*
X012583Y017433D02*
X012890Y017433D01*
X013043Y017510D02*
X013043Y017817D01*
X013197Y017970D01*
X013350Y017817D01*
X013350Y017510D01*
X013504Y017663D02*
X013657Y017510D01*
X013811Y017663D01*
X013811Y017970D01*
X013964Y017970D02*
X014194Y017970D01*
X014271Y017894D01*
X014271Y017740D01*
X014194Y017663D01*
X013964Y017663D01*
X013964Y017510D02*
X013964Y017970D01*
X014118Y017663D02*
X014271Y017510D01*
X014425Y017510D02*
X014732Y017817D01*
X014732Y017894D01*
X014655Y017970D01*
X014501Y017970D01*
X014425Y017894D01*
X014425Y017510D02*
X014732Y017510D01*
X013504Y017663D02*
X013504Y017970D01*
X013350Y017740D02*
X013043Y017740D01*
X012430Y017894D02*
X012353Y017970D01*
X012199Y017970D01*
X012123Y017894D01*
X011020Y017861D02*
X010713Y017861D01*
X010560Y017707D01*
X010713Y017554D01*
X011020Y017554D01*
X011097Y017400D02*
X011097Y017093D01*
X011020Y017032D02*
X011020Y016725D01*
X010560Y016725D01*
X010560Y017032D01*
X010636Y016940D02*
X010790Y016940D01*
X010867Y016863D01*
X010867Y016633D01*
X010790Y016725D02*
X010790Y016878D01*
X010867Y016786D02*
X011020Y016940D01*
X011020Y016633D02*
X010560Y016633D01*
X010560Y016863D01*
X010636Y016940D01*
X010345Y016896D02*
X009885Y016896D01*
X009885Y017049D02*
X009885Y017356D01*
X009920Y017384D02*
X009460Y017384D01*
X009460Y017307D02*
X009460Y017461D01*
X009536Y017614D02*
X009843Y017614D01*
X009920Y017691D01*
X009920Y017844D01*
X009843Y017921D01*
X009961Y017817D02*
X009885Y017740D01*
X009885Y017586D01*
X009961Y017510D01*
X009920Y017461D02*
X009920Y017307D01*
X009885Y017203D02*
X010345Y017203D01*
X010345Y017510D02*
X010038Y017817D01*
X009961Y017817D01*
X009920Y018075D02*
X009920Y018382D01*
X009920Y018228D02*
X009460Y018228D01*
X009613Y018075D01*
X009536Y017921D02*
X009460Y017844D01*
X009460Y017691D01*
X009536Y017614D01*
X010345Y017510D02*
X010345Y017817D01*
X010560Y018014D02*
X010560Y018244D01*
X010636Y018321D01*
X010943Y018321D01*
X011020Y018244D01*
X011020Y018014D01*
X010560Y018014D01*
X010790Y017861D02*
X010790Y017554D01*
X010345Y016896D02*
X009885Y016589D01*
X010345Y016589D01*
X010345Y016435D02*
X010038Y016435D01*
X009885Y016282D01*
X010038Y016129D01*
X010345Y016129D01*
X010560Y016111D02*
X010943Y016111D01*
X011020Y016034D01*
X011020Y015881D01*
X010943Y015804D01*
X010560Y015804D01*
X010560Y015650D02*
X011020Y015650D01*
X010790Y015650D02*
X010790Y015343D01*
X010943Y015190D02*
X011020Y015113D01*
X011020Y014960D01*
X010943Y014883D01*
X010636Y014883D01*
X010560Y014960D01*
X010560Y015113D01*
X010636Y015190D01*
X010560Y015343D02*
X011020Y015343D01*
X010422Y015208D02*
X010422Y015515D01*
X010345Y015822D02*
X009885Y015822D01*
X009885Y015975D02*
X009885Y015668D01*
X010115Y016129D02*
X010115Y016435D01*
X010560Y016418D02*
X011020Y016418D01*
X010560Y016571D02*
X010560Y016264D01*
X009426Y015395D02*
X009426Y014935D01*
X009579Y014935D02*
X009272Y014935D01*
X009042Y015088D02*
X008812Y015088D01*
X008812Y014935D02*
X008812Y015395D01*
X009042Y015395D01*
X009119Y015319D01*
X009119Y015165D01*
X009042Y015088D01*
X009272Y015242D02*
X009426Y015395D01*
X009885Y014978D02*
X009885Y014824D01*
X009961Y014747D01*
X009885Y014594D02*
X010192Y014287D01*
X010115Y014364D02*
X010345Y014594D01*
X010345Y014747D02*
X010038Y015054D01*
X009961Y015054D01*
X009885Y014978D01*
X010345Y015054D02*
X010345Y014747D01*
X010345Y014287D02*
X009885Y014287D01*
X010345Y014133D02*
X010345Y013827D01*
X009885Y013827D01*
X009885Y013673D02*
X010268Y013673D01*
X010345Y013596D01*
X010345Y013443D01*
X010268Y013366D01*
X009885Y013366D01*
X009961Y013213D02*
X010038Y013213D01*
X010115Y013136D01*
X010115Y012906D01*
X010115Y013136D02*
X010192Y013213D01*
X010268Y013213D01*
X010345Y013136D01*
X010345Y012906D01*
X009885Y012906D01*
X009885Y013136D01*
X009961Y013213D01*
X010422Y012752D02*
X010422Y012445D01*
X010268Y012292D02*
X010345Y012215D01*
X010345Y012062D01*
X010268Y011985D01*
X009961Y011985D01*
X009885Y012062D01*
X009885Y012215D01*
X009961Y012292D01*
X010260Y010948D02*
X010336Y010795D01*
X010490Y010641D01*
X010490Y010871D01*
X010567Y010948D01*
X010643Y010948D01*
X010720Y010871D01*
X010720Y010718D01*
X010643Y010641D01*
X010490Y010641D01*
X010490Y010488D02*
X010490Y010334D01*
X010490Y010488D02*
X010643Y010488D01*
X010720Y010411D01*
X010720Y010258D01*
X010643Y010181D01*
X010336Y010181D01*
X010260Y010258D01*
X010260Y010411D01*
X010336Y010488D01*
X010797Y010027D02*
X010797Y009720D01*
X010720Y009567D02*
X010567Y009413D01*
X010567Y009490D02*
X010567Y009260D01*
X010720Y009260D02*
X010260Y009260D01*
X010260Y009490D01*
X010336Y009567D01*
X010490Y009567D01*
X010567Y009490D01*
X011260Y009490D02*
X011336Y009567D01*
X011490Y009567D01*
X011567Y009490D01*
X011567Y009260D01*
X011720Y009260D02*
X011260Y009260D01*
X011260Y009490D01*
X011567Y009413D02*
X011720Y009567D01*
X011797Y009720D02*
X011797Y010027D01*
X011720Y010181D02*
X011260Y010181D01*
X011260Y010411D01*
X011336Y010488D01*
X011490Y010488D01*
X011567Y010411D01*
X011567Y010181D01*
X012260Y010258D02*
X012336Y010181D01*
X012643Y010181D01*
X012720Y010258D01*
X012720Y010411D01*
X012643Y010488D01*
X012490Y010488D01*
X012490Y010334D01*
X012336Y010488D02*
X012260Y010411D01*
X012260Y010258D01*
X012260Y010641D02*
X012490Y010641D01*
X012413Y010795D01*
X012413Y010871D01*
X012490Y010948D01*
X012643Y010948D01*
X012720Y010871D01*
X012720Y010718D01*
X012643Y010641D01*
X012260Y010641D02*
X012260Y010948D01*
X011720Y010871D02*
X011643Y010948D01*
X011567Y010948D01*
X011490Y010871D01*
X011490Y010641D01*
X011643Y010641D01*
X011720Y010718D01*
X011720Y010871D01*
X011490Y010641D02*
X011336Y010795D01*
X011260Y010948D01*
X012797Y010027D02*
X012797Y009720D01*
X012720Y009567D02*
X012567Y009413D01*
X012567Y009490D02*
X012567Y009260D01*
X012720Y009260D02*
X012260Y009260D01*
X012260Y009490D01*
X012336Y009567D01*
X012490Y009567D01*
X012567Y009490D01*
X013260Y009490D02*
X013336Y009567D01*
X013490Y009567D01*
X013567Y009490D01*
X013567Y009260D01*
X013720Y009260D02*
X013260Y009260D01*
X013260Y009490D01*
X013567Y009413D02*
X013720Y009567D01*
X013797Y009720D02*
X013797Y010027D01*
X013720Y010181D02*
X013260Y010181D01*
X013260Y010411D01*
X013336Y010488D01*
X013490Y010488D01*
X013567Y010411D01*
X013567Y010181D01*
X013643Y010641D02*
X013720Y010718D01*
X013720Y010871D01*
X013643Y010948D01*
X013490Y010948D01*
X013413Y010871D01*
X013413Y010795D01*
X013490Y010641D01*
X013260Y010641D01*
X013260Y010948D01*
X014260Y010948D02*
X014260Y010641D01*
X014336Y010488D02*
X014260Y010411D01*
X014260Y010258D01*
X014336Y010181D01*
X014643Y010181D01*
X014720Y010258D01*
X014720Y010411D01*
X014643Y010488D01*
X014490Y010488D01*
X014490Y010334D01*
X014643Y010641D02*
X014720Y010641D01*
X014643Y010641D02*
X014336Y010948D01*
X014260Y010948D01*
X015260Y010948D02*
X015260Y010641D01*
X015336Y010488D02*
X015490Y010488D01*
X015567Y010411D01*
X015567Y010181D01*
X015720Y010181D02*
X015260Y010181D01*
X015260Y010411D01*
X015336Y010488D01*
X015643Y010641D02*
X015720Y010641D01*
X015643Y010641D02*
X015336Y010948D01*
X015260Y010948D01*
X016260Y010871D02*
X016336Y010948D01*
X016413Y010948D01*
X016490Y010871D01*
X016490Y010718D01*
X016413Y010641D01*
X016336Y010641D01*
X016260Y010718D01*
X016260Y010871D01*
X016490Y010871D02*
X016567Y010948D01*
X016643Y010948D01*
X016720Y010871D01*
X016720Y010718D01*
X016643Y010641D01*
X016567Y010641D01*
X016490Y010718D01*
X016490Y010488D02*
X016567Y010411D01*
X016567Y010181D01*
X016720Y010181D02*
X016260Y010181D01*
X016260Y010411D01*
X016336Y010488D01*
X016490Y010488D01*
X016797Y010027D02*
X016797Y009720D01*
X016720Y009567D02*
X016567Y009413D01*
X016567Y009490D02*
X016567Y009260D01*
X016720Y009260D02*
X016260Y009260D01*
X016260Y009490D01*
X016336Y009567D01*
X016490Y009567D01*
X016567Y009490D01*
X017260Y009490D02*
X017336Y009567D01*
X017490Y009567D01*
X017567Y009490D01*
X017567Y009260D01*
X017720Y009260D02*
X017260Y009260D01*
X017260Y009490D01*
X017567Y009413D02*
X017720Y009567D01*
X017797Y009720D02*
X017797Y010027D01*
X017643Y010181D02*
X017720Y010258D01*
X017720Y010411D01*
X017643Y010488D01*
X017490Y010488D01*
X017490Y010334D01*
X017643Y010181D02*
X017336Y010181D01*
X017260Y010258D01*
X017260Y010411D01*
X017336Y010488D01*
X017336Y010641D02*
X017413Y010641D01*
X017490Y010718D01*
X017490Y010871D01*
X017567Y010948D01*
X017643Y010948D01*
X017720Y010871D01*
X017720Y010718D01*
X017643Y010641D01*
X017567Y010641D01*
X017490Y010718D01*
X017490Y010871D02*
X017413Y010948D01*
X017336Y010948D01*
X017260Y010871D01*
X017260Y010718D01*
X017336Y010641D01*
X015797Y010027D02*
X015797Y009720D01*
X015720Y009567D02*
X015567Y009413D01*
X015567Y009490D02*
X015567Y009260D01*
X015720Y009260D02*
X015260Y009260D01*
X015260Y009490D01*
X015336Y009567D01*
X015490Y009567D01*
X015567Y009490D01*
X014797Y009720D02*
X014797Y010027D01*
X014720Y009567D02*
X014567Y009413D01*
X014567Y009490D02*
X014567Y009260D01*
X014720Y009260D02*
X014260Y009260D01*
X014260Y009490D01*
X014336Y009567D01*
X014490Y009567D01*
X014567Y009490D01*
X013164Y008327D02*
X013164Y008209D01*
X013164Y008036D01*
X016116Y008036D01*
X016116Y008209D01*
X016116Y008327D01*
X013164Y008327D01*
X013116Y008327D02*
X013116Y008209D01*
X013116Y008036D01*
X010164Y008036D01*
X010164Y008209D01*
X013116Y008209D01*
X013164Y008209D02*
X016116Y008209D01*
X016164Y008209D02*
X016164Y008036D01*
X019116Y008036D01*
X019116Y008209D01*
X019116Y008327D01*
X016164Y008327D01*
X016164Y008209D01*
X019116Y008209D01*
X019164Y008209D02*
X019164Y008036D01*
X022116Y008036D01*
X022116Y008209D01*
X022116Y008327D01*
X019164Y008327D01*
X019164Y008209D01*
X022116Y008209D01*
X022116Y008036D02*
X022116Y007716D01*
X022116Y007526D01*
X019164Y007526D01*
X019164Y007716D01*
X019164Y008036D01*
X019116Y008036D02*
X019116Y007716D01*
X019116Y007526D01*
X016164Y007526D01*
X016164Y007716D01*
X016164Y008036D01*
X016116Y008036D02*
X016116Y007716D01*
X016116Y007526D01*
X013164Y007526D01*
X013164Y007716D01*
X013164Y008036D01*
X013116Y008036D02*
X013116Y007716D01*
X013116Y007526D01*
X010164Y007526D01*
X010164Y007716D01*
X010164Y008036D01*
X010164Y008209D02*
X010164Y008327D01*
X013116Y008327D01*
X012881Y008015D02*
X012756Y007765D01*
X013006Y007765D01*
X012881Y008015D01*
X012878Y008009D02*
X012884Y008009D01*
X012904Y007970D02*
X012859Y007970D01*
X012839Y007932D02*
X012923Y007932D01*
X012942Y007893D02*
X012820Y007893D01*
X012801Y007855D02*
X012961Y007855D01*
X012981Y007816D02*
X012782Y007816D01*
X012762Y007778D02*
X013000Y007778D01*
X013116Y007716D02*
X010164Y007716D01*
X010164Y007526D02*
X010164Y006324D01*
X013116Y006324D01*
X013116Y007526D01*
X013164Y007526D02*
X013164Y006324D01*
X016116Y006324D01*
X016116Y007526D01*
X016164Y007526D02*
X016164Y006324D01*
X019116Y006324D01*
X019116Y007526D01*
X019164Y007526D02*
X019164Y006324D01*
X022116Y006324D01*
X022116Y007526D01*
X022116Y007716D02*
X019164Y007716D01*
X019116Y007716D02*
X016164Y007716D01*
X016116Y007716D02*
X013164Y007716D01*
X013276Y007651D02*
X013352Y007575D01*
X013429Y007575D01*
X013506Y007651D01*
X013506Y007882D01*
X013659Y007882D02*
X013352Y007882D01*
X013276Y007805D01*
X013276Y007651D01*
X013276Y007421D02*
X013736Y007114D01*
X013380Y006929D02*
X013382Y006976D01*
X013388Y007023D01*
X013397Y007069D01*
X013411Y007114D01*
X013428Y007158D01*
X013449Y007201D01*
X013473Y007241D01*
X013500Y007280D01*
X013531Y007316D01*
X013564Y007349D01*
X013600Y007380D01*
X013639Y007407D01*
X013679Y007431D01*
X013722Y007452D01*
X013766Y007469D01*
X013811Y007483D01*
X013857Y007492D01*
X013904Y007498D01*
X013951Y007500D01*
X013998Y007498D01*
X014045Y007492D01*
X014091Y007483D01*
X014136Y007469D01*
X014180Y007452D01*
X014223Y007431D01*
X014263Y007407D01*
X014302Y007380D01*
X014338Y007349D01*
X014371Y007316D01*
X014402Y007280D01*
X014429Y007241D01*
X014453Y007201D01*
X014474Y007158D01*
X014491Y007114D01*
X014505Y007069D01*
X014514Y007023D01*
X014520Y006976D01*
X014522Y006929D01*
X014520Y006882D01*
X014514Y006835D01*
X014505Y006789D01*
X014491Y006744D01*
X014474Y006700D01*
X014453Y006657D01*
X014429Y006617D01*
X014402Y006578D01*
X014371Y006542D01*
X014338Y006509D01*
X014302Y006478D01*
X014263Y006451D01*
X014223Y006427D01*
X014180Y006406D01*
X014136Y006389D01*
X014091Y006375D01*
X014045Y006366D01*
X013998Y006360D01*
X013951Y006358D01*
X013904Y006360D01*
X013857Y006366D01*
X013811Y006375D01*
X013766Y006389D01*
X013722Y006406D01*
X013679Y006427D01*
X013639Y006451D01*
X013600Y006478D01*
X013564Y006509D01*
X013531Y006542D01*
X013500Y006578D01*
X013473Y006617D01*
X013449Y006657D01*
X013428Y006700D01*
X013411Y006744D01*
X013397Y006789D01*
X013388Y006835D01*
X013382Y006882D01*
X013380Y006929D01*
X013276Y007114D02*
X013736Y007421D01*
X013659Y007575D02*
X013736Y007651D01*
X013736Y007805D01*
X013659Y007882D01*
X013479Y006652D02*
X013476Y006649D01*
X013164Y006324D02*
X013164Y006137D01*
X013164Y005453D01*
X016116Y005453D01*
X016116Y006137D01*
X013164Y006137D01*
X013116Y006137D02*
X013116Y006324D01*
X013116Y006137D02*
X010164Y006137D01*
X010164Y005453D01*
X013116Y005453D01*
X013116Y006137D01*
X012219Y005995D02*
X012066Y005842D01*
X012219Y005995D02*
X012219Y005535D01*
X012066Y005535D02*
X012373Y005535D01*
X010998Y005535D02*
X010691Y005535D01*
X010998Y005842D01*
X010998Y005919D01*
X010921Y005995D01*
X010767Y005995D01*
X010691Y005919D01*
X010164Y006137D02*
X010164Y006324D01*
X010476Y006649D02*
X010479Y006652D01*
X010380Y006929D02*
X010382Y006976D01*
X010388Y007023D01*
X010397Y007069D01*
X010411Y007114D01*
X010428Y007158D01*
X010449Y007201D01*
X010473Y007241D01*
X010500Y007280D01*
X010531Y007316D01*
X010564Y007349D01*
X010600Y007380D01*
X010639Y007407D01*
X010679Y007431D01*
X010722Y007452D01*
X010766Y007469D01*
X010811Y007483D01*
X010857Y007492D01*
X010904Y007498D01*
X010951Y007500D01*
X010998Y007498D01*
X011045Y007492D01*
X011091Y007483D01*
X011136Y007469D01*
X011180Y007452D01*
X011223Y007431D01*
X011263Y007407D01*
X011302Y007380D01*
X011338Y007349D01*
X011371Y007316D01*
X011402Y007280D01*
X011429Y007241D01*
X011453Y007201D01*
X011474Y007158D01*
X011491Y007114D01*
X011505Y007069D01*
X011514Y007023D01*
X011520Y006976D01*
X011522Y006929D01*
X011520Y006882D01*
X011514Y006835D01*
X011505Y006789D01*
X011491Y006744D01*
X011474Y006700D01*
X011453Y006657D01*
X011429Y006617D01*
X011402Y006578D01*
X011371Y006542D01*
X011338Y006509D01*
X011302Y006478D01*
X011263Y006451D01*
X011223Y006427D01*
X011180Y006406D01*
X011136Y006389D01*
X011091Y006375D01*
X011045Y006366D01*
X010998Y006360D01*
X010951Y006358D01*
X010904Y006360D01*
X010857Y006366D01*
X010811Y006375D01*
X010766Y006389D01*
X010722Y006406D01*
X010679Y006427D01*
X010639Y006451D01*
X010600Y006478D01*
X010564Y006509D01*
X010531Y006542D01*
X010500Y006578D01*
X010473Y006617D01*
X010449Y006657D01*
X010428Y006700D01*
X010411Y006744D01*
X010397Y006789D01*
X010388Y006835D01*
X010382Y006882D01*
X010380Y006929D01*
X011854Y006649D02*
X011857Y006652D01*
X011758Y006929D02*
X011760Y006976D01*
X011766Y007023D01*
X011775Y007069D01*
X011789Y007114D01*
X011806Y007158D01*
X011827Y007201D01*
X011851Y007241D01*
X011878Y007280D01*
X011909Y007316D01*
X011942Y007349D01*
X011978Y007380D01*
X012017Y007407D01*
X012057Y007431D01*
X012100Y007452D01*
X012144Y007469D01*
X012189Y007483D01*
X012235Y007492D01*
X012282Y007498D01*
X012329Y007500D01*
X012376Y007498D01*
X012423Y007492D01*
X012469Y007483D01*
X012514Y007469D01*
X012558Y007452D01*
X012601Y007431D01*
X012641Y007407D01*
X012680Y007380D01*
X012716Y007349D01*
X012749Y007316D01*
X012780Y007280D01*
X012807Y007241D01*
X012831Y007201D01*
X012852Y007158D01*
X012869Y007114D01*
X012883Y007069D01*
X012892Y007023D01*
X012898Y006976D01*
X012900Y006929D01*
X012898Y006882D01*
X012892Y006835D01*
X012883Y006789D01*
X012869Y006744D01*
X012852Y006700D01*
X012831Y006657D01*
X012807Y006617D01*
X012780Y006578D01*
X012749Y006542D01*
X012716Y006509D01*
X012680Y006478D01*
X012641Y006451D01*
X012601Y006427D01*
X012558Y006406D01*
X012514Y006389D01*
X012469Y006375D01*
X012423Y006366D01*
X012376Y006360D01*
X012329Y006358D01*
X012282Y006360D01*
X012235Y006366D01*
X012189Y006375D01*
X012144Y006389D01*
X012100Y006406D01*
X012057Y006427D01*
X012017Y006451D01*
X011978Y006478D01*
X011942Y006509D01*
X011909Y006542D01*
X011878Y006578D01*
X011851Y006617D01*
X011827Y006657D01*
X011806Y006700D01*
X011789Y006744D01*
X011775Y006789D01*
X011766Y006835D01*
X011760Y006882D01*
X011758Y006929D01*
X013691Y005919D02*
X013767Y005995D01*
X013921Y005995D01*
X013998Y005919D01*
X013998Y005842D01*
X013691Y005535D01*
X013998Y005535D01*
X015066Y005535D02*
X015373Y005535D01*
X015219Y005535D02*
X015219Y005995D01*
X015066Y005842D01*
X016116Y006137D02*
X016116Y006324D01*
X016164Y006324D02*
X016164Y006137D01*
X016164Y005453D01*
X019116Y005453D01*
X019116Y006137D01*
X016164Y006137D01*
X016691Y005919D02*
X016767Y005995D01*
X016921Y005995D01*
X016998Y005919D01*
X016998Y005842D01*
X016691Y005535D01*
X016998Y005535D01*
X018066Y005535D02*
X018373Y005535D01*
X018219Y005535D02*
X018219Y005995D01*
X018066Y005842D01*
X019116Y006137D02*
X019116Y006324D01*
X019164Y006324D02*
X019164Y006137D01*
X019164Y005453D01*
X022116Y005453D01*
X022116Y006137D01*
X019164Y006137D01*
X019691Y005919D02*
X019767Y005995D01*
X019921Y005995D01*
X019998Y005919D01*
X019998Y005842D01*
X019691Y005535D01*
X019998Y005535D01*
X021066Y005535D02*
X021373Y005535D01*
X021219Y005535D02*
X021219Y005995D01*
X021066Y005842D01*
X022116Y006137D02*
X022116Y006324D01*
X022276Y006654D02*
X022736Y006961D01*
X022736Y007114D02*
X022736Y007421D01*
X022736Y007268D02*
X022276Y007268D01*
X022429Y007114D01*
X022401Y006994D02*
X022401Y009317D01*
X023621Y009317D01*
X024409Y009317D02*
X025629Y009317D01*
X025629Y006994D01*
X024724Y006088D01*
X024409Y006088D01*
X023621Y006088D02*
X023306Y006088D01*
X022401Y006994D01*
X022276Y006961D02*
X022736Y006654D01*
X022736Y007575D02*
X022736Y007882D01*
X022736Y007728D02*
X022276Y007728D01*
X022429Y007575D01*
X022006Y007765D02*
X021756Y007765D01*
X021881Y008015D01*
X022006Y007765D01*
X022000Y007778D02*
X021762Y007778D01*
X021782Y007816D02*
X021981Y007816D01*
X021961Y007855D02*
X021801Y007855D01*
X021820Y007893D02*
X021942Y007893D01*
X021923Y007932D02*
X021839Y007932D01*
X021859Y007970D02*
X021904Y007970D01*
X021884Y008009D02*
X021878Y008009D01*
X021520Y008996D02*
X021060Y008996D01*
X021060Y009226D01*
X021136Y009303D01*
X021290Y009303D01*
X021367Y009226D01*
X021367Y008996D01*
X021367Y009149D02*
X021520Y009303D01*
X021597Y009456D02*
X021597Y009763D01*
X021520Y009916D02*
X021060Y009916D01*
X021060Y010147D01*
X021136Y010223D01*
X021290Y010223D01*
X021367Y010147D01*
X021367Y009916D01*
X021367Y010070D02*
X021520Y010223D01*
X021520Y010377D02*
X021060Y010377D01*
X021060Y010684D01*
X021136Y010837D02*
X021060Y010914D01*
X021060Y011067D01*
X021136Y011144D01*
X021060Y011298D02*
X021520Y011298D01*
X021520Y011605D01*
X021290Y011451D02*
X021290Y011298D01*
X021367Y011144D02*
X021443Y011144D01*
X021520Y011067D01*
X021520Y010914D01*
X021443Y010837D01*
X021290Y010914D02*
X021213Y010837D01*
X021136Y010837D01*
X021290Y010914D02*
X021290Y011067D01*
X021367Y011144D01*
X021060Y011298D02*
X021060Y011605D01*
X021060Y011758D02*
X021060Y012065D01*
X021060Y011911D02*
X021520Y011911D01*
X021597Y012218D02*
X021597Y012525D01*
X021520Y012679D02*
X021060Y012679D01*
X021060Y012909D01*
X021136Y012986D01*
X021290Y012986D01*
X021367Y012909D01*
X021367Y012679D01*
X021443Y013139D02*
X021060Y013139D01*
X021060Y013446D02*
X021443Y013446D01*
X021520Y013369D01*
X021520Y013216D01*
X021443Y013139D01*
X022135Y013270D02*
X022135Y012810D01*
X022135Y012963D02*
X022365Y012963D01*
X022442Y013040D01*
X022442Y013194D01*
X022365Y013270D01*
X022135Y013270D01*
X022288Y012963D02*
X022442Y012810D01*
X022595Y012733D02*
X022902Y012733D01*
X023056Y012810D02*
X023286Y012810D01*
X023363Y012887D01*
X023363Y013194D01*
X023286Y013270D01*
X023056Y013270D01*
X023056Y012810D01*
X023670Y012810D02*
X023670Y013270D01*
X023823Y013270D02*
X023516Y013270D01*
X023977Y013270D02*
X024207Y013270D01*
X024283Y013194D01*
X024283Y013040D01*
X024207Y012963D01*
X023977Y012963D01*
X023977Y012810D02*
X023977Y013270D01*
X024130Y012963D02*
X024283Y012810D01*
X024437Y012810D02*
X024744Y012810D01*
X024590Y012810D02*
X024590Y013270D01*
X024437Y013117D01*
X024283Y013810D02*
X024130Y013963D01*
X024207Y013963D02*
X023977Y013963D01*
X023977Y013810D02*
X023977Y014270D01*
X024207Y014270D01*
X024283Y014194D01*
X024283Y014040D01*
X024207Y013963D01*
X023823Y014270D02*
X023516Y014270D01*
X023670Y014270D02*
X023670Y013810D01*
X023363Y013887D02*
X023363Y014194D01*
X023286Y014270D01*
X023056Y014270D01*
X023056Y013810D01*
X023286Y013810D01*
X023363Y013887D01*
X022902Y013733D02*
X022595Y013733D01*
X022442Y013810D02*
X022288Y013963D01*
X022365Y013963D02*
X022135Y013963D01*
X022135Y013810D02*
X022135Y014270D01*
X022365Y014270D01*
X022442Y014194D01*
X022442Y014040D01*
X022365Y013963D01*
X022595Y014733D02*
X022902Y014733D01*
X023056Y014810D02*
X023056Y015270D01*
X023286Y015270D01*
X023363Y015194D01*
X023363Y015040D01*
X023286Y014963D01*
X023056Y014963D01*
X023209Y014963D02*
X023363Y014810D01*
X023516Y014810D02*
X023823Y015270D01*
X023977Y015270D02*
X024130Y015270D01*
X024053Y015270D02*
X024053Y014810D01*
X023977Y014810D02*
X024130Y014810D01*
X023823Y014810D02*
X023516Y015270D01*
X023516Y015810D02*
X023823Y016270D01*
X023977Y016194D02*
X023977Y015887D01*
X024053Y015810D01*
X024207Y015810D01*
X024283Y015887D01*
X024283Y016194D01*
X024207Y016270D01*
X024053Y016270D01*
X023977Y016194D01*
X023823Y015810D02*
X023516Y016270D01*
X023363Y016270D02*
X023056Y016270D01*
X023209Y016270D02*
X023209Y015810D01*
X022902Y015733D02*
X022595Y015733D01*
X022442Y015810D02*
X022288Y015963D01*
X022365Y015963D02*
X022135Y015963D01*
X022135Y015810D02*
X022135Y016270D01*
X022365Y016270D01*
X022442Y016194D01*
X022442Y016040D01*
X022365Y015963D01*
X022365Y015270D02*
X022135Y015270D01*
X022135Y014810D01*
X022135Y014963D02*
X022365Y014963D01*
X022442Y015040D01*
X022442Y015194D01*
X022365Y015270D01*
X022288Y014963D02*
X022442Y014810D01*
X021367Y013830D02*
X021290Y013907D01*
X021136Y013907D01*
X021060Y013830D01*
X021060Y013600D01*
X021520Y013600D01*
X021367Y013600D02*
X021367Y013830D01*
X023661Y011188D02*
X023585Y011111D01*
X023585Y010958D01*
X023661Y010881D01*
X023661Y011188D02*
X023738Y011188D01*
X024045Y010881D01*
X024045Y011188D01*
X024045Y010727D02*
X024045Y010420D01*
X024008Y010413D02*
X024238Y010413D01*
X024315Y010490D01*
X024315Y010644D01*
X024238Y010720D01*
X024008Y010720D01*
X024008Y010260D01*
X023968Y010267D02*
X023661Y010267D01*
X023585Y010190D01*
X023585Y009960D01*
X024045Y009960D01*
X024045Y010190D01*
X023968Y010267D01*
X024161Y010413D02*
X024315Y010260D01*
X024468Y010183D02*
X024775Y010183D01*
X024929Y010260D02*
X025236Y010260D01*
X025389Y010260D02*
X025696Y010260D01*
X025850Y010260D02*
X026080Y010260D01*
X026157Y010337D01*
X026157Y010644D01*
X026080Y010720D01*
X025850Y010720D01*
X025850Y010260D01*
X025543Y010490D02*
X025389Y010490D01*
X025389Y010720D02*
X025389Y010260D01*
X024929Y010260D02*
X024929Y010720D01*
X025389Y010720D02*
X025696Y010720D01*
X024045Y010574D02*
X023585Y010574D01*
X023738Y010420D01*
X021520Y010377D02*
X021520Y010684D01*
X021290Y010530D02*
X021290Y010377D01*
X018881Y008015D02*
X018756Y007765D01*
X019006Y007765D01*
X018881Y008015D01*
X018878Y008009D02*
X018884Y008009D01*
X018904Y007970D02*
X018859Y007970D01*
X018839Y007932D02*
X018923Y007932D01*
X018942Y007893D02*
X018820Y007893D01*
X018801Y007855D02*
X018961Y007855D01*
X018981Y007816D02*
X018782Y007816D01*
X018762Y007778D02*
X019000Y007778D01*
X019276Y007805D02*
X019352Y007882D01*
X019659Y007575D01*
X019736Y007651D01*
X019736Y007805D01*
X019659Y007882D01*
X019352Y007882D01*
X019276Y007805D02*
X019276Y007651D01*
X019352Y007575D01*
X019659Y007575D01*
X019736Y007421D02*
X019736Y007114D01*
X019736Y006961D02*
X019276Y006654D01*
X019476Y006649D02*
X019479Y006652D01*
X019736Y006654D02*
X019276Y006961D01*
X019429Y007114D02*
X019276Y007268D01*
X019736Y007268D01*
X019380Y006929D02*
X019382Y006976D01*
X019388Y007023D01*
X019397Y007069D01*
X019411Y007114D01*
X019428Y007158D01*
X019449Y007201D01*
X019473Y007241D01*
X019500Y007280D01*
X019531Y007316D01*
X019564Y007349D01*
X019600Y007380D01*
X019639Y007407D01*
X019679Y007431D01*
X019722Y007452D01*
X019766Y007469D01*
X019811Y007483D01*
X019857Y007492D01*
X019904Y007498D01*
X019951Y007500D01*
X019998Y007498D01*
X020045Y007492D01*
X020091Y007483D01*
X020136Y007469D01*
X020180Y007452D01*
X020223Y007431D01*
X020263Y007407D01*
X020302Y007380D01*
X020338Y007349D01*
X020371Y007316D01*
X020402Y007280D01*
X020429Y007241D01*
X020453Y007201D01*
X020474Y007158D01*
X020491Y007114D01*
X020505Y007069D01*
X020514Y007023D01*
X020520Y006976D01*
X020522Y006929D01*
X020520Y006882D01*
X020514Y006835D01*
X020505Y006789D01*
X020491Y006744D01*
X020474Y006700D01*
X020453Y006657D01*
X020429Y006617D01*
X020402Y006578D01*
X020371Y006542D01*
X020338Y006509D01*
X020302Y006478D01*
X020263Y006451D01*
X020223Y006427D01*
X020180Y006406D01*
X020136Y006389D01*
X020091Y006375D01*
X020045Y006366D01*
X019998Y006360D01*
X019951Y006358D01*
X019904Y006360D01*
X019857Y006366D01*
X019811Y006375D01*
X019766Y006389D01*
X019722Y006406D01*
X019679Y006427D01*
X019639Y006451D01*
X019600Y006478D01*
X019564Y006509D01*
X019531Y006542D01*
X019500Y006578D01*
X019473Y006617D01*
X019449Y006657D01*
X019428Y006700D01*
X019411Y006744D01*
X019397Y006789D01*
X019388Y006835D01*
X019382Y006882D01*
X019380Y006929D01*
X017758Y006929D02*
X017760Y006976D01*
X017766Y007023D01*
X017775Y007069D01*
X017789Y007114D01*
X017806Y007158D01*
X017827Y007201D01*
X017851Y007241D01*
X017878Y007280D01*
X017909Y007316D01*
X017942Y007349D01*
X017978Y007380D01*
X018017Y007407D01*
X018057Y007431D01*
X018100Y007452D01*
X018144Y007469D01*
X018189Y007483D01*
X018235Y007492D01*
X018282Y007498D01*
X018329Y007500D01*
X018376Y007498D01*
X018423Y007492D01*
X018469Y007483D01*
X018514Y007469D01*
X018558Y007452D01*
X018601Y007431D01*
X018641Y007407D01*
X018680Y007380D01*
X018716Y007349D01*
X018749Y007316D01*
X018780Y007280D01*
X018807Y007241D01*
X018831Y007201D01*
X018852Y007158D01*
X018869Y007114D01*
X018883Y007069D01*
X018892Y007023D01*
X018898Y006976D01*
X018900Y006929D01*
X018898Y006882D01*
X018892Y006835D01*
X018883Y006789D01*
X018869Y006744D01*
X018852Y006700D01*
X018831Y006657D01*
X018807Y006617D01*
X018780Y006578D01*
X018749Y006542D01*
X018716Y006509D01*
X018680Y006478D01*
X018641Y006451D01*
X018601Y006427D01*
X018558Y006406D01*
X018514Y006389D01*
X018469Y006375D01*
X018423Y006366D01*
X018376Y006360D01*
X018329Y006358D01*
X018282Y006360D01*
X018235Y006366D01*
X018189Y006375D01*
X018144Y006389D01*
X018100Y006406D01*
X018057Y006427D01*
X018017Y006451D01*
X017978Y006478D01*
X017942Y006509D01*
X017909Y006542D01*
X017878Y006578D01*
X017851Y006617D01*
X017827Y006657D01*
X017806Y006700D01*
X017789Y006744D01*
X017775Y006789D01*
X017766Y006835D01*
X017760Y006882D01*
X017758Y006929D01*
X017857Y006652D02*
X017854Y006649D01*
X016380Y006929D02*
X016382Y006976D01*
X016388Y007023D01*
X016397Y007069D01*
X016411Y007114D01*
X016428Y007158D01*
X016449Y007201D01*
X016473Y007241D01*
X016500Y007280D01*
X016531Y007316D01*
X016564Y007349D01*
X016600Y007380D01*
X016639Y007407D01*
X016679Y007431D01*
X016722Y007452D01*
X016766Y007469D01*
X016811Y007483D01*
X016857Y007492D01*
X016904Y007498D01*
X016951Y007500D01*
X016998Y007498D01*
X017045Y007492D01*
X017091Y007483D01*
X017136Y007469D01*
X017180Y007452D01*
X017223Y007431D01*
X017263Y007407D01*
X017302Y007380D01*
X017338Y007349D01*
X017371Y007316D01*
X017402Y007280D01*
X017429Y007241D01*
X017453Y007201D01*
X017474Y007158D01*
X017491Y007114D01*
X017505Y007069D01*
X017514Y007023D01*
X017520Y006976D01*
X017522Y006929D01*
X017520Y006882D01*
X017514Y006835D01*
X017505Y006789D01*
X017491Y006744D01*
X017474Y006700D01*
X017453Y006657D01*
X017429Y006617D01*
X017402Y006578D01*
X017371Y006542D01*
X017338Y006509D01*
X017302Y006478D01*
X017263Y006451D01*
X017223Y006427D01*
X017180Y006406D01*
X017136Y006389D01*
X017091Y006375D01*
X017045Y006366D01*
X016998Y006360D01*
X016951Y006358D01*
X016904Y006360D01*
X016857Y006366D01*
X016811Y006375D01*
X016766Y006389D01*
X016722Y006406D01*
X016679Y006427D01*
X016639Y006451D01*
X016600Y006478D01*
X016564Y006509D01*
X016531Y006542D01*
X016500Y006578D01*
X016473Y006617D01*
X016449Y006657D01*
X016428Y006700D01*
X016411Y006744D01*
X016397Y006789D01*
X016388Y006835D01*
X016382Y006882D01*
X016380Y006929D01*
X016276Y007114D02*
X016736Y007421D01*
X016659Y007575D02*
X016583Y007575D01*
X016506Y007651D01*
X016506Y007805D01*
X016583Y007882D01*
X016659Y007882D01*
X016736Y007805D01*
X016736Y007651D01*
X016659Y007575D01*
X016506Y007651D02*
X016429Y007575D01*
X016352Y007575D01*
X016276Y007651D01*
X016276Y007805D01*
X016352Y007882D01*
X016429Y007882D01*
X016506Y007805D01*
X016276Y007421D02*
X016736Y007114D01*
X016479Y006652D02*
X016476Y006649D01*
X014758Y006929D02*
X014760Y006976D01*
X014766Y007023D01*
X014775Y007069D01*
X014789Y007114D01*
X014806Y007158D01*
X014827Y007201D01*
X014851Y007241D01*
X014878Y007280D01*
X014909Y007316D01*
X014942Y007349D01*
X014978Y007380D01*
X015017Y007407D01*
X015057Y007431D01*
X015100Y007452D01*
X015144Y007469D01*
X015189Y007483D01*
X015235Y007492D01*
X015282Y007498D01*
X015329Y007500D01*
X015376Y007498D01*
X015423Y007492D01*
X015469Y007483D01*
X015514Y007469D01*
X015558Y007452D01*
X015601Y007431D01*
X015641Y007407D01*
X015680Y007380D01*
X015716Y007349D01*
X015749Y007316D01*
X015780Y007280D01*
X015807Y007241D01*
X015831Y007201D01*
X015852Y007158D01*
X015869Y007114D01*
X015883Y007069D01*
X015892Y007023D01*
X015898Y006976D01*
X015900Y006929D01*
X015898Y006882D01*
X015892Y006835D01*
X015883Y006789D01*
X015869Y006744D01*
X015852Y006700D01*
X015831Y006657D01*
X015807Y006617D01*
X015780Y006578D01*
X015749Y006542D01*
X015716Y006509D01*
X015680Y006478D01*
X015641Y006451D01*
X015601Y006427D01*
X015558Y006406D01*
X015514Y006389D01*
X015469Y006375D01*
X015423Y006366D01*
X015376Y006360D01*
X015329Y006358D01*
X015282Y006360D01*
X015235Y006366D01*
X015189Y006375D01*
X015144Y006389D01*
X015100Y006406D01*
X015057Y006427D01*
X015017Y006451D01*
X014978Y006478D01*
X014942Y006509D01*
X014909Y006542D01*
X014878Y006578D01*
X014851Y006617D01*
X014827Y006657D01*
X014806Y006700D01*
X014789Y006744D01*
X014775Y006789D01*
X014766Y006835D01*
X014760Y006882D01*
X014758Y006929D01*
X014857Y006652D02*
X014854Y006649D01*
X015756Y007765D02*
X015881Y008015D01*
X016006Y007765D01*
X015756Y007765D01*
X015762Y007778D02*
X016000Y007778D01*
X015981Y007816D02*
X015782Y007816D01*
X015801Y007855D02*
X015961Y007855D01*
X015942Y007893D02*
X015820Y007893D01*
X015839Y007932D02*
X015923Y007932D01*
X015904Y007970D02*
X015859Y007970D01*
X015878Y008009D02*
X015884Y008009D01*
X020854Y006649D02*
X020857Y006652D01*
X020758Y006929D02*
X020760Y006976D01*
X020766Y007023D01*
X020775Y007069D01*
X020789Y007114D01*
X020806Y007158D01*
X020827Y007201D01*
X020851Y007241D01*
X020878Y007280D01*
X020909Y007316D01*
X020942Y007349D01*
X020978Y007380D01*
X021017Y007407D01*
X021057Y007431D01*
X021100Y007452D01*
X021144Y007469D01*
X021189Y007483D01*
X021235Y007492D01*
X021282Y007498D01*
X021329Y007500D01*
X021376Y007498D01*
X021423Y007492D01*
X021469Y007483D01*
X021514Y007469D01*
X021558Y007452D01*
X021601Y007431D01*
X021641Y007407D01*
X021680Y007380D01*
X021716Y007349D01*
X021749Y007316D01*
X021780Y007280D01*
X021807Y007241D01*
X021831Y007201D01*
X021852Y007158D01*
X021869Y007114D01*
X021883Y007069D01*
X021892Y007023D01*
X021898Y006976D01*
X021900Y006929D01*
X021898Y006882D01*
X021892Y006835D01*
X021883Y006789D01*
X021869Y006744D01*
X021852Y006700D01*
X021831Y006657D01*
X021807Y006617D01*
X021780Y006578D01*
X021749Y006542D01*
X021716Y006509D01*
X021680Y006478D01*
X021641Y006451D01*
X021601Y006427D01*
X021558Y006406D01*
X021514Y006389D01*
X021469Y006375D01*
X021423Y006366D01*
X021376Y006360D01*
X021329Y006358D01*
X021282Y006360D01*
X021235Y006366D01*
X021189Y006375D01*
X021144Y006389D01*
X021100Y006406D01*
X021057Y006427D01*
X021017Y006451D01*
X020978Y006478D01*
X020942Y006509D01*
X020909Y006542D01*
X020878Y006578D01*
X020851Y006617D01*
X020827Y006657D01*
X020806Y006700D01*
X020789Y006744D01*
X020775Y006789D01*
X020766Y006835D01*
X020760Y006882D01*
X020758Y006929D01*
X023661Y006187D02*
X023584Y006207D01*
X023509Y006230D01*
X023435Y006258D01*
X023363Y006289D01*
X023292Y006324D01*
X023223Y006362D01*
X023157Y006404D01*
X023092Y006449D01*
X023030Y006497D01*
X022970Y006549D01*
X022913Y006603D01*
X022859Y006660D01*
X022807Y006720D01*
X022759Y006782D01*
X022714Y006847D01*
X022673Y006914D01*
X022635Y006983D01*
X022600Y007054D01*
X022569Y007126D01*
X022541Y007200D01*
X022518Y007275D01*
X022498Y007351D01*
X022482Y007429D01*
X022470Y007507D01*
X022462Y007585D01*
X022458Y007664D01*
X022458Y007742D01*
X022462Y007821D01*
X022470Y007899D01*
X022482Y007977D01*
X022498Y008055D01*
X022518Y008131D01*
X022541Y008206D01*
X022569Y008280D01*
X022600Y008352D01*
X022635Y008423D01*
X022673Y008492D01*
X022714Y008559D01*
X022759Y008624D01*
X022807Y008686D01*
X022859Y008746D01*
X022913Y008803D01*
X022970Y008857D01*
X023030Y008909D01*
X023092Y008957D01*
X023157Y009002D01*
X023223Y009044D01*
X023292Y009082D01*
X023363Y009117D01*
X023435Y009148D01*
X023509Y009176D01*
X023584Y009199D01*
X023661Y009219D01*
X024369Y009219D02*
X024446Y009199D01*
X024521Y009176D01*
X024595Y009148D01*
X024667Y009117D01*
X024738Y009082D01*
X024807Y009044D01*
X024873Y009002D01*
X024938Y008957D01*
X025000Y008909D01*
X025060Y008857D01*
X025117Y008803D01*
X025171Y008746D01*
X025223Y008686D01*
X025271Y008624D01*
X025316Y008559D01*
X025357Y008492D01*
X025395Y008423D01*
X025430Y008352D01*
X025461Y008280D01*
X025489Y008206D01*
X025512Y008131D01*
X025532Y008055D01*
X025548Y007977D01*
X025560Y007899D01*
X025568Y007821D01*
X025572Y007742D01*
X025572Y007664D01*
X025568Y007585D01*
X025560Y007507D01*
X025548Y007429D01*
X025532Y007351D01*
X025512Y007275D01*
X025489Y007200D01*
X025461Y007126D01*
X025430Y007054D01*
X025395Y006983D01*
X025357Y006914D01*
X025316Y006847D01*
X025271Y006782D01*
X025223Y006720D01*
X025171Y006660D01*
X025117Y006603D01*
X025060Y006549D01*
X025000Y006497D01*
X024938Y006449D01*
X024873Y006404D01*
X024807Y006362D01*
X024738Y006324D01*
X024667Y006289D01*
X024595Y006258D01*
X024521Y006230D01*
X024446Y006207D01*
X024369Y006187D01*
X025914Y006137D02*
X025914Y005453D01*
X028866Y005453D01*
X028866Y006137D01*
X025914Y006137D01*
X025914Y006324D01*
X028866Y006324D01*
X028866Y007526D01*
X028866Y007716D01*
X028866Y008036D01*
X028866Y008209D01*
X028866Y008327D01*
X025914Y008327D01*
X025914Y008209D01*
X025914Y008036D01*
X028866Y008036D01*
X028870Y008125D02*
X028870Y007818D01*
X028410Y007818D01*
X028506Y007765D02*
X028631Y008015D01*
X028756Y007765D01*
X028506Y007765D01*
X028512Y007778D02*
X028750Y007778D01*
X028731Y007816D02*
X028532Y007816D01*
X028551Y007855D02*
X028711Y007855D01*
X028692Y007893D02*
X028570Y007893D01*
X028589Y007932D02*
X028673Y007932D01*
X028654Y007970D02*
X028609Y007970D01*
X028628Y008009D02*
X028634Y008009D01*
X028640Y008279D02*
X028640Y008432D01*
X028870Y008279D02*
X028870Y008586D01*
X028870Y008739D02*
X028410Y008739D01*
X028410Y008969D01*
X028486Y009046D01*
X028793Y009046D01*
X028870Y008969D01*
X028870Y008739D01*
X028870Y008279D02*
X028410Y008279D01*
X028410Y008586D01*
X028866Y008209D02*
X025914Y008209D01*
X025914Y008036D02*
X025914Y007716D01*
X025914Y007526D01*
X028866Y007526D01*
X028866Y007716D02*
X025914Y007716D01*
X025914Y007526D02*
X025914Y006324D01*
X026226Y006649D02*
X026229Y006652D01*
X026130Y006929D02*
X026132Y006976D01*
X026138Y007023D01*
X026147Y007069D01*
X026161Y007114D01*
X026178Y007158D01*
X026199Y007201D01*
X026223Y007241D01*
X026250Y007280D01*
X026281Y007316D01*
X026314Y007349D01*
X026350Y007380D01*
X026389Y007407D01*
X026429Y007431D01*
X026472Y007452D01*
X026516Y007469D01*
X026561Y007483D01*
X026607Y007492D01*
X026654Y007498D01*
X026701Y007500D01*
X026748Y007498D01*
X026795Y007492D01*
X026841Y007483D01*
X026886Y007469D01*
X026930Y007452D01*
X026973Y007431D01*
X027013Y007407D01*
X027052Y007380D01*
X027088Y007349D01*
X027121Y007316D01*
X027152Y007280D01*
X027179Y007241D01*
X027203Y007201D01*
X027224Y007158D01*
X027241Y007114D01*
X027255Y007069D01*
X027264Y007023D01*
X027270Y006976D01*
X027272Y006929D01*
X027270Y006882D01*
X027264Y006835D01*
X027255Y006789D01*
X027241Y006744D01*
X027224Y006700D01*
X027203Y006657D01*
X027179Y006617D01*
X027152Y006578D01*
X027121Y006542D01*
X027088Y006509D01*
X027052Y006478D01*
X027013Y006451D01*
X026973Y006427D01*
X026930Y006406D01*
X026886Y006389D01*
X026841Y006375D01*
X026795Y006366D01*
X026748Y006360D01*
X026701Y006358D01*
X026654Y006360D01*
X026607Y006366D01*
X026561Y006375D01*
X026516Y006389D01*
X026472Y006406D01*
X026429Y006427D01*
X026389Y006451D01*
X026350Y006478D01*
X026314Y006509D01*
X026281Y006542D01*
X026250Y006578D01*
X026223Y006617D01*
X026199Y006657D01*
X026178Y006700D01*
X026161Y006744D01*
X026147Y006789D01*
X026138Y006835D01*
X026132Y006882D01*
X026130Y006929D01*
X026517Y005995D02*
X026441Y005919D01*
X026517Y005995D02*
X026671Y005995D01*
X026748Y005919D01*
X026748Y005842D01*
X026441Y005535D01*
X026748Y005535D01*
X027816Y005535D02*
X028123Y005535D01*
X027969Y005535D02*
X027969Y005995D01*
X027816Y005842D01*
X028866Y006137D02*
X028866Y006324D01*
X027508Y006929D02*
X027510Y006976D01*
X027516Y007023D01*
X027525Y007069D01*
X027539Y007114D01*
X027556Y007158D01*
X027577Y007201D01*
X027601Y007241D01*
X027628Y007280D01*
X027659Y007316D01*
X027692Y007349D01*
X027728Y007380D01*
X027767Y007407D01*
X027807Y007431D01*
X027850Y007452D01*
X027894Y007469D01*
X027939Y007483D01*
X027985Y007492D01*
X028032Y007498D01*
X028079Y007500D01*
X028126Y007498D01*
X028173Y007492D01*
X028219Y007483D01*
X028264Y007469D01*
X028308Y007452D01*
X028351Y007431D01*
X028391Y007407D01*
X028430Y007380D01*
X028466Y007349D01*
X028499Y007316D01*
X028530Y007280D01*
X028557Y007241D01*
X028581Y007201D01*
X028602Y007158D01*
X028619Y007114D01*
X028633Y007069D01*
X028642Y007023D01*
X028648Y006976D01*
X028650Y006929D01*
X028648Y006882D01*
X028642Y006835D01*
X028633Y006789D01*
X028619Y006744D01*
X028602Y006700D01*
X028581Y006657D01*
X028557Y006617D01*
X028530Y006578D01*
X028499Y006542D01*
X028466Y006509D01*
X028430Y006478D01*
X028391Y006451D01*
X028351Y006427D01*
X028308Y006406D01*
X028264Y006389D01*
X028219Y006375D01*
X028173Y006366D01*
X028126Y006360D01*
X028079Y006358D01*
X028032Y006360D01*
X027985Y006366D01*
X027939Y006375D01*
X027894Y006389D01*
X027850Y006406D01*
X027807Y006427D01*
X027767Y006451D01*
X027728Y006478D01*
X027692Y006509D01*
X027659Y006542D01*
X027628Y006578D01*
X027601Y006617D01*
X027577Y006657D01*
X027556Y006700D01*
X027539Y006744D01*
X027525Y006789D01*
X027516Y006835D01*
X027510Y006882D01*
X027508Y006929D01*
X027607Y006652D02*
X027604Y006649D01*
X029026Y007114D02*
X029486Y007421D01*
X029256Y007575D02*
X029256Y007882D01*
X029486Y007805D02*
X029026Y007805D01*
X029256Y007575D01*
X029026Y007421D02*
X029486Y007114D01*
X031526Y007431D02*
X031526Y007746D01*
X031526Y007431D02*
X032431Y006526D01*
X034754Y006526D01*
X034754Y007746D01*
X034754Y008534D02*
X034754Y009754D01*
X032431Y009754D01*
X031526Y008849D01*
X031526Y008534D01*
X031624Y008494D02*
X031644Y008571D01*
X031667Y008646D01*
X031695Y008720D01*
X031726Y008792D01*
X031761Y008863D01*
X031799Y008932D01*
X031841Y008998D01*
X031886Y009063D01*
X031934Y009125D01*
X031986Y009185D01*
X032040Y009242D01*
X032097Y009296D01*
X032157Y009348D01*
X032219Y009396D01*
X032284Y009441D01*
X032351Y009482D01*
X032420Y009520D01*
X032491Y009555D01*
X032563Y009586D01*
X032637Y009614D01*
X032712Y009637D01*
X032788Y009657D01*
X032866Y009673D01*
X032944Y009685D01*
X033022Y009693D01*
X033101Y009697D01*
X033179Y009697D01*
X033258Y009693D01*
X033336Y009685D01*
X033414Y009673D01*
X033492Y009657D01*
X033568Y009637D01*
X033643Y009614D01*
X033717Y009586D01*
X033789Y009555D01*
X033860Y009520D01*
X033929Y009482D01*
X033996Y009441D01*
X034061Y009396D01*
X034123Y009348D01*
X034183Y009296D01*
X034240Y009242D01*
X034294Y009185D01*
X034346Y009125D01*
X034394Y009063D01*
X034439Y008998D01*
X034481Y008932D01*
X034519Y008863D01*
X034554Y008792D01*
X034585Y008720D01*
X034613Y008646D01*
X034636Y008571D01*
X034656Y008494D01*
X034656Y007786D02*
X034636Y007709D01*
X034613Y007634D01*
X034585Y007560D01*
X034554Y007488D01*
X034519Y007417D01*
X034481Y007348D01*
X034439Y007282D01*
X034394Y007217D01*
X034346Y007155D01*
X034294Y007095D01*
X034240Y007038D01*
X034183Y006984D01*
X034123Y006932D01*
X034061Y006884D01*
X033996Y006839D01*
X033929Y006798D01*
X033860Y006760D01*
X033789Y006725D01*
X033717Y006694D01*
X033643Y006666D01*
X033568Y006643D01*
X033492Y006623D01*
X033414Y006607D01*
X033336Y006595D01*
X033258Y006587D01*
X033179Y006583D01*
X033101Y006583D01*
X033022Y006587D01*
X032944Y006595D01*
X032866Y006607D01*
X032788Y006623D01*
X032712Y006643D01*
X032637Y006666D01*
X032563Y006694D01*
X032491Y006725D01*
X032420Y006760D01*
X032351Y006798D01*
X032284Y006839D01*
X032219Y006884D01*
X032157Y006932D01*
X032097Y006984D01*
X032040Y007038D01*
X031986Y007095D01*
X031934Y007155D01*
X031886Y007217D01*
X031841Y007282D01*
X031799Y007348D01*
X031761Y007417D01*
X031726Y007488D01*
X031695Y007560D01*
X031667Y007634D01*
X031644Y007709D01*
X031624Y007786D01*
X028870Y009200D02*
X028870Y009507D01*
X028870Y009353D02*
X028410Y009353D01*
X028563Y009200D01*
X031526Y010806D02*
X031526Y011121D01*
X031526Y010806D02*
X032431Y009901D01*
X034754Y009901D01*
X034754Y011121D01*
X034656Y011869D02*
X034636Y011946D01*
X034613Y012021D01*
X034585Y012095D01*
X034554Y012167D01*
X034519Y012238D01*
X034481Y012307D01*
X034439Y012373D01*
X034394Y012438D01*
X034346Y012500D01*
X034294Y012560D01*
X034240Y012617D01*
X034183Y012671D01*
X034123Y012723D01*
X034061Y012771D01*
X033996Y012816D01*
X033929Y012857D01*
X033860Y012895D01*
X033789Y012930D01*
X033717Y012961D01*
X033643Y012989D01*
X033568Y013012D01*
X033492Y013032D01*
X033414Y013048D01*
X033336Y013060D01*
X033258Y013068D01*
X033179Y013072D01*
X033101Y013072D01*
X033022Y013068D01*
X032944Y013060D01*
X032866Y013048D01*
X032788Y013032D01*
X032712Y013012D01*
X032637Y012989D01*
X032563Y012961D01*
X032491Y012930D01*
X032420Y012895D01*
X032351Y012857D01*
X032284Y012816D01*
X032219Y012771D01*
X032157Y012723D01*
X032097Y012671D01*
X032040Y012617D01*
X031986Y012560D01*
X031934Y012500D01*
X031886Y012438D01*
X031841Y012373D01*
X031799Y012307D01*
X031761Y012238D01*
X031726Y012167D01*
X031695Y012095D01*
X031667Y012021D01*
X031644Y011946D01*
X031624Y011869D01*
X031526Y011909D02*
X031526Y012224D01*
X032431Y013129D01*
X034754Y013129D01*
X034754Y011909D01*
X034656Y011161D02*
X034636Y011084D01*
X034613Y011009D01*
X034585Y010935D01*
X034554Y010863D01*
X034519Y010792D01*
X034481Y010723D01*
X034439Y010657D01*
X034394Y010592D01*
X034346Y010530D01*
X034294Y010470D01*
X034240Y010413D01*
X034183Y010359D01*
X034123Y010307D01*
X034061Y010259D01*
X033996Y010214D01*
X033929Y010173D01*
X033860Y010135D01*
X033789Y010100D01*
X033717Y010069D01*
X033643Y010041D01*
X033568Y010018D01*
X033492Y009998D01*
X033414Y009982D01*
X033336Y009970D01*
X033258Y009962D01*
X033179Y009958D01*
X033101Y009958D01*
X033022Y009962D01*
X032944Y009970D01*
X032866Y009982D01*
X032788Y009998D01*
X032712Y010018D01*
X032637Y010041D01*
X032563Y010069D01*
X032491Y010100D01*
X032420Y010135D01*
X032351Y010173D01*
X032284Y010214D01*
X032219Y010259D01*
X032157Y010307D01*
X032097Y010359D01*
X032040Y010413D01*
X031986Y010470D01*
X031934Y010530D01*
X031886Y010592D01*
X031841Y010657D01*
X031799Y010723D01*
X031761Y010792D01*
X031726Y010863D01*
X031695Y010935D01*
X031667Y011009D01*
X031644Y011084D01*
X031624Y011161D01*
X036412Y011087D02*
X036489Y011010D01*
X036642Y011010D01*
X036719Y011087D01*
X036873Y010933D02*
X037180Y010933D01*
X037333Y011087D02*
X037410Y011010D01*
X037563Y011010D01*
X037640Y011087D01*
X037793Y011010D02*
X038100Y011010D01*
X038254Y011087D02*
X038254Y011394D01*
X038331Y011470D01*
X038484Y011470D01*
X038561Y011394D01*
X038561Y011087D01*
X038484Y011010D01*
X038331Y011010D01*
X038254Y011087D01*
X038714Y011087D02*
X038791Y011010D01*
X038944Y011010D01*
X039021Y011087D01*
X039175Y011163D02*
X039482Y011470D01*
X039175Y011470D02*
X039175Y011010D01*
X039251Y011240D02*
X039482Y011010D01*
X039021Y011394D02*
X038944Y011470D01*
X038791Y011470D01*
X038714Y011394D01*
X038714Y011087D01*
X037793Y011010D02*
X037793Y011470D01*
X037640Y011394D02*
X037563Y011470D01*
X037410Y011470D01*
X037333Y011394D01*
X037333Y011087D01*
X036719Y011394D02*
X036642Y011470D01*
X036489Y011470D01*
X036412Y011394D01*
X036412Y011087D01*
X038885Y013185D02*
X038885Y013645D01*
X039115Y013645D01*
X039192Y013569D01*
X039192Y013415D01*
X039115Y013338D01*
X038885Y013338D01*
X039038Y013338D02*
X039192Y013185D01*
X039345Y013262D02*
X039422Y013185D01*
X039576Y013185D01*
X039652Y013262D01*
X039652Y013338D01*
X039576Y013415D01*
X039422Y013415D01*
X039345Y013492D01*
X039345Y013569D01*
X039422Y013645D01*
X039576Y013645D01*
X039652Y013569D01*
X039806Y013645D02*
X039959Y013645D01*
X039883Y013645D02*
X039883Y013185D01*
X039959Y013185D02*
X039806Y013185D01*
X040113Y013185D02*
X040113Y013645D01*
X040266Y013492D01*
X040420Y013645D01*
X040420Y013185D01*
X040573Y013108D02*
X040880Y013108D01*
X041033Y013185D02*
X041033Y013645D01*
X041264Y013645D01*
X041340Y013569D01*
X041340Y013415D01*
X041264Y013338D01*
X041033Y013338D01*
X041187Y013338D02*
X041340Y013185D01*
X041494Y013262D02*
X041571Y013185D01*
X041724Y013185D01*
X041801Y013262D01*
X041801Y013338D01*
X041724Y013415D01*
X041571Y013415D01*
X041494Y013492D01*
X041494Y013569D01*
X041571Y013645D01*
X041724Y013645D01*
X041801Y013569D01*
X041954Y013645D02*
X042261Y013645D01*
X042108Y013645D02*
X042108Y013185D01*
X042261Y014185D02*
X042031Y014415D01*
X041954Y014338D02*
X042261Y014645D01*
X041954Y014645D02*
X041954Y014185D01*
X041801Y014185D02*
X041494Y014185D01*
X041494Y014645D01*
X041340Y014569D02*
X041264Y014645D01*
X041110Y014645D01*
X041033Y014569D01*
X041033Y014262D01*
X041110Y014185D01*
X041264Y014185D01*
X041340Y014262D01*
X040880Y014108D02*
X040573Y014108D01*
X040420Y014185D02*
X040420Y014645D01*
X040266Y014492D01*
X040113Y014645D01*
X040113Y014185D01*
X039959Y014185D02*
X039806Y014185D01*
X039883Y014185D02*
X039883Y014645D01*
X039959Y014645D02*
X039806Y014645D01*
X039652Y014569D02*
X039576Y014645D01*
X039422Y014645D01*
X039345Y014569D01*
X039345Y014492D01*
X039422Y014415D01*
X039576Y014415D01*
X039652Y014338D01*
X039652Y014262D01*
X039576Y014185D01*
X039422Y014185D01*
X039345Y014262D01*
X039192Y014185D02*
X039038Y014338D01*
X039115Y014338D02*
X038885Y014338D01*
X038885Y014185D02*
X038885Y014645D01*
X039115Y014645D01*
X039192Y014569D01*
X039192Y014415D01*
X039115Y014338D01*
X039192Y015185D02*
X039038Y015338D01*
X039115Y015338D02*
X038885Y015338D01*
X038885Y015185D02*
X038885Y015645D01*
X039115Y015645D01*
X039192Y015569D01*
X039192Y015415D01*
X039115Y015338D01*
X039345Y015262D02*
X039422Y015185D01*
X039576Y015185D01*
X039652Y015262D01*
X039652Y015338D01*
X039576Y015415D01*
X039422Y015415D01*
X039345Y015492D01*
X039345Y015569D01*
X039422Y015645D01*
X039576Y015645D01*
X039652Y015569D01*
X039806Y015645D02*
X039959Y015645D01*
X039883Y015645D02*
X039883Y015185D01*
X039959Y015185D02*
X039806Y015185D01*
X040113Y015185D02*
X040113Y015645D01*
X040266Y015492D01*
X040420Y015645D01*
X040420Y015185D01*
X040573Y015108D02*
X040880Y015108D01*
X041033Y015185D02*
X041264Y015185D01*
X041340Y015262D01*
X041340Y015569D01*
X041264Y015645D01*
X041033Y015645D01*
X041033Y015185D01*
X041494Y015185D02*
X041494Y015492D01*
X041647Y015645D01*
X041801Y015492D01*
X041801Y015185D01*
X041801Y015415D02*
X041494Y015415D01*
X041954Y015645D02*
X042261Y015645D01*
X042108Y015645D02*
X042108Y015185D01*
X042415Y015185D02*
X042415Y015492D01*
X042568Y015645D01*
X042722Y015492D01*
X042722Y015185D01*
X042722Y015415D02*
X042415Y015415D01*
X049862Y011019D02*
X049862Y010712D01*
X049939Y010635D01*
X050092Y010635D01*
X050169Y010712D01*
X050323Y010558D02*
X050630Y010558D01*
X050783Y010788D02*
X050936Y010635D01*
X051090Y010788D01*
X051090Y011095D01*
X051243Y011095D02*
X051243Y010635D01*
X051550Y010635D01*
X051704Y010635D02*
X052011Y011095D01*
X052164Y011095D02*
X052471Y011095D01*
X052318Y011095D02*
X052318Y010635D01*
X052011Y010635D02*
X051704Y011095D01*
X051550Y011095D02*
X051243Y011095D01*
X051243Y010865D02*
X051397Y010865D01*
X050783Y010788D02*
X050783Y011095D01*
X050169Y011019D02*
X050092Y011095D01*
X049939Y011095D01*
X049862Y011019D01*
X049939Y009720D02*
X049862Y009644D01*
X049939Y009720D02*
X050092Y009720D01*
X050169Y009644D01*
X050169Y009567D01*
X049862Y009260D01*
X050169Y009260D01*
X050323Y009183D02*
X050630Y009183D01*
X050936Y009260D02*
X050936Y009720D01*
X050783Y009720D02*
X051090Y009720D01*
X051243Y009567D02*
X051397Y009720D01*
X051550Y009567D01*
X051550Y009260D01*
X051597Y009171D02*
X051814Y009388D01*
X051922Y009496D02*
X052248Y009171D01*
X052465Y009388D01*
X052573Y009496D02*
X052248Y009822D01*
X052410Y009984D01*
X052519Y009984D01*
X052628Y009876D01*
X052628Y009767D01*
X052465Y009605D01*
X052471Y009720D02*
X052164Y009720D01*
X052139Y009713D02*
X051922Y009496D01*
X052085Y009333D02*
X052193Y009442D01*
X052318Y009260D02*
X052318Y009720D01*
X052573Y009713D02*
X052790Y009713D01*
X052778Y009720D02*
X052778Y009260D01*
X052625Y009260D02*
X052932Y009260D01*
X052625Y009567D02*
X052778Y009720D01*
X052899Y009822D02*
X052573Y010147D01*
X052736Y010310D01*
X052845Y010310D01*
X052953Y010202D01*
X052953Y010093D01*
X052790Y009930D01*
X052899Y010039D02*
X053116Y010039D01*
X053224Y010147D02*
X053333Y010256D01*
X053279Y010202D02*
X052953Y010527D01*
X052899Y010473D02*
X053007Y010581D01*
X052932Y010712D02*
X052855Y010635D01*
X052701Y010635D01*
X052625Y010712D01*
X052778Y010865D02*
X052855Y010865D01*
X052932Y010788D01*
X052932Y010712D01*
X052855Y010865D02*
X052932Y010942D01*
X052932Y011019D01*
X052855Y011095D01*
X052701Y011095D01*
X052625Y011019D01*
X053116Y010690D02*
X053333Y010907D01*
X053441Y011015D02*
X053767Y010690D01*
X053984Y010907D01*
X053713Y010961D02*
X053604Y010853D01*
X053441Y011015D02*
X053658Y011232D01*
X053224Y010798D02*
X053550Y010473D01*
X052011Y009720D02*
X052011Y009260D01*
X051704Y009720D01*
X051704Y009260D01*
X051597Y009171D02*
X051922Y008845D01*
X051759Y009008D02*
X051868Y009116D01*
X051550Y009490D02*
X051243Y009490D01*
X051243Y009567D02*
X051243Y009260D01*
X049709Y009260D02*
X049479Y009490D01*
X049402Y009413D02*
X049709Y009720D01*
X049402Y009720D02*
X049402Y009260D01*
X049248Y009260D02*
X048941Y009260D01*
X048941Y009720D01*
X048788Y009720D02*
X048788Y009337D01*
X048711Y009260D01*
X048558Y009260D01*
X048481Y009337D01*
X048481Y009720D01*
X048328Y009644D02*
X048328Y009567D01*
X048251Y009490D01*
X048021Y009490D01*
X048251Y009490D02*
X048328Y009413D01*
X048328Y009337D01*
X048251Y009260D01*
X048021Y009260D01*
X048021Y009720D01*
X048251Y009720D01*
X048328Y009644D01*
X047407Y009644D02*
X047330Y009720D01*
X047177Y009720D01*
X047100Y009644D01*
X047100Y009337D01*
X047177Y009260D01*
X047330Y009260D01*
X047407Y009337D01*
X047560Y009183D02*
X047867Y009183D01*
X051176Y012586D02*
X051253Y012586D01*
X051330Y012662D01*
X051330Y012816D01*
X051406Y012892D01*
X051483Y012892D01*
X051560Y012816D01*
X051560Y012662D01*
X051483Y012586D01*
X051176Y012586D02*
X051100Y012662D01*
X051100Y012816D01*
X051176Y012892D01*
X051100Y013046D02*
X051100Y013199D01*
X051100Y013123D02*
X051560Y013123D01*
X051560Y013199D02*
X051560Y013046D01*
X051560Y013353D02*
X051100Y013353D01*
X051253Y013506D01*
X051100Y013660D01*
X051560Y013660D01*
X051483Y013813D02*
X051560Y013890D01*
X051560Y014043D01*
X051483Y014120D01*
X051176Y014120D01*
X051100Y014043D01*
X051100Y013890D01*
X051176Y013813D01*
X051253Y013813D01*
X051330Y013890D01*
X051330Y014120D01*
X051483Y014274D02*
X051176Y014274D01*
X051100Y014350D01*
X051100Y014504D01*
X051176Y014581D01*
X051483Y014274D01*
X051560Y014350D01*
X051560Y014504D01*
X051483Y014581D01*
X051176Y014581D01*
X051176Y014734D02*
X051100Y014811D01*
X051100Y014964D01*
X051176Y015041D01*
X051483Y014734D01*
X051560Y014811D01*
X051560Y014964D01*
X051483Y015041D01*
X051176Y015041D01*
X051176Y014734D02*
X051483Y014734D01*
X051945Y016108D02*
X052252Y016108D01*
X052406Y016185D02*
X052713Y016185D01*
X052866Y016185D02*
X053173Y016185D01*
X053327Y016185D02*
X053557Y016185D01*
X053633Y016262D01*
X053633Y016569D01*
X053557Y016645D01*
X053327Y016645D01*
X053327Y016185D01*
X053020Y016415D02*
X052866Y016415D01*
X052866Y016645D02*
X052866Y016185D01*
X052406Y016185D02*
X052406Y016645D01*
X052866Y016645D02*
X053173Y016645D01*
X053787Y016415D02*
X054094Y016415D01*
X054017Y016185D02*
X054017Y016645D01*
X053787Y016415D01*
X051792Y016415D02*
X051715Y016338D01*
X051485Y016338D01*
X051485Y016185D02*
X051485Y016645D01*
X051715Y016645D01*
X051792Y016569D01*
X051792Y016415D01*
X051638Y016338D02*
X051792Y016185D01*
X051706Y016685D02*
X051783Y016762D01*
X051783Y016915D01*
X051706Y016992D01*
X051859Y017145D02*
X051859Y017452D01*
X051706Y017606D02*
X051783Y017683D01*
X051783Y017836D01*
X051706Y017913D01*
X051706Y018066D02*
X051783Y018143D01*
X051783Y018296D01*
X051706Y018373D01*
X051399Y018373D01*
X051322Y018296D01*
X051322Y018143D01*
X051399Y018066D01*
X051706Y018066D01*
X051560Y018091D02*
X051560Y018244D01*
X051483Y018321D01*
X051560Y018474D02*
X051253Y018781D01*
X051176Y018781D01*
X051100Y018704D01*
X051100Y018551D01*
X051176Y018474D01*
X051176Y018321D02*
X051100Y018244D01*
X051100Y018091D01*
X051176Y018014D01*
X051483Y018014D01*
X051560Y018091D01*
X051560Y017860D02*
X051560Y017707D01*
X051560Y017784D02*
X051100Y017784D01*
X051100Y017860D02*
X051100Y017707D01*
X050970Y017683D02*
X050970Y017836D01*
X050893Y017913D01*
X050893Y018066D02*
X050970Y018143D01*
X050970Y018296D01*
X050893Y018373D01*
X050586Y018373D01*
X050510Y018296D01*
X050510Y018143D01*
X050586Y018066D01*
X050893Y018066D01*
X050586Y017913D02*
X050510Y017836D01*
X050510Y017683D01*
X050586Y017606D01*
X050893Y017606D01*
X050970Y017683D01*
X051047Y017452D02*
X051047Y017145D01*
X050893Y016992D02*
X050970Y016915D01*
X050970Y016762D01*
X050893Y016685D01*
X050586Y016685D01*
X050510Y016762D01*
X050510Y016915D01*
X050586Y016992D01*
X051322Y016915D02*
X051322Y016762D01*
X051399Y016685D01*
X051706Y016685D01*
X051399Y016992D02*
X051322Y016915D01*
X051399Y017606D02*
X051322Y017683D01*
X051322Y017836D01*
X051399Y017913D01*
X051399Y017606D02*
X051706Y017606D01*
X051560Y018474D02*
X051560Y018781D01*
X051783Y018833D02*
X051322Y018833D01*
X051399Y018987D02*
X051322Y019064D01*
X051322Y019217D01*
X051399Y019294D01*
X051476Y019294D01*
X051783Y018987D01*
X051783Y019294D01*
X051783Y018833D02*
X051322Y018527D01*
X051783Y018527D01*
X050970Y018527D02*
X050510Y018527D01*
X050970Y018833D01*
X050510Y018833D01*
X050586Y018987D02*
X050510Y019064D01*
X050510Y019217D01*
X050586Y019294D01*
X050663Y019294D01*
X050740Y019217D01*
X050817Y019294D01*
X050893Y019294D01*
X050970Y019217D01*
X050970Y019064D01*
X050893Y018987D01*
X050740Y019140D02*
X050740Y019217D01*
X047870Y021364D02*
X047410Y021364D01*
X047410Y021594D01*
X047486Y021671D01*
X047640Y021671D01*
X047717Y021594D01*
X047717Y021364D01*
X047717Y021518D02*
X047870Y021671D01*
X047640Y021825D02*
X047640Y022132D01*
X047870Y022055D02*
X047410Y022055D01*
X047640Y021825D01*
X045595Y021942D02*
X045442Y021788D01*
X045442Y021865D02*
X045442Y021635D01*
X045595Y021635D02*
X045135Y021635D01*
X045135Y021865D01*
X045211Y021942D01*
X045365Y021942D01*
X045442Y021865D01*
X045245Y021825D02*
X045168Y021825D01*
X044861Y022132D01*
X044785Y022132D01*
X044785Y021825D01*
X044720Y021942D02*
X044567Y021788D01*
X044567Y021865D02*
X044567Y021635D01*
X044720Y021635D02*
X044260Y021635D01*
X044260Y021865D01*
X044336Y021942D01*
X044490Y021942D01*
X044567Y021865D01*
X044567Y022095D02*
X044567Y022326D01*
X044490Y022402D01*
X044336Y022402D01*
X044260Y022326D01*
X044260Y022095D01*
X044720Y022095D01*
X044567Y022249D02*
X044720Y022402D01*
X044720Y022556D02*
X044260Y022863D01*
X044260Y022556D02*
X044720Y022863D01*
X045135Y022863D02*
X045595Y022556D01*
X045595Y022863D02*
X045135Y022556D01*
X045135Y022402D02*
X045135Y022095D01*
X045135Y022249D02*
X045595Y022249D01*
X045245Y021671D02*
X045092Y021518D01*
X045092Y021594D02*
X045092Y021364D01*
X045245Y021364D02*
X044785Y021364D01*
X044785Y021594D01*
X044861Y021671D01*
X045015Y021671D01*
X045092Y021594D01*
X044995Y024785D02*
X044535Y024785D01*
X044535Y025015D01*
X044611Y025092D01*
X044765Y025092D01*
X044842Y025015D01*
X044842Y024785D01*
X044842Y024938D02*
X044995Y025092D01*
X044918Y025245D02*
X044995Y025322D01*
X044995Y025476D01*
X044918Y025552D01*
X044842Y025552D01*
X044765Y025476D01*
X044765Y025245D01*
X044918Y025245D01*
X044765Y025245D02*
X044611Y025399D01*
X044535Y025552D01*
X046535Y025552D02*
X046535Y025245D01*
X046765Y025245D01*
X046688Y025399D01*
X046688Y025476D01*
X046765Y025552D01*
X046918Y025552D01*
X046995Y025476D01*
X046995Y025322D01*
X046918Y025245D01*
X046995Y025092D02*
X046842Y024938D01*
X046842Y025015D02*
X046842Y024785D01*
X046995Y024785D02*
X046535Y024785D01*
X046535Y025015D01*
X046611Y025092D01*
X046765Y025092D01*
X046842Y025015D01*
X039470Y023555D02*
X039010Y023555D01*
X039163Y023402D01*
X039010Y023248D01*
X039470Y023248D01*
X039470Y023095D02*
X039470Y022941D01*
X039470Y023018D02*
X039010Y023018D01*
X039010Y022941D02*
X039010Y023095D01*
X039086Y022788D02*
X039010Y022711D01*
X039010Y022558D01*
X039086Y022481D01*
X039163Y022481D01*
X039240Y022558D01*
X039240Y022711D01*
X039317Y022788D01*
X039393Y022788D01*
X039470Y022711D01*
X039470Y022558D01*
X039393Y022481D01*
X039547Y022327D02*
X039547Y022020D01*
X039393Y021867D02*
X039470Y021790D01*
X039470Y021637D01*
X039393Y021560D01*
X039086Y021560D01*
X039010Y021637D01*
X039010Y021790D01*
X039086Y021867D01*
X034754Y021754D02*
X034754Y020534D01*
X034656Y020494D02*
X034636Y020571D01*
X034613Y020646D01*
X034585Y020720D01*
X034554Y020792D01*
X034519Y020863D01*
X034481Y020932D01*
X034439Y020998D01*
X034394Y021063D01*
X034346Y021125D01*
X034294Y021185D01*
X034240Y021242D01*
X034183Y021296D01*
X034123Y021348D01*
X034061Y021396D01*
X033996Y021441D01*
X033929Y021482D01*
X033860Y021520D01*
X033789Y021555D01*
X033717Y021586D01*
X033643Y021614D01*
X033568Y021637D01*
X033492Y021657D01*
X033414Y021673D01*
X033336Y021685D01*
X033258Y021693D01*
X033179Y021697D01*
X033101Y021697D01*
X033022Y021693D01*
X032944Y021685D01*
X032866Y021673D01*
X032788Y021657D01*
X032712Y021637D01*
X032637Y021614D01*
X032563Y021586D01*
X032491Y021555D01*
X032420Y021520D01*
X032351Y021482D01*
X032284Y021441D01*
X032219Y021396D01*
X032157Y021348D01*
X032097Y021296D01*
X032040Y021242D01*
X031986Y021185D01*
X031934Y021125D01*
X031886Y021063D01*
X031841Y020998D01*
X031799Y020932D01*
X031761Y020863D01*
X031726Y020792D01*
X031695Y020720D01*
X031667Y020646D01*
X031644Y020571D01*
X031624Y020494D01*
X031526Y020534D02*
X031526Y020849D01*
X032431Y021754D01*
X034754Y021754D01*
X034754Y022151D02*
X032431Y022151D01*
X031526Y023056D01*
X031526Y023371D01*
X031526Y024159D02*
X031526Y024474D01*
X032431Y025379D01*
X034754Y025379D01*
X034754Y024159D01*
X034656Y024119D02*
X034636Y024196D01*
X034613Y024271D01*
X034585Y024345D01*
X034554Y024417D01*
X034519Y024488D01*
X034481Y024557D01*
X034439Y024623D01*
X034394Y024688D01*
X034346Y024750D01*
X034294Y024810D01*
X034240Y024867D01*
X034183Y024921D01*
X034123Y024973D01*
X034061Y025021D01*
X033996Y025066D01*
X033929Y025107D01*
X033860Y025145D01*
X033789Y025180D01*
X033717Y025211D01*
X033643Y025239D01*
X033568Y025262D01*
X033492Y025282D01*
X033414Y025298D01*
X033336Y025310D01*
X033258Y025318D01*
X033179Y025322D01*
X033101Y025322D01*
X033022Y025318D01*
X032944Y025310D01*
X032866Y025298D01*
X032788Y025282D01*
X032712Y025262D01*
X032637Y025239D01*
X032563Y025211D01*
X032491Y025180D01*
X032420Y025145D01*
X032351Y025107D01*
X032284Y025066D01*
X032219Y025021D01*
X032157Y024973D01*
X032097Y024921D01*
X032040Y024867D01*
X031986Y024810D01*
X031934Y024750D01*
X031886Y024688D01*
X031841Y024623D01*
X031799Y024557D01*
X031761Y024488D01*
X031726Y024417D01*
X031695Y024345D01*
X031667Y024271D01*
X031644Y024196D01*
X031624Y024119D01*
X031624Y023411D02*
X031644Y023334D01*
X031667Y023259D01*
X031695Y023185D01*
X031726Y023113D01*
X031761Y023042D01*
X031799Y022973D01*
X031841Y022907D01*
X031886Y022842D01*
X031934Y022780D01*
X031986Y022720D01*
X032040Y022663D01*
X032097Y022609D01*
X032157Y022557D01*
X032219Y022509D01*
X032284Y022464D01*
X032351Y022423D01*
X032420Y022385D01*
X032491Y022350D01*
X032563Y022319D01*
X032637Y022291D01*
X032712Y022268D01*
X032788Y022248D01*
X032866Y022232D01*
X032944Y022220D01*
X033022Y022212D01*
X033101Y022208D01*
X033179Y022208D01*
X033258Y022212D01*
X033336Y022220D01*
X033414Y022232D01*
X033492Y022248D01*
X033568Y022268D01*
X033643Y022291D01*
X033717Y022319D01*
X033789Y022350D01*
X033860Y022385D01*
X033929Y022423D01*
X033996Y022464D01*
X034061Y022509D01*
X034123Y022557D01*
X034183Y022609D01*
X034240Y022663D01*
X034294Y022720D01*
X034346Y022780D01*
X034394Y022842D01*
X034439Y022907D01*
X034481Y022973D01*
X034519Y023042D01*
X034554Y023113D01*
X034585Y023185D01*
X034613Y023259D01*
X034636Y023334D01*
X034656Y023411D01*
X034754Y023371D02*
X034754Y022151D01*
X034656Y019786D02*
X034636Y019709D01*
X034613Y019634D01*
X034585Y019560D01*
X034554Y019488D01*
X034519Y019417D01*
X034481Y019348D01*
X034439Y019282D01*
X034394Y019217D01*
X034346Y019155D01*
X034294Y019095D01*
X034240Y019038D01*
X034183Y018984D01*
X034123Y018932D01*
X034061Y018884D01*
X033996Y018839D01*
X033929Y018798D01*
X033860Y018760D01*
X033789Y018725D01*
X033717Y018694D01*
X033643Y018666D01*
X033568Y018643D01*
X033492Y018623D01*
X033414Y018607D01*
X033336Y018595D01*
X033258Y018587D01*
X033179Y018583D01*
X033101Y018583D01*
X033022Y018587D01*
X032944Y018595D01*
X032866Y018607D01*
X032788Y018623D01*
X032712Y018643D01*
X032637Y018666D01*
X032563Y018694D01*
X032491Y018725D01*
X032420Y018760D01*
X032351Y018798D01*
X032284Y018839D01*
X032219Y018884D01*
X032157Y018932D01*
X032097Y018984D01*
X032040Y019038D01*
X031986Y019095D01*
X031934Y019155D01*
X031886Y019217D01*
X031841Y019282D01*
X031799Y019348D01*
X031761Y019417D01*
X031726Y019488D01*
X031695Y019560D01*
X031667Y019634D01*
X031644Y019709D01*
X031624Y019786D01*
X031526Y019746D02*
X031526Y019431D01*
X032431Y018526D01*
X034754Y018526D01*
X034754Y019746D01*
X032034Y018545D02*
X031727Y018545D01*
X031727Y018315D01*
X031881Y018392D01*
X031958Y018392D01*
X032034Y018315D01*
X032034Y018162D01*
X031958Y018085D01*
X031804Y018085D01*
X031727Y018162D01*
X031574Y018162D02*
X031497Y018085D01*
X031344Y018085D01*
X031267Y018162D01*
X031267Y018469D01*
X031344Y018545D01*
X031497Y018545D01*
X031574Y018469D01*
X031113Y018545D02*
X030960Y018545D01*
X031037Y018545D02*
X031037Y018085D01*
X031113Y018085D02*
X030960Y018085D01*
X030232Y018087D02*
X030155Y018010D01*
X030001Y018010D01*
X029925Y018087D01*
X029771Y018010D02*
X029771Y018470D01*
X029925Y018394D02*
X030001Y018470D01*
X030155Y018470D01*
X030232Y018394D01*
X030232Y018317D01*
X030155Y018240D01*
X030232Y018163D01*
X030232Y018087D01*
X030155Y018240D02*
X030078Y018240D01*
X029771Y018010D02*
X029464Y018470D01*
X029464Y018010D01*
X029311Y018010D02*
X029157Y018010D01*
X029234Y018010D02*
X029234Y018470D01*
X029157Y018470D02*
X029311Y018470D01*
X029004Y018470D02*
X029004Y018010D01*
X028697Y018010D02*
X028697Y018470D01*
X028850Y018317D01*
X029004Y018470D01*
X028543Y018010D02*
X028236Y018010D01*
X028236Y018470D01*
X028083Y018808D02*
X027776Y018808D01*
X027623Y018962D02*
X027546Y018885D01*
X027392Y018885D01*
X027316Y018962D01*
X027316Y019269D01*
X027392Y019345D01*
X027546Y019345D01*
X027623Y019269D01*
X028236Y019345D02*
X028236Y018885D01*
X028543Y018885D01*
X028697Y018885D02*
X028697Y019345D01*
X028850Y019192D01*
X029004Y019345D01*
X029004Y018885D01*
X029157Y018885D02*
X029311Y018885D01*
X029234Y018885D02*
X029234Y019345D01*
X029157Y019345D02*
X029311Y019345D01*
X029464Y019345D02*
X029771Y018885D01*
X029771Y019345D01*
X029925Y019269D02*
X030001Y019345D01*
X030155Y019345D01*
X030232Y019269D01*
X030232Y019192D01*
X029925Y018885D01*
X030232Y018885D01*
X029464Y018885D02*
X029464Y019345D01*
X028390Y019250D02*
X028390Y021030D01*
X026890Y021030D02*
X026890Y019250D01*
X026770Y019310D02*
X026770Y019540D01*
X026693Y019617D01*
X026386Y019617D01*
X026310Y019540D01*
X026310Y019310D01*
X026770Y019310D01*
X026770Y019770D02*
X026770Y020077D01*
X026770Y019924D02*
X026310Y019924D01*
X026463Y019770D01*
X027392Y018470D02*
X027316Y018394D01*
X027316Y018087D01*
X027392Y018010D01*
X027546Y018010D01*
X027623Y018087D01*
X027776Y017933D02*
X028083Y017933D01*
X027623Y018394D02*
X027546Y018470D01*
X027392Y018470D01*
X021583Y018798D02*
X021222Y019039D01*
X021282Y019167D02*
X021222Y019227D01*
X021222Y019347D01*
X021282Y019407D01*
X021342Y019407D01*
X021402Y019347D01*
X021462Y019407D01*
X021522Y019407D01*
X021583Y019347D01*
X021583Y019227D01*
X021522Y019167D01*
X021583Y019039D02*
X021222Y018798D01*
X021402Y019287D02*
X021402Y019347D01*
X019020Y020468D02*
X018560Y020468D01*
X018560Y020699D01*
X018636Y020775D01*
X018790Y020775D01*
X018867Y020699D01*
X018867Y020468D01*
X018867Y020622D02*
X019020Y020775D01*
X019097Y020929D02*
X019097Y021236D01*
X018943Y021389D02*
X019020Y021466D01*
X019020Y021619D01*
X018943Y021696D01*
X018790Y021696D01*
X018790Y021543D01*
X018636Y021696D02*
X018560Y021619D01*
X018560Y021466D01*
X018636Y021389D01*
X018943Y021389D01*
X018790Y021850D02*
X018790Y022157D01*
X019020Y022080D02*
X018560Y022080D01*
X018790Y021850D01*
X018020Y022080D02*
X017560Y022080D01*
X017790Y021850D01*
X017790Y022157D01*
X017790Y021696D02*
X017636Y021696D01*
X017560Y021619D01*
X017560Y021389D01*
X018020Y021389D01*
X017867Y021389D02*
X017867Y021619D01*
X017790Y021696D01*
X018097Y021236D02*
X018097Y020929D01*
X018020Y020775D02*
X017867Y020622D01*
X017867Y020699D02*
X017867Y020468D01*
X018020Y020468D02*
X017560Y020468D01*
X017560Y020699D01*
X017636Y020775D01*
X017790Y020775D01*
X017867Y020699D01*
X017097Y020929D02*
X017097Y021236D01*
X016943Y021389D02*
X017020Y021466D01*
X017020Y021619D01*
X016943Y021696D01*
X016790Y021696D01*
X016790Y021543D01*
X016636Y021696D02*
X016560Y021619D01*
X016560Y021466D01*
X016636Y021389D01*
X016943Y021389D01*
X016097Y021236D02*
X016097Y020929D01*
X016020Y020775D02*
X015867Y020622D01*
X015867Y020699D02*
X015867Y020468D01*
X016020Y020468D02*
X015560Y020468D01*
X015560Y020699D01*
X015636Y020775D01*
X015790Y020775D01*
X015867Y020699D01*
X015097Y020929D02*
X015097Y021236D01*
X014943Y021389D02*
X015020Y021466D01*
X015020Y021619D01*
X014943Y021696D01*
X014790Y021696D01*
X014790Y021543D01*
X014636Y021696D02*
X014560Y021619D01*
X014560Y021466D01*
X014636Y021389D01*
X014943Y021389D01*
X015560Y021389D02*
X015560Y021619D01*
X015636Y021696D01*
X015790Y021696D01*
X015867Y021619D01*
X015867Y021389D01*
X016020Y021389D02*
X015560Y021389D01*
X015636Y021850D02*
X015560Y021926D01*
X015560Y022080D01*
X015636Y022157D01*
X015713Y022157D01*
X015790Y022080D01*
X015867Y022157D01*
X015943Y022157D01*
X016020Y022080D01*
X016020Y021926D01*
X015943Y021850D01*
X015790Y022003D02*
X015790Y022080D01*
X015020Y022157D02*
X015020Y021850D01*
X014713Y022157D01*
X014636Y022157D01*
X014560Y022080D01*
X014560Y021926D01*
X014636Y021850D01*
X014020Y021850D02*
X013713Y022157D01*
X013636Y022157D01*
X013560Y022080D01*
X013560Y021926D01*
X013636Y021850D01*
X013636Y021696D02*
X013790Y021696D01*
X013867Y021619D01*
X013867Y021389D01*
X014020Y021389D02*
X013560Y021389D01*
X013560Y021619D01*
X013636Y021696D01*
X014020Y021850D02*
X014020Y022157D01*
X013020Y022157D02*
X013020Y021850D01*
X013020Y022003D02*
X012560Y022003D01*
X012713Y021850D01*
X012636Y021696D02*
X012560Y021619D01*
X012560Y021466D01*
X012636Y021389D01*
X012943Y021389D01*
X013020Y021466D01*
X013020Y021619D01*
X012943Y021696D01*
X012790Y021696D01*
X012790Y021543D01*
X013097Y021236D02*
X013097Y020929D01*
X013020Y020775D02*
X012867Y020622D01*
X012867Y020699D02*
X012867Y020468D01*
X013020Y020468D02*
X012560Y020468D01*
X012560Y020699D01*
X012636Y020775D01*
X012790Y020775D01*
X012867Y020699D01*
X013560Y020699D02*
X013560Y020468D01*
X014020Y020468D01*
X013867Y020468D02*
X013867Y020699D01*
X013790Y020775D01*
X013636Y020775D01*
X013560Y020699D01*
X013867Y020622D02*
X014020Y020775D01*
X014097Y020929D02*
X014097Y021236D01*
X014560Y020699D02*
X014636Y020775D01*
X014790Y020775D01*
X014867Y020699D01*
X014867Y020468D01*
X015020Y020468D02*
X014560Y020468D01*
X014560Y020699D01*
X014867Y020622D02*
X015020Y020775D01*
X016560Y020699D02*
X016560Y020468D01*
X017020Y020468D01*
X016867Y020468D02*
X016867Y020699D01*
X016790Y020775D01*
X016636Y020775D01*
X016560Y020699D01*
X016867Y020622D02*
X017020Y020775D01*
X016943Y021850D02*
X017020Y021926D01*
X017020Y022080D01*
X016943Y022157D01*
X016867Y022157D01*
X016790Y022080D01*
X016790Y022003D01*
X016790Y022080D02*
X016713Y022157D01*
X016636Y022157D01*
X016560Y022080D01*
X016560Y021926D01*
X016636Y021850D01*
X015914Y023328D02*
X015914Y023446D01*
X015914Y023619D01*
X018866Y023619D01*
X018866Y023446D01*
X015914Y023446D01*
X015866Y023446D02*
X015866Y023619D01*
X012914Y023619D01*
X012914Y023446D01*
X012914Y023328D01*
X015866Y023328D01*
X015866Y023446D01*
X012914Y023446D01*
X012866Y023446D02*
X012866Y023619D01*
X009914Y023619D01*
X009914Y023446D01*
X009914Y023328D01*
X012866Y023328D01*
X012866Y023446D01*
X009914Y023446D01*
X009914Y023619D02*
X009914Y023939D01*
X009914Y024129D01*
X012866Y024129D01*
X012866Y023939D01*
X012866Y023619D01*
X012914Y023619D02*
X012914Y023939D01*
X012914Y024129D01*
X015866Y024129D01*
X015866Y023939D01*
X015866Y023619D01*
X015914Y023619D02*
X015914Y023939D01*
X015914Y024129D01*
X018866Y024129D01*
X018866Y023939D01*
X018866Y023619D01*
X018914Y023619D02*
X018914Y023446D01*
X018914Y023328D01*
X021866Y023328D01*
X021866Y023446D01*
X021866Y023619D01*
X018914Y023619D01*
X018914Y023939D01*
X018914Y024129D01*
X021866Y024129D01*
X021866Y023939D01*
X021866Y023619D01*
X021866Y023446D02*
X018914Y023446D01*
X018866Y023446D02*
X018866Y023328D01*
X015914Y023328D01*
X015754Y023660D02*
X015293Y023967D01*
X015524Y024120D02*
X015370Y024274D01*
X015293Y024427D01*
X015524Y024351D02*
X015524Y024120D01*
X015677Y024120D01*
X015754Y024197D01*
X015754Y024351D01*
X015677Y024427D01*
X015600Y024427D01*
X015524Y024351D01*
X015866Y024129D02*
X015866Y025331D01*
X012914Y025331D01*
X012914Y024129D01*
X012866Y024129D02*
X012866Y025331D01*
X009914Y025331D01*
X009914Y024129D01*
X009754Y024120D02*
X009754Y024427D01*
X009754Y024274D02*
X009293Y024274D01*
X009447Y024120D01*
X009293Y023967D02*
X009754Y023660D01*
X009754Y023967D02*
X009293Y023660D01*
X009914Y023939D02*
X012866Y023939D01*
X012914Y023939D02*
X015866Y023939D01*
X015914Y023939D02*
X018866Y023939D01*
X018914Y023939D02*
X021866Y023939D01*
X021866Y024129D02*
X021866Y025331D01*
X018914Y025331D01*
X018914Y024129D01*
X018866Y024129D02*
X018866Y025331D01*
X015914Y025331D01*
X015914Y024129D01*
X015754Y023967D02*
X015293Y023660D01*
X016024Y023890D02*
X016149Y023640D01*
X016274Y023890D01*
X016024Y023890D01*
X016034Y023871D02*
X016264Y023871D01*
X016245Y023832D02*
X016053Y023832D01*
X016072Y023794D02*
X016226Y023794D01*
X016206Y023755D02*
X016091Y023755D01*
X016111Y023717D02*
X016187Y023717D01*
X016168Y023678D02*
X016130Y023678D01*
X016130Y024726D02*
X016132Y024773D01*
X016138Y024820D01*
X016147Y024866D01*
X016161Y024911D01*
X016178Y024955D01*
X016199Y024998D01*
X016223Y025038D01*
X016250Y025077D01*
X016281Y025113D01*
X016314Y025146D01*
X016350Y025177D01*
X016389Y025204D01*
X016429Y025228D01*
X016472Y025249D01*
X016516Y025266D01*
X016561Y025280D01*
X016607Y025289D01*
X016654Y025295D01*
X016701Y025297D01*
X016748Y025295D01*
X016795Y025289D01*
X016841Y025280D01*
X016886Y025266D01*
X016930Y025249D01*
X016973Y025228D01*
X017013Y025204D01*
X017052Y025177D01*
X017088Y025146D01*
X017121Y025113D01*
X017152Y025077D01*
X017179Y025038D01*
X017203Y024998D01*
X017224Y024955D01*
X017241Y024911D01*
X017255Y024866D01*
X017264Y024820D01*
X017270Y024773D01*
X017272Y024726D01*
X017270Y024679D01*
X017264Y024632D01*
X017255Y024586D01*
X017241Y024541D01*
X017224Y024497D01*
X017203Y024454D01*
X017179Y024414D01*
X017152Y024375D01*
X017121Y024339D01*
X017088Y024306D01*
X017052Y024275D01*
X017013Y024248D01*
X016973Y024224D01*
X016930Y024203D01*
X016886Y024186D01*
X016841Y024172D01*
X016795Y024163D01*
X016748Y024157D01*
X016701Y024155D01*
X016654Y024157D01*
X016607Y024163D01*
X016561Y024172D01*
X016516Y024186D01*
X016472Y024203D01*
X016429Y024224D01*
X016389Y024248D01*
X016350Y024275D01*
X016314Y024306D01*
X016281Y024339D01*
X016250Y024375D01*
X016223Y024414D01*
X016199Y024454D01*
X016178Y024497D01*
X016161Y024541D01*
X016147Y024586D01*
X016138Y024632D01*
X016132Y024679D01*
X016130Y024726D01*
X015554Y025006D02*
X015551Y025003D01*
X015866Y025331D02*
X015866Y025518D01*
X015866Y026202D01*
X012914Y026202D01*
X012914Y025518D01*
X015866Y025518D01*
X015914Y025518D02*
X018866Y025518D01*
X018866Y026202D01*
X015914Y026202D01*
X015914Y025518D01*
X015914Y025331D01*
X015226Y025660D02*
X014919Y025660D01*
X015226Y025967D01*
X015226Y026044D01*
X015149Y026120D01*
X014996Y026120D01*
X014919Y026044D01*
X013851Y025660D02*
X013544Y025660D01*
X013697Y025660D02*
X013697Y026120D01*
X013544Y025967D01*
X012866Y026202D02*
X012866Y025518D01*
X012866Y025331D01*
X012914Y025331D02*
X012914Y025518D01*
X012866Y025518D02*
X009914Y025518D01*
X009914Y025331D01*
X009811Y025245D02*
X009581Y025245D01*
X009581Y024785D01*
X009811Y024785D01*
X009888Y024862D01*
X009888Y025169D01*
X009811Y025245D01*
X010041Y025169D02*
X010118Y025245D01*
X010271Y025245D01*
X010348Y025169D01*
X010348Y025092D01*
X010041Y024785D01*
X010348Y024785D01*
X010130Y024726D02*
X010132Y024773D01*
X010138Y024820D01*
X010147Y024866D01*
X010161Y024911D01*
X010178Y024955D01*
X010199Y024998D01*
X010223Y025038D01*
X010250Y025077D01*
X010281Y025113D01*
X010314Y025146D01*
X010350Y025177D01*
X010389Y025204D01*
X010429Y025228D01*
X010472Y025249D01*
X010516Y025266D01*
X010561Y025280D01*
X010607Y025289D01*
X010654Y025295D01*
X010701Y025297D01*
X010748Y025295D01*
X010795Y025289D01*
X010841Y025280D01*
X010886Y025266D01*
X010930Y025249D01*
X010973Y025228D01*
X011013Y025204D01*
X011052Y025177D01*
X011088Y025146D01*
X011121Y025113D01*
X011152Y025077D01*
X011179Y025038D01*
X011203Y024998D01*
X011224Y024955D01*
X011241Y024911D01*
X011255Y024866D01*
X011264Y024820D01*
X011270Y024773D01*
X011272Y024726D01*
X011270Y024679D01*
X011264Y024632D01*
X011255Y024586D01*
X011241Y024541D01*
X011224Y024497D01*
X011203Y024454D01*
X011179Y024414D01*
X011152Y024375D01*
X011121Y024339D01*
X011088Y024306D01*
X011052Y024275D01*
X011013Y024248D01*
X010973Y024224D01*
X010930Y024203D01*
X010886Y024186D01*
X010841Y024172D01*
X010795Y024163D01*
X010748Y024157D01*
X010701Y024155D01*
X010654Y024157D01*
X010607Y024163D01*
X010561Y024172D01*
X010516Y024186D01*
X010472Y024203D01*
X010429Y024224D01*
X010389Y024248D01*
X010350Y024275D01*
X010314Y024306D01*
X010281Y024339D01*
X010250Y024375D01*
X010223Y024414D01*
X010199Y024454D01*
X010178Y024497D01*
X010161Y024541D01*
X010147Y024586D01*
X010138Y024632D01*
X010132Y024679D01*
X010130Y024726D01*
X009427Y024785D02*
X009120Y024785D01*
X009120Y025245D01*
X009427Y025245D01*
X009274Y025015D02*
X009120Y025015D01*
X008967Y024785D02*
X008660Y024785D01*
X008660Y025245D01*
X008692Y025288D02*
X008845Y025442D01*
X008922Y025595D02*
X008922Y025902D01*
X008845Y026056D02*
X008845Y026363D01*
X008845Y026516D02*
X008385Y026516D01*
X008385Y026823D01*
X008385Y026977D02*
X008385Y027207D01*
X008461Y027283D01*
X008768Y027283D01*
X008845Y027207D01*
X008845Y026977D01*
X008385Y026977D01*
X008615Y026670D02*
X008615Y026516D01*
X008845Y026516D02*
X008845Y026823D01*
X008845Y027437D02*
X008845Y027744D01*
X008845Y027590D02*
X008385Y027590D01*
X008538Y027437D01*
X009914Y026202D02*
X009914Y025518D01*
X010544Y025660D02*
X010851Y025660D01*
X010697Y025660D02*
X010697Y026120D01*
X010544Y025967D01*
X009914Y026202D02*
X012866Y026202D01*
X012226Y026044D02*
X012149Y026120D01*
X011996Y026120D01*
X011919Y026044D01*
X012226Y026044D02*
X012226Y025967D01*
X011919Y025660D01*
X012226Y025660D01*
X012554Y025006D02*
X012551Y025003D01*
X011508Y024726D02*
X011510Y024773D01*
X011516Y024820D01*
X011525Y024866D01*
X011539Y024911D01*
X011556Y024955D01*
X011577Y024998D01*
X011601Y025038D01*
X011628Y025077D01*
X011659Y025113D01*
X011692Y025146D01*
X011728Y025177D01*
X011767Y025204D01*
X011807Y025228D01*
X011850Y025249D01*
X011894Y025266D01*
X011939Y025280D01*
X011985Y025289D01*
X012032Y025295D01*
X012079Y025297D01*
X012126Y025295D01*
X012173Y025289D01*
X012219Y025280D01*
X012264Y025266D01*
X012308Y025249D01*
X012351Y025228D01*
X012391Y025204D01*
X012430Y025177D01*
X012466Y025146D01*
X012499Y025113D01*
X012530Y025077D01*
X012557Y025038D01*
X012581Y024998D01*
X012602Y024955D01*
X012619Y024911D01*
X012633Y024866D01*
X012642Y024820D01*
X012648Y024773D01*
X012650Y024726D01*
X012648Y024679D01*
X012642Y024632D01*
X012633Y024586D01*
X012619Y024541D01*
X012602Y024497D01*
X012581Y024454D01*
X012557Y024414D01*
X012530Y024375D01*
X012499Y024339D01*
X012466Y024306D01*
X012430Y024275D01*
X012391Y024248D01*
X012351Y024224D01*
X012308Y024203D01*
X012264Y024186D01*
X012219Y024172D01*
X012173Y024163D01*
X012126Y024157D01*
X012079Y024155D01*
X012032Y024157D01*
X011985Y024163D01*
X011939Y024172D01*
X011894Y024186D01*
X011850Y024203D01*
X011807Y024224D01*
X011767Y024248D01*
X011728Y024275D01*
X011692Y024306D01*
X011659Y024339D01*
X011628Y024375D01*
X011601Y024414D01*
X011577Y024454D01*
X011556Y024497D01*
X011539Y024541D01*
X011525Y024586D01*
X011516Y024632D01*
X011510Y024679D01*
X011508Y024726D01*
X011176Y025006D02*
X011173Y025003D01*
X012293Y024427D02*
X012293Y024120D01*
X012524Y024120D01*
X012447Y024274D01*
X012447Y024351D01*
X012524Y024427D01*
X012677Y024427D01*
X012754Y024351D01*
X012754Y024197D01*
X012677Y024120D01*
X012754Y023967D02*
X012293Y023660D01*
X012293Y023967D02*
X012754Y023660D01*
X013053Y023832D02*
X013245Y023832D01*
X013226Y023794D02*
X013072Y023794D01*
X013091Y023755D02*
X013206Y023755D01*
X013187Y023717D02*
X013111Y023717D01*
X013130Y023678D02*
X013168Y023678D01*
X013149Y023640D02*
X013274Y023890D01*
X013024Y023890D01*
X013149Y023640D01*
X013034Y023871D02*
X013264Y023871D01*
X013130Y024726D02*
X013132Y024773D01*
X013138Y024820D01*
X013147Y024866D01*
X013161Y024911D01*
X013178Y024955D01*
X013199Y024998D01*
X013223Y025038D01*
X013250Y025077D01*
X013281Y025113D01*
X013314Y025146D01*
X013350Y025177D01*
X013389Y025204D01*
X013429Y025228D01*
X013472Y025249D01*
X013516Y025266D01*
X013561Y025280D01*
X013607Y025289D01*
X013654Y025295D01*
X013701Y025297D01*
X013748Y025295D01*
X013795Y025289D01*
X013841Y025280D01*
X013886Y025266D01*
X013930Y025249D01*
X013973Y025228D01*
X014013Y025204D01*
X014052Y025177D01*
X014088Y025146D01*
X014121Y025113D01*
X014152Y025077D01*
X014179Y025038D01*
X014203Y024998D01*
X014224Y024955D01*
X014241Y024911D01*
X014255Y024866D01*
X014264Y024820D01*
X014270Y024773D01*
X014272Y024726D01*
X014270Y024679D01*
X014264Y024632D01*
X014255Y024586D01*
X014241Y024541D01*
X014224Y024497D01*
X014203Y024454D01*
X014179Y024414D01*
X014152Y024375D01*
X014121Y024339D01*
X014088Y024306D01*
X014052Y024275D01*
X014013Y024248D01*
X013973Y024224D01*
X013930Y024203D01*
X013886Y024186D01*
X013841Y024172D01*
X013795Y024163D01*
X013748Y024157D01*
X013701Y024155D01*
X013654Y024157D01*
X013607Y024163D01*
X013561Y024172D01*
X013516Y024186D01*
X013472Y024203D01*
X013429Y024224D01*
X013389Y024248D01*
X013350Y024275D01*
X013314Y024306D01*
X013281Y024339D01*
X013250Y024375D01*
X013223Y024414D01*
X013199Y024454D01*
X013178Y024497D01*
X013161Y024541D01*
X013147Y024586D01*
X013138Y024632D01*
X013132Y024679D01*
X013130Y024726D01*
X014173Y025003D02*
X014176Y025006D01*
X014508Y024726D02*
X014510Y024773D01*
X014516Y024820D01*
X014525Y024866D01*
X014539Y024911D01*
X014556Y024955D01*
X014577Y024998D01*
X014601Y025038D01*
X014628Y025077D01*
X014659Y025113D01*
X014692Y025146D01*
X014728Y025177D01*
X014767Y025204D01*
X014807Y025228D01*
X014850Y025249D01*
X014894Y025266D01*
X014939Y025280D01*
X014985Y025289D01*
X015032Y025295D01*
X015079Y025297D01*
X015126Y025295D01*
X015173Y025289D01*
X015219Y025280D01*
X015264Y025266D01*
X015308Y025249D01*
X015351Y025228D01*
X015391Y025204D01*
X015430Y025177D01*
X015466Y025146D01*
X015499Y025113D01*
X015530Y025077D01*
X015557Y025038D01*
X015581Y024998D01*
X015602Y024955D01*
X015619Y024911D01*
X015633Y024866D01*
X015642Y024820D01*
X015648Y024773D01*
X015650Y024726D01*
X015648Y024679D01*
X015642Y024632D01*
X015633Y024586D01*
X015619Y024541D01*
X015602Y024497D01*
X015581Y024454D01*
X015557Y024414D01*
X015530Y024375D01*
X015499Y024339D01*
X015466Y024306D01*
X015430Y024275D01*
X015391Y024248D01*
X015351Y024224D01*
X015308Y024203D01*
X015264Y024186D01*
X015219Y024172D01*
X015173Y024163D01*
X015126Y024157D01*
X015079Y024155D01*
X015032Y024157D01*
X014985Y024163D01*
X014939Y024172D01*
X014894Y024186D01*
X014850Y024203D01*
X014807Y024224D01*
X014767Y024248D01*
X014728Y024275D01*
X014692Y024306D01*
X014659Y024339D01*
X014628Y024375D01*
X014601Y024414D01*
X014577Y024454D01*
X014556Y024497D01*
X014539Y024541D01*
X014525Y024586D01*
X014516Y024632D01*
X014510Y024679D01*
X014508Y024726D01*
X016544Y025660D02*
X016851Y025660D01*
X016697Y025660D02*
X016697Y026120D01*
X016544Y025967D01*
X017919Y026044D02*
X017996Y026120D01*
X018149Y026120D01*
X018226Y026044D01*
X018226Y025967D01*
X017919Y025660D01*
X018226Y025660D01*
X018866Y025518D02*
X018866Y025331D01*
X018914Y025331D02*
X018914Y025518D01*
X021866Y025518D01*
X021866Y026202D01*
X018914Y026202D01*
X018914Y025518D01*
X019544Y025660D02*
X019851Y025660D01*
X019697Y025660D02*
X019697Y026120D01*
X019544Y025967D01*
X020919Y026044D02*
X020996Y026120D01*
X021149Y026120D01*
X021226Y026044D01*
X021226Y025967D01*
X020919Y025660D01*
X021226Y025660D01*
X021866Y025518D02*
X021866Y025331D01*
X021554Y025006D02*
X021551Y025003D01*
X020508Y024726D02*
X020510Y024773D01*
X020516Y024820D01*
X020525Y024866D01*
X020539Y024911D01*
X020556Y024955D01*
X020577Y024998D01*
X020601Y025038D01*
X020628Y025077D01*
X020659Y025113D01*
X020692Y025146D01*
X020728Y025177D01*
X020767Y025204D01*
X020807Y025228D01*
X020850Y025249D01*
X020894Y025266D01*
X020939Y025280D01*
X020985Y025289D01*
X021032Y025295D01*
X021079Y025297D01*
X021126Y025295D01*
X021173Y025289D01*
X021219Y025280D01*
X021264Y025266D01*
X021308Y025249D01*
X021351Y025228D01*
X021391Y025204D01*
X021430Y025177D01*
X021466Y025146D01*
X021499Y025113D01*
X021530Y025077D01*
X021557Y025038D01*
X021581Y024998D01*
X021602Y024955D01*
X021619Y024911D01*
X021633Y024866D01*
X021642Y024820D01*
X021648Y024773D01*
X021650Y024726D01*
X021648Y024679D01*
X021642Y024632D01*
X021633Y024586D01*
X021619Y024541D01*
X021602Y024497D01*
X021581Y024454D01*
X021557Y024414D01*
X021530Y024375D01*
X021499Y024339D01*
X021466Y024306D01*
X021430Y024275D01*
X021391Y024248D01*
X021351Y024224D01*
X021308Y024203D01*
X021264Y024186D01*
X021219Y024172D01*
X021173Y024163D01*
X021126Y024157D01*
X021079Y024155D01*
X021032Y024157D01*
X020985Y024163D01*
X020939Y024172D01*
X020894Y024186D01*
X020850Y024203D01*
X020807Y024224D01*
X020767Y024248D01*
X020728Y024275D01*
X020692Y024306D01*
X020659Y024339D01*
X020628Y024375D01*
X020601Y024414D01*
X020577Y024454D01*
X020556Y024497D01*
X020539Y024541D01*
X020525Y024586D01*
X020516Y024632D01*
X020510Y024679D01*
X020508Y024726D01*
X020176Y025006D02*
X020173Y025003D01*
X019130Y024726D02*
X019132Y024773D01*
X019138Y024820D01*
X019147Y024866D01*
X019161Y024911D01*
X019178Y024955D01*
X019199Y024998D01*
X019223Y025038D01*
X019250Y025077D01*
X019281Y025113D01*
X019314Y025146D01*
X019350Y025177D01*
X019389Y025204D01*
X019429Y025228D01*
X019472Y025249D01*
X019516Y025266D01*
X019561Y025280D01*
X019607Y025289D01*
X019654Y025295D01*
X019701Y025297D01*
X019748Y025295D01*
X019795Y025289D01*
X019841Y025280D01*
X019886Y025266D01*
X019930Y025249D01*
X019973Y025228D01*
X020013Y025204D01*
X020052Y025177D01*
X020088Y025146D01*
X020121Y025113D01*
X020152Y025077D01*
X020179Y025038D01*
X020203Y024998D01*
X020224Y024955D01*
X020241Y024911D01*
X020255Y024866D01*
X020264Y024820D01*
X020270Y024773D01*
X020272Y024726D01*
X020270Y024679D01*
X020264Y024632D01*
X020255Y024586D01*
X020241Y024541D01*
X020224Y024497D01*
X020203Y024454D01*
X020179Y024414D01*
X020152Y024375D01*
X020121Y024339D01*
X020088Y024306D01*
X020052Y024275D01*
X020013Y024248D01*
X019973Y024224D01*
X019930Y024203D01*
X019886Y024186D01*
X019841Y024172D01*
X019795Y024163D01*
X019748Y024157D01*
X019701Y024155D01*
X019654Y024157D01*
X019607Y024163D01*
X019561Y024172D01*
X019516Y024186D01*
X019472Y024203D01*
X019429Y024224D01*
X019389Y024248D01*
X019350Y024275D01*
X019314Y024306D01*
X019281Y024339D01*
X019250Y024375D01*
X019223Y024414D01*
X019199Y024454D01*
X019178Y024497D01*
X019161Y024541D01*
X019147Y024586D01*
X019138Y024632D01*
X019132Y024679D01*
X019130Y024726D01*
X018554Y025006D02*
X018551Y025003D01*
X017508Y024726D02*
X017510Y024773D01*
X017516Y024820D01*
X017525Y024866D01*
X017539Y024911D01*
X017556Y024955D01*
X017577Y024998D01*
X017601Y025038D01*
X017628Y025077D01*
X017659Y025113D01*
X017692Y025146D01*
X017728Y025177D01*
X017767Y025204D01*
X017807Y025228D01*
X017850Y025249D01*
X017894Y025266D01*
X017939Y025280D01*
X017985Y025289D01*
X018032Y025295D01*
X018079Y025297D01*
X018126Y025295D01*
X018173Y025289D01*
X018219Y025280D01*
X018264Y025266D01*
X018308Y025249D01*
X018351Y025228D01*
X018391Y025204D01*
X018430Y025177D01*
X018466Y025146D01*
X018499Y025113D01*
X018530Y025077D01*
X018557Y025038D01*
X018581Y024998D01*
X018602Y024955D01*
X018619Y024911D01*
X018633Y024866D01*
X018642Y024820D01*
X018648Y024773D01*
X018650Y024726D01*
X018648Y024679D01*
X018642Y024632D01*
X018633Y024586D01*
X018619Y024541D01*
X018602Y024497D01*
X018581Y024454D01*
X018557Y024414D01*
X018530Y024375D01*
X018499Y024339D01*
X018466Y024306D01*
X018430Y024275D01*
X018391Y024248D01*
X018351Y024224D01*
X018308Y024203D01*
X018264Y024186D01*
X018219Y024172D01*
X018173Y024163D01*
X018126Y024157D01*
X018079Y024155D01*
X018032Y024157D01*
X017985Y024163D01*
X017939Y024172D01*
X017894Y024186D01*
X017850Y024203D01*
X017807Y024224D01*
X017767Y024248D01*
X017728Y024275D01*
X017692Y024306D01*
X017659Y024339D01*
X017628Y024375D01*
X017601Y024414D01*
X017577Y024454D01*
X017556Y024497D01*
X017539Y024541D01*
X017525Y024586D01*
X017516Y024632D01*
X017510Y024679D01*
X017508Y024726D01*
X017176Y025006D02*
X017173Y025003D01*
X018293Y024427D02*
X018370Y024427D01*
X018677Y024120D01*
X018754Y024120D01*
X018754Y023967D02*
X018293Y023660D01*
X018293Y023967D02*
X018754Y023660D01*
X019053Y023832D02*
X019245Y023832D01*
X019226Y023794D02*
X019072Y023794D01*
X019091Y023755D02*
X019206Y023755D01*
X019187Y023717D02*
X019111Y023717D01*
X019130Y023678D02*
X019168Y023678D01*
X019149Y023640D02*
X019274Y023890D01*
X019024Y023890D01*
X019149Y023640D01*
X019034Y023871D02*
X019264Y023871D01*
X018293Y024120D02*
X018293Y024427D01*
X022213Y024849D02*
X022213Y022526D01*
X023434Y022526D01*
X024221Y022526D02*
X025442Y022526D01*
X025442Y024849D01*
X024536Y025754D01*
X024221Y025754D01*
X023434Y025754D02*
X023119Y025754D01*
X022213Y024849D01*
X023473Y025656D02*
X023396Y025636D01*
X023321Y025613D01*
X023247Y025585D01*
X023175Y025554D01*
X023104Y025519D01*
X023035Y025481D01*
X022969Y025439D01*
X022904Y025394D01*
X022842Y025346D01*
X022782Y025294D01*
X022725Y025240D01*
X022671Y025183D01*
X022619Y025123D01*
X022571Y025061D01*
X022526Y024996D01*
X022485Y024929D01*
X022447Y024860D01*
X022412Y024789D01*
X022381Y024717D01*
X022353Y024643D01*
X022330Y024568D01*
X022310Y024492D01*
X022294Y024414D01*
X022282Y024336D01*
X022274Y024258D01*
X022270Y024179D01*
X022270Y024101D01*
X022274Y024022D01*
X022282Y023944D01*
X022294Y023866D01*
X022310Y023788D01*
X022330Y023712D01*
X022353Y023637D01*
X022381Y023563D01*
X022412Y023491D01*
X022447Y023420D01*
X022485Y023351D01*
X022526Y023284D01*
X022571Y023219D01*
X022619Y023157D01*
X022671Y023097D01*
X022725Y023040D01*
X022782Y022986D01*
X022842Y022934D01*
X022904Y022886D01*
X022969Y022841D01*
X023035Y022799D01*
X023104Y022761D01*
X023175Y022726D01*
X023247Y022695D01*
X023321Y022667D01*
X023396Y022644D01*
X023473Y022624D01*
X025293Y023660D02*
X025754Y023967D01*
X025754Y024120D02*
X025447Y024427D01*
X025370Y024427D01*
X025293Y024351D01*
X025293Y024197D01*
X025370Y024120D01*
X025293Y023967D02*
X025754Y023660D01*
X025914Y023619D02*
X025914Y023446D01*
X025914Y023328D01*
X028866Y023328D01*
X028866Y023446D01*
X028866Y023619D01*
X025914Y023619D01*
X025914Y023939D01*
X025914Y024129D01*
X028866Y024129D01*
X028866Y023939D01*
X028866Y023619D01*
X028866Y023446D02*
X025914Y023446D01*
X026149Y023640D02*
X026274Y023890D01*
X026024Y023890D01*
X026149Y023640D01*
X026130Y023678D02*
X026168Y023678D01*
X026187Y023717D02*
X026111Y023717D01*
X026091Y023755D02*
X026206Y023755D01*
X026226Y023794D02*
X026072Y023794D01*
X026053Y023832D02*
X026245Y023832D01*
X026264Y023871D02*
X026034Y023871D01*
X025914Y023939D02*
X028866Y023939D01*
X028866Y024129D02*
X028866Y025331D01*
X025914Y025331D01*
X025914Y024129D01*
X025754Y024120D02*
X025754Y024427D01*
X026130Y024726D02*
X026132Y024773D01*
X026138Y024820D01*
X026147Y024866D01*
X026161Y024911D01*
X026178Y024955D01*
X026199Y024998D01*
X026223Y025038D01*
X026250Y025077D01*
X026281Y025113D01*
X026314Y025146D01*
X026350Y025177D01*
X026389Y025204D01*
X026429Y025228D01*
X026472Y025249D01*
X026516Y025266D01*
X026561Y025280D01*
X026607Y025289D01*
X026654Y025295D01*
X026701Y025297D01*
X026748Y025295D01*
X026795Y025289D01*
X026841Y025280D01*
X026886Y025266D01*
X026930Y025249D01*
X026973Y025228D01*
X027013Y025204D01*
X027052Y025177D01*
X027088Y025146D01*
X027121Y025113D01*
X027152Y025077D01*
X027179Y025038D01*
X027203Y024998D01*
X027224Y024955D01*
X027241Y024911D01*
X027255Y024866D01*
X027264Y024820D01*
X027270Y024773D01*
X027272Y024726D01*
X027270Y024679D01*
X027264Y024632D01*
X027255Y024586D01*
X027241Y024541D01*
X027224Y024497D01*
X027203Y024454D01*
X027179Y024414D01*
X027152Y024375D01*
X027121Y024339D01*
X027088Y024306D01*
X027052Y024275D01*
X027013Y024248D01*
X026973Y024224D01*
X026930Y024203D01*
X026886Y024186D01*
X026841Y024172D01*
X026795Y024163D01*
X026748Y024157D01*
X026701Y024155D01*
X026654Y024157D01*
X026607Y024163D01*
X026561Y024172D01*
X026516Y024186D01*
X026472Y024203D01*
X026429Y024224D01*
X026389Y024248D01*
X026350Y024275D01*
X026314Y024306D01*
X026281Y024339D01*
X026250Y024375D01*
X026223Y024414D01*
X026199Y024454D01*
X026178Y024497D01*
X026161Y024541D01*
X026147Y024586D01*
X026138Y024632D01*
X026132Y024679D01*
X026130Y024726D01*
X025914Y025331D02*
X025914Y025518D01*
X028866Y025518D01*
X028866Y026202D01*
X025914Y026202D01*
X025914Y025518D01*
X026544Y025660D02*
X026851Y025660D01*
X026697Y025660D02*
X026697Y026120D01*
X026544Y025967D01*
X027919Y026044D02*
X027996Y026120D01*
X028149Y026120D01*
X028226Y026044D01*
X028226Y025967D01*
X027919Y025660D01*
X028226Y025660D01*
X028866Y025518D02*
X028866Y025331D01*
X028554Y025006D02*
X028551Y025003D01*
X027508Y024726D02*
X027510Y024773D01*
X027516Y024820D01*
X027525Y024866D01*
X027539Y024911D01*
X027556Y024955D01*
X027577Y024998D01*
X027601Y025038D01*
X027628Y025077D01*
X027659Y025113D01*
X027692Y025146D01*
X027728Y025177D01*
X027767Y025204D01*
X027807Y025228D01*
X027850Y025249D01*
X027894Y025266D01*
X027939Y025280D01*
X027985Y025289D01*
X028032Y025295D01*
X028079Y025297D01*
X028126Y025295D01*
X028173Y025289D01*
X028219Y025280D01*
X028264Y025266D01*
X028308Y025249D01*
X028351Y025228D01*
X028391Y025204D01*
X028430Y025177D01*
X028466Y025146D01*
X028499Y025113D01*
X028530Y025077D01*
X028557Y025038D01*
X028581Y024998D01*
X028602Y024955D01*
X028619Y024911D01*
X028633Y024866D01*
X028642Y024820D01*
X028648Y024773D01*
X028650Y024726D01*
X028648Y024679D01*
X028642Y024632D01*
X028633Y024586D01*
X028619Y024541D01*
X028602Y024497D01*
X028581Y024454D01*
X028557Y024414D01*
X028530Y024375D01*
X028499Y024339D01*
X028466Y024306D01*
X028430Y024275D01*
X028391Y024248D01*
X028351Y024224D01*
X028308Y024203D01*
X028264Y024186D01*
X028219Y024172D01*
X028173Y024163D01*
X028126Y024157D01*
X028079Y024155D01*
X028032Y024157D01*
X027985Y024163D01*
X027939Y024172D01*
X027894Y024186D01*
X027850Y024203D01*
X027807Y024224D01*
X027767Y024248D01*
X027728Y024275D01*
X027692Y024306D01*
X027659Y024339D01*
X027628Y024375D01*
X027601Y024414D01*
X027577Y024454D01*
X027556Y024497D01*
X027539Y024541D01*
X027525Y024586D01*
X027516Y024632D01*
X027510Y024679D01*
X027508Y024726D01*
X027176Y025006D02*
X027173Y025003D01*
X024182Y025656D02*
X024259Y025636D01*
X024334Y025613D01*
X024408Y025585D01*
X024480Y025554D01*
X024551Y025519D01*
X024620Y025481D01*
X024686Y025439D01*
X024751Y025394D01*
X024813Y025346D01*
X024873Y025294D01*
X024930Y025240D01*
X024984Y025183D01*
X025036Y025123D01*
X025084Y025061D01*
X025129Y024996D01*
X025170Y024929D01*
X025208Y024860D01*
X025243Y024789D01*
X025274Y024717D01*
X025302Y024643D01*
X025325Y024568D01*
X025345Y024492D01*
X025361Y024414D01*
X025373Y024336D01*
X025381Y024258D01*
X025385Y024179D01*
X025385Y024101D01*
X025381Y024022D01*
X025373Y023944D01*
X025361Y023866D01*
X025345Y023788D01*
X025325Y023712D01*
X025302Y023637D01*
X025274Y023563D01*
X025243Y023491D01*
X025208Y023420D01*
X025170Y023351D01*
X025129Y023284D01*
X025084Y023219D01*
X025036Y023157D01*
X024984Y023097D01*
X024930Y023040D01*
X024873Y022986D01*
X024813Y022934D01*
X024751Y022886D01*
X024686Y022841D01*
X024620Y022799D01*
X024551Y022761D01*
X024480Y022726D01*
X024408Y022695D01*
X024334Y022667D01*
X024259Y022644D01*
X024182Y022624D01*
X012097Y021236D02*
X012097Y020929D01*
X012020Y020775D02*
X011867Y020622D01*
X011867Y020699D02*
X011867Y020468D01*
X012020Y020468D02*
X011560Y020468D01*
X011560Y020699D01*
X011636Y020775D01*
X011790Y020775D01*
X011867Y020699D01*
X011867Y021389D02*
X011867Y021619D01*
X011790Y021696D01*
X011636Y021696D01*
X011560Y021619D01*
X011560Y021389D01*
X012020Y021389D01*
X012020Y021850D02*
X012020Y022157D01*
X012020Y022003D02*
X011560Y022003D01*
X011713Y021850D01*
X010149Y023640D02*
X010274Y023890D01*
X010024Y023890D01*
X010149Y023640D01*
X010130Y023678D02*
X010168Y023678D01*
X010187Y023717D02*
X010111Y023717D01*
X010091Y023755D02*
X010206Y023755D01*
X010226Y023794D02*
X010072Y023794D01*
X010053Y023832D02*
X010245Y023832D01*
X010264Y023871D02*
X010034Y023871D01*
X008845Y025135D02*
X008385Y025135D01*
X008385Y025365D01*
X008461Y025442D01*
X008615Y025442D01*
X008692Y025365D01*
X008692Y025135D01*
X008845Y026056D02*
X008385Y026056D01*
X010636Y018782D02*
X010560Y018705D01*
X010560Y018551D01*
X010636Y018475D01*
X010943Y018475D01*
X011020Y018551D01*
X011020Y018705D01*
X010943Y018782D01*
X008658Y015395D02*
X008505Y015242D01*
X008352Y015395D01*
X008352Y014935D01*
X008198Y015012D02*
X008198Y015319D01*
X008121Y015395D01*
X007968Y015395D01*
X007891Y015319D01*
X007891Y015012D01*
X007968Y014935D01*
X008121Y014935D01*
X008198Y015012D01*
X007738Y015012D02*
X007661Y014935D01*
X007508Y014935D01*
X007431Y015012D01*
X007431Y015319D01*
X007508Y015395D01*
X007661Y015395D01*
X007738Y015319D01*
X007157Y014894D02*
X007157Y014740D01*
X007080Y014663D01*
X006850Y014663D01*
X006850Y014510D02*
X006850Y014970D01*
X007080Y014970D01*
X007157Y014894D01*
X007277Y014858D02*
X006970Y014858D01*
X006817Y014935D02*
X006663Y015088D01*
X006740Y015088D02*
X006510Y015088D01*
X006510Y014935D02*
X006510Y015395D01*
X006740Y015395D01*
X006817Y015319D01*
X006817Y015165D01*
X006740Y015088D01*
X006696Y014970D02*
X006696Y014510D01*
X006389Y014510D02*
X006389Y014970D01*
X006543Y014817D01*
X006696Y014970D01*
X006236Y014894D02*
X006236Y014587D01*
X006159Y014510D01*
X006006Y014510D01*
X005929Y014587D01*
X005929Y014894D01*
X006006Y014970D01*
X006159Y014970D01*
X006236Y014894D01*
X005775Y014894D02*
X005699Y014970D01*
X005545Y014970D01*
X005468Y014894D01*
X005468Y014587D01*
X005545Y014510D01*
X005699Y014510D01*
X005775Y014587D01*
X005315Y014433D02*
X005008Y014433D01*
X004855Y014510D02*
X004701Y014663D01*
X004778Y014663D02*
X004548Y014663D01*
X004548Y014510D02*
X004548Y014970D01*
X004778Y014970D01*
X004855Y014894D01*
X004855Y014740D01*
X004778Y014663D01*
X005257Y012887D02*
X005197Y012827D01*
X005197Y012707D01*
X005257Y012647D01*
X005257Y012887D02*
X005317Y012887D01*
X005558Y012647D01*
X005558Y012887D01*
X005558Y012519D02*
X005558Y012278D01*
X005558Y012398D02*
X005197Y012398D01*
X005317Y012278D01*
X005197Y012150D02*
X005558Y011910D01*
X005558Y012150D02*
X005197Y011910D01*
X008658Y014935D02*
X008658Y015395D01*
X010560Y014192D02*
X010636Y014269D01*
X010790Y014269D01*
X010867Y014192D01*
X010867Y013962D01*
X011020Y013962D02*
X010560Y013962D01*
X010560Y014192D01*
X010867Y014116D02*
X011020Y014269D01*
X011097Y014423D02*
X011097Y014730D01*
D15*
X009940Y013590D02*
X009340Y013590D01*
X009340Y012190D01*
X009940Y012190D01*
X009940Y013590D01*
X009190Y013590D02*
X009190Y012190D01*
X008590Y012190D01*
X008590Y013590D01*
X009190Y013590D01*
X017602Y012713D02*
X018053Y012713D01*
X018053Y012563D02*
X018053Y012863D01*
X017752Y012563D02*
X017602Y012713D01*
X017602Y012403D02*
X017602Y012253D01*
X017602Y012328D02*
X017977Y012328D01*
X018053Y012253D01*
X018053Y012178D01*
X017977Y012103D01*
X022820Y014035D02*
X022970Y014185D01*
X023270Y014185D01*
X023120Y014345D02*
X023270Y014496D01*
X023120Y014646D01*
X022820Y014646D01*
X022820Y014806D02*
X022820Y015031D01*
X022895Y015106D01*
X023045Y015106D01*
X023120Y015031D01*
X023120Y014806D01*
X023120Y014956D02*
X023270Y015106D01*
X023345Y015266D02*
X023345Y015566D01*
X023195Y015727D02*
X023270Y015802D01*
X023270Y015952D01*
X023195Y016027D01*
X023120Y016027D01*
X023045Y015952D01*
X023045Y015802D01*
X022970Y015727D01*
X022895Y015727D01*
X022820Y015802D01*
X022820Y015952D01*
X022895Y016027D01*
X022820Y016187D02*
X023270Y016187D01*
X023270Y016487D01*
X023270Y016647D02*
X022820Y016647D01*
X022820Y016873D01*
X022895Y016948D01*
X023045Y016948D01*
X023120Y016873D01*
X023120Y016647D01*
X023120Y016797D02*
X023270Y016948D01*
X023270Y017108D02*
X023270Y017258D01*
X023270Y017183D02*
X022820Y017183D01*
X022820Y017108D02*
X022820Y017258D01*
X022970Y017415D02*
X022820Y017565D01*
X022970Y017715D01*
X023270Y017715D01*
X023270Y017875D02*
X023270Y018175D01*
X023270Y017875D02*
X022820Y017875D01*
X023045Y017715D02*
X023045Y017415D01*
X022970Y017415D02*
X023270Y017415D01*
X022820Y016487D02*
X022820Y016187D01*
X023045Y016187D02*
X023045Y016337D01*
X023270Y014806D02*
X022820Y014806D01*
X022820Y014345D02*
X023120Y014345D01*
X023045Y014185D02*
X023045Y013885D01*
X022970Y013885D02*
X022820Y014035D01*
X022970Y013885D02*
X023270Y013885D01*
X024929Y013354D02*
X029851Y013354D01*
X029851Y018276D01*
X024929Y018276D01*
X024929Y013354D01*
X024515Y011361D02*
X024515Y011265D01*
X024327Y011265D01*
X024515Y011015D01*
X024515Y010919D01*
X024515Y011015D02*
X024327Y011015D01*
X024515Y011015D02*
X024703Y011015D01*
X024515Y011015D02*
X024703Y011265D01*
X024515Y011265D01*
X024756Y021073D02*
X024906Y021073D01*
X024981Y021148D01*
X024981Y021223D01*
X024906Y021298D01*
X024681Y021298D01*
X024681Y021148D01*
X024756Y021073D01*
X024681Y021298D02*
X024831Y021448D01*
X024981Y021523D01*
X024521Y021448D02*
X024521Y021298D01*
X024446Y021223D01*
X024220Y021223D01*
X024220Y021073D02*
X024220Y021523D01*
X024446Y021523D01*
X024521Y021448D01*
X024060Y021523D02*
X023910Y021523D01*
X023985Y021523D02*
X023985Y021148D01*
X023910Y021073D01*
X023835Y021073D01*
X023760Y021148D01*
X023835Y022198D02*
X023910Y022198D01*
X023985Y022273D01*
X023985Y022648D01*
X023910Y022648D02*
X024060Y022648D01*
X024220Y022648D02*
X024446Y022648D01*
X024521Y022573D01*
X024521Y022423D01*
X024446Y022348D01*
X024220Y022348D01*
X024220Y022198D02*
X024220Y022648D01*
X024681Y022648D02*
X024981Y022648D01*
X024981Y022573D01*
X024681Y022273D01*
X024681Y022198D01*
X023835Y022198D02*
X023760Y022273D01*
X041041Y020489D02*
X050489Y020489D01*
X050489Y011041D01*
X041041Y011041D01*
X041041Y020489D01*
X052612Y016552D02*
X052612Y016041D01*
X052691Y016041D01*
X052691Y016552D01*
X052612Y016552D01*
X052651Y016552D02*
X052651Y016041D01*
X052691Y016552D02*
X053714Y016552D01*
X053714Y016041D01*
X053714Y015489D02*
X053714Y014978D01*
X052691Y014978D01*
X052612Y014978D01*
X052612Y015489D01*
X052691Y015489D01*
X052691Y014978D01*
X052651Y014978D02*
X052651Y015489D01*
D16*
X020703Y012828D02*
X020703Y012328D01*
X020453Y012578D01*
X020703Y012828D01*
X020703Y012820D02*
X020695Y012820D01*
X020703Y012796D02*
X020671Y012796D01*
X020648Y012773D02*
X020703Y012773D01*
X020703Y012749D02*
X020624Y012749D01*
X020601Y012726D02*
X020703Y012726D01*
X020703Y012702D02*
X020577Y012702D01*
X020554Y012679D02*
X020703Y012679D01*
X020703Y012656D02*
X020531Y012656D01*
X020507Y012632D02*
X020703Y012632D01*
X020703Y012609D02*
X020484Y012609D01*
X020460Y012585D02*
X020703Y012585D01*
X020703Y012562D02*
X020468Y012562D01*
X020492Y012538D02*
X020703Y012538D01*
X020703Y012515D02*
X020515Y012515D01*
X020539Y012491D02*
X020703Y012491D01*
X020703Y012468D02*
X020562Y012468D01*
X020586Y012444D02*
X020703Y012444D01*
X020703Y012421D02*
X020609Y012421D01*
X020633Y012397D02*
X020703Y012397D01*
X020703Y012374D02*
X020656Y012374D01*
X020679Y012351D02*
X020703Y012351D01*
D17*
X022136Y012058D02*
X022136Y011811D01*
X022198Y011749D01*
X022321Y011749D01*
X022383Y011811D01*
X022505Y011688D02*
X022751Y011688D01*
X022873Y011749D02*
X022873Y012120D01*
X023058Y012120D01*
X023120Y012058D01*
X023120Y011811D01*
X023058Y011749D01*
X022873Y011749D01*
X023365Y011749D02*
X023365Y012120D01*
X023488Y012120D02*
X023241Y012120D01*
X023610Y012120D02*
X023610Y011749D01*
X023610Y011873D02*
X023795Y011873D01*
X023856Y011935D01*
X023856Y012058D01*
X023795Y012120D01*
X023610Y012120D01*
X023733Y011873D02*
X023856Y011749D01*
X022383Y012058D02*
X022321Y012120D01*
X022198Y012120D01*
X022136Y012058D01*
X024541Y008285D02*
X024603Y008285D01*
X024850Y008038D01*
X024912Y008038D01*
X024850Y007917D02*
X024912Y007855D01*
X024912Y007732D01*
X024850Y007670D01*
X024603Y007670D01*
X024541Y007732D01*
X024541Y007855D01*
X024603Y007917D01*
X024541Y008038D02*
X024541Y008285D01*
X033107Y007552D02*
X033107Y007305D01*
X033169Y007243D01*
X033293Y007243D01*
X033354Y007305D01*
X033476Y007305D02*
X033537Y007243D01*
X033661Y007243D01*
X033723Y007305D01*
X033723Y007367D01*
X033661Y007428D01*
X033476Y007428D01*
X033476Y007305D01*
X033476Y007428D02*
X033599Y007552D01*
X033723Y007614D01*
X033354Y007552D02*
X033293Y007614D01*
X033169Y007614D01*
X033107Y007552D01*
X033169Y010618D02*
X033293Y010618D01*
X033354Y010680D01*
X033476Y010618D02*
X033723Y010618D01*
X033599Y010618D02*
X033599Y010989D01*
X033476Y010865D01*
X033354Y010927D02*
X033293Y010989D01*
X033169Y010989D01*
X033107Y010927D01*
X033107Y010680D01*
X033169Y010618D01*
X033169Y019243D02*
X033293Y019243D01*
X033354Y019305D01*
X033476Y019428D02*
X033723Y019428D01*
X033661Y019243D02*
X033661Y019614D01*
X033476Y019428D01*
X033354Y019552D02*
X033293Y019614D01*
X033169Y019614D01*
X033107Y019552D01*
X033107Y019305D01*
X033169Y019243D01*
X033169Y022868D02*
X033293Y022868D01*
X033354Y022930D01*
X033476Y022930D02*
X033537Y022868D01*
X033661Y022868D01*
X033723Y022930D01*
X033723Y023053D01*
X033661Y023115D01*
X033599Y023115D01*
X033476Y023053D01*
X033476Y023239D01*
X033723Y023239D01*
X033354Y023177D02*
X033293Y023239D01*
X033169Y023239D01*
X033107Y023177D01*
X033107Y022930D01*
X033169Y022868D01*
X041089Y021594D02*
X041089Y021347D01*
X041151Y021286D01*
X041274Y021286D01*
X041336Y021347D01*
X041457Y021224D02*
X041704Y021224D01*
X041825Y021409D02*
X041949Y021286D01*
X042072Y021409D01*
X042072Y021656D01*
X042194Y021656D02*
X042194Y021286D01*
X042441Y021286D01*
X042562Y021286D02*
X042809Y021656D01*
X042930Y021656D02*
X043177Y021656D01*
X043054Y021656D02*
X043054Y021286D01*
X042809Y021286D02*
X042562Y021656D01*
X042441Y021656D02*
X042194Y021656D01*
X042194Y021471D02*
X042317Y021471D01*
X041825Y021409D02*
X041825Y021656D01*
X041336Y021594D02*
X041274Y021656D01*
X041151Y021656D01*
X041089Y021594D01*
X048624Y021704D02*
X048871Y021704D01*
X048994Y021581D01*
X048871Y021457D01*
X048624Y021457D01*
X049056Y021336D02*
X049056Y021089D01*
X048933Y020967D02*
X048994Y020906D01*
X048994Y020782D01*
X048933Y020720D01*
X048686Y020720D01*
X048624Y020782D01*
X048624Y020906D01*
X048686Y020967D01*
X048624Y021825D02*
X048994Y021825D01*
X048994Y022072D01*
X048994Y022194D02*
X048624Y022441D01*
X048624Y022562D02*
X048624Y022809D01*
X048624Y022686D02*
X048994Y022686D01*
X048994Y022930D02*
X048748Y023177D01*
X048686Y023177D01*
X048624Y023116D01*
X048624Y022992D01*
X048686Y022930D01*
X048994Y022930D02*
X048994Y023177D01*
X048994Y022441D02*
X048624Y022194D01*
X048624Y022072D02*
X048624Y021825D01*
X048809Y021825D02*
X048809Y021949D01*
X050282Y012531D02*
X050220Y012469D01*
X050220Y012222D01*
X050282Y012161D01*
X050406Y012161D01*
X050467Y012222D01*
X050589Y012099D02*
X050836Y012099D01*
X050957Y012284D02*
X051081Y012161D01*
X051204Y012284D01*
X051204Y012531D01*
X051325Y012531D02*
X051325Y012161D01*
X051572Y012161D01*
X051694Y012161D02*
X051941Y012531D01*
X052062Y012531D02*
X052309Y012531D01*
X052186Y012531D02*
X052186Y012161D01*
X052430Y012161D02*
X052677Y012161D01*
X052554Y012161D02*
X052554Y012531D01*
X052430Y012407D01*
X051941Y012161D02*
X051694Y012531D01*
X051572Y012531D02*
X051325Y012531D01*
X051325Y012346D02*
X051449Y012346D01*
X050957Y012284D02*
X050957Y012531D01*
X050467Y012469D02*
X050406Y012531D01*
X050282Y012531D01*
X023301Y023528D02*
X023301Y023651D01*
X023239Y023713D01*
X023239Y023834D02*
X023301Y023896D01*
X023301Y024019D01*
X023239Y024081D01*
X023177Y024081D01*
X023116Y024019D01*
X023116Y023958D01*
X023116Y024019D02*
X023054Y024081D01*
X022992Y024081D01*
X022930Y024019D01*
X022930Y023896D01*
X022992Y023834D01*
X022992Y023713D02*
X022930Y023651D01*
X022930Y023528D01*
X022992Y023466D01*
X023239Y023466D01*
X023301Y023528D01*
X006406Y019596D02*
X006035Y019596D01*
X006035Y019781D01*
X006097Y019843D01*
X006220Y019843D01*
X006282Y019781D01*
X006282Y019596D01*
X006406Y019475D02*
X006035Y019475D01*
X006159Y019351D01*
X006035Y019228D01*
X006406Y019228D01*
X006406Y019106D02*
X006159Y019106D01*
X006035Y018983D01*
X006159Y018860D01*
X006406Y018860D01*
X006220Y018860D02*
X006220Y019106D01*
X006220Y018738D02*
X006282Y018676D01*
X006282Y018491D01*
X006406Y018491D02*
X006035Y018491D01*
X006035Y018676D01*
X006097Y018738D01*
X006220Y018738D01*
X006097Y018370D02*
X006035Y018308D01*
X006035Y018185D01*
X006097Y018123D01*
X006344Y018123D01*
X006406Y018185D01*
X006406Y018308D01*
X006344Y018370D01*
X006097Y018370D01*
X006467Y018001D02*
X006467Y017755D01*
X006344Y017633D02*
X006406Y017571D01*
X006406Y017448D01*
X006344Y017386D01*
X006097Y017386D01*
X006035Y017448D01*
X006035Y017571D01*
X006097Y017633D01*
X012339Y012469D02*
X012339Y012222D01*
X012401Y012161D01*
X012524Y012161D01*
X012586Y012222D01*
X012707Y012099D02*
X012954Y012099D01*
X013075Y012161D02*
X013075Y012407D01*
X013199Y012531D01*
X013322Y012407D01*
X013322Y012161D01*
X013444Y012284D02*
X013567Y012161D01*
X013691Y012284D01*
X013691Y012531D01*
X013812Y012531D02*
X013997Y012531D01*
X014059Y012469D01*
X014059Y012346D01*
X013997Y012284D01*
X013812Y012284D01*
X013812Y012161D02*
X013812Y012531D01*
X013936Y012284D02*
X014059Y012161D01*
X014180Y012161D02*
X014427Y012161D01*
X014304Y012161D02*
X014304Y012531D01*
X014180Y012407D01*
X013444Y012531D02*
X013444Y012284D01*
X013322Y012346D02*
X013075Y012346D01*
X012586Y012469D02*
X012524Y012531D01*
X012401Y012531D01*
X012339Y012469D01*
D18*
X027654Y009081D03*
X028126Y009081D03*
D19*
X027890Y009081D03*
X009199Y024265D03*
D20*
X009199Y024029D03*
X009199Y024501D03*
D21*
X048718Y018915D02*
X048915Y019308D01*
X049111Y018915D01*
X048718Y018915D01*
D22*
X020953Y019515D02*
X020953Y015515D01*
X020203Y015515D01*
X020203Y019515D01*
X020953Y019515D01*
X020203Y019515D02*
X018453Y019515D01*
X018453Y015515D01*
X020203Y015515D01*
X008328Y013890D02*
X008328Y011890D01*
X006578Y011890D01*
X006578Y013890D01*
X008328Y013890D01*
X006578Y013890D02*
X005828Y013890D01*
X005828Y011890D01*
X006578Y011890D01*
D23*
X006020Y011490D02*
X006020Y007790D01*
X009720Y007790D01*
X009720Y008140D01*
X009515Y008140D01*
X009515Y011140D01*
X009720Y011140D01*
X009720Y011490D01*
X006020Y011490D01*
X006020Y020040D02*
X009720Y020040D01*
X009720Y020390D01*
X009515Y020390D01*
X009515Y023390D01*
X009720Y023390D01*
X009720Y023740D01*
X006020Y023740D01*
X006020Y020040D01*
D24*
X031710Y017205D03*
X031710Y016535D03*
X031710Y015865D03*
X031710Y015195D03*
X031710Y014525D03*
M02*
