%
M48
M72
T01C0.0118
T02C0.0197
T03C0.0320
T04C0.0394
T05C0.0400
T06C0.0433
T07C0.1260
%
T01
X10140Y8015
X10140Y8328
X10140Y8640
X13140Y8640
X13140Y8328
X13140Y8015
X16140Y8015
X16140Y8328
X16140Y8640
X19140Y8640
X19140Y8328
X19140Y8015
X22140Y8015
X22140Y8328
X22140Y8640
X24140Y8640
X24140Y8328
X24140Y8015
X27890Y8015
X27890Y8328
X27890Y8640
X25015Y10265
X25140Y11515
X25140Y11890
X25078Y12703
X24453Y12703
X24453Y13890
X25078Y13890
X25140Y15828
X24453Y15828
X22140Y17140
X20890Y17140
X18140Y17515
X17265Y17640
X16640Y17640
X16140Y17640
X15890Y17953
X15390Y18765
X15265Y19265
X16640Y19078
X16890Y18765
X17890Y20140
X14890Y20640
X12328Y20828
X12890Y23015
X12890Y23328
X12890Y23640
X9890Y23640
X9890Y23328
X9890Y23015
X15890Y23015
X15890Y23328
X15890Y23640
X18890Y23640
X18890Y23328
X18890Y23015
X21890Y23015
X21890Y23328
X21890Y23640
X23890Y23640
X23890Y23328
X23890Y23015
X25328Y23015
X25328Y23328
X25328Y23640
X26390Y22390
X26390Y21890
X26890Y21890
X26890Y22390
X27390Y21890
X27890Y21890
X28390Y21890
X28390Y22390
X28890Y22390
X28890Y21890
X29390Y21890
X29390Y22390
X29640Y19765
X29640Y18890
X25203Y19265
X24328Y19265
X24390Y17953
X25140Y17953
X21015Y20640
X17265Y17140
X15640Y16140
X15390Y16390
X14515Y16015
X14390Y15140
X15390Y14890
X16890Y14765
X16640Y14015
X15890Y13390
X15015Y13390
X13765Y12890
X13140Y12890
X12578Y13140
X12140Y13140
X11265Y13140
X10765Y13140
X12140Y14203
X12578Y13890
X13515Y14640
X13515Y15140
X11390Y15140
X8640Y16140
X7140Y16390
X8640Y17765
X10140Y17140
X10378Y18630
X9515Y18515
X11765Y18640
X13640Y18390
X14078Y18390
X21078Y14890
X20828Y14015
X21640Y14015
X17821Y12140
X17385Y12140
X17385Y11390
X17821Y11390
X16451Y11265
X14953Y11390
X14578Y11390
X13765Y11015
X14578Y12140
X14953Y12140
X10890Y11015
X9015Y12015
X7838Y10588
X6390Y13890
X19765Y10890
X28765Y14328
X30578Y15203
X31203Y14495
X34140Y12640
X34640Y12640
X34640Y12140
X34140Y12140
X36640Y10890
X36390Y10390
X36140Y9890
X36140Y9390
X36140Y8890
X36140Y8265
X36640Y8265
X37390Y8265
X38140Y8265
X38890Y8265
X39640Y8265
X40390Y8265
X41140Y8265
X41890Y8265
X42640Y8265
X43390Y8265
X44140Y8265
X44890Y8265
X45640Y8265
X46390Y8265
X47140Y8265
X47640Y8265
X48140Y8265
X48640Y8265
X49140Y8265
X49640Y8265
X50140Y8265
X50640Y8265
X51140Y8765
X51640Y9015
X51390Y9515
X51890Y9515
X51890Y10015
X51890Y10515
X50203Y10453
X50203Y11328
X50203Y12140
X49390Y11328
X48953Y10453
X47703Y10515
X46953Y10515
X46515Y10515
X44953Y10515
X44203Y10515
X43390Y10390
X41890Y10390
X42140Y11328
X41328Y11328
X41328Y12203
X40390Y11890
X39828Y12140
X38203Y11953
X37890Y12390
X37890Y12890
X37890Y13390
X37890Y13890
X37890Y14390
X37890Y14890
X37890Y15390
X37890Y15890
X37890Y16390
X37890Y16890
X37890Y17390
X38203Y17640
X37890Y17890
X37890Y18390
X38515Y18703
X38890Y18703
X38640Y19390
X37890Y18890
X37640Y19390
X37140Y19890
X36890Y20640
X36890Y21390
X37640Y21390
X38390Y21390
X39140Y21390
X39265Y20640
X40140Y20640
X40640Y21390
X40640Y22140
X40640Y22890
X40640Y23640
X40640Y24390
X39890Y23640
X39140Y22890
X39890Y22390
X38390Y22140
X37640Y22890
X36890Y22140
X36140Y22140
X36140Y22890
X36140Y23640
X36890Y23640
X36140Y24390
X36140Y25140
X36890Y25140
X37640Y25140
X38390Y25140
X39140Y25140
X39890Y25140
X40640Y25140
X41515Y26140
X42265Y26140
X43015Y26140
X43765Y26140
X44515Y26140
X45265Y26140
X46015Y26140
X46765Y26140
X47515Y26140
X48265Y26140
X49015Y26140
X49765Y26140
X50515Y26140
X51015Y25640
X51515Y25140
X52015Y24640
X52515Y24140
X53015Y23640
X53515Y23140
X54015Y22640
X54515Y22140
X55015Y21640
X55015Y20890
X55015Y20140
X55015Y19390
X55015Y18890
X54578Y18515
X54890Y18265
X54578Y18015
X54890Y17765
X54578Y17453
X54890Y17203
X54578Y16890
X54890Y16578
X54578Y16265
X54890Y15953
X54578Y15640
X54890Y15328
X54578Y15015
X54890Y14703
X54578Y14390
X54890Y14078
X54890Y13328
X54890Y12578
X54890Y11828
X54890Y11078
X54890Y10328
X54890Y9578
X54390Y9078
X53640Y8390
X53140Y7890
X52640Y7390
X52140Y6890
X51640Y6390
X51140Y5890
X50640Y5515
X49890Y5515
X49140Y5515
X48390Y5515
X47640Y5515
X46890Y5515
X46140Y5515
X45390Y5515
X44640Y5515
X43890Y5515
X43140Y5515
X42390Y5515
X41640Y5515
X40890Y5515
X40140Y5515
X34640Y8890
X34140Y8890
X34140Y9390
X34640Y9390
X37453Y9203
X38953Y9203
X40453Y9203
X41953Y9203
X43453Y9203
X44953Y9203
X46453Y9203
X47703Y9203
X48953Y9203
X50203Y9203
X51890Y11515
X51890Y12015
X51953Y12890
X51515Y13328
X50890Y13390
X50890Y13015
X49515Y13015
X49515Y13453
X48890Y13328
X48890Y14078
X48140Y14078
X47390Y14078
X47390Y14828
X46578Y14078
X45765Y14078
X45765Y14828
X44953Y14078
X44140Y14078
X43390Y14078
X42640Y14140
X42640Y13328
X42640Y12515
X43390Y12515
X44140Y12515
X44140Y12078
X44953Y12515
X45765Y12515
X46578Y12515
X46515Y12078
X46953Y12078
X47390Y12515
X48140Y12515
X48890Y12515
X47390Y13328
X45765Y13328
X44140Y13328
X44140Y14828
X44140Y15765
X43390Y15765
X42640Y15765
X42640Y14953
X40515Y14640
X39828Y13578
X37390Y11890
X37140Y11390
X37453Y10453
X38953Y10453
X40390Y10390
X48890Y14828
X49515Y14953
X49515Y15390
X48140Y15765
X47390Y15765
X46578Y15765
X45765Y15765
X44890Y15765
X44140Y16703
X44140Y17453
X43390Y17453
X42640Y17390
X42640Y16578
X40515Y16390
X39515Y16390
X39442Y17578
X42078Y18953
X42640Y18953
X42578Y19453
X43390Y18953
X44140Y18953
X44953Y18953
X45765Y18953
X46578Y18953
X47390Y18953
X48140Y18953
X48890Y18953
X48890Y18203
X49515Y17765
X49515Y17328
X49515Y16953
X49515Y16515
X48890Y16515
X48890Y17453
X48140Y17453
X47390Y17453
X47390Y16703
X47390Y18203
X50203Y19453
X51203Y19203
X51953Y19203
X53203Y19203
X53203Y20453
X51953Y20453
X51203Y20453
X50203Y20203
X49453Y20203
X47515Y21015
X48203Y21703
X49453Y21703
X50703Y21703
X51953Y21703
X53203Y21703
X51953Y22953
X50703Y22953
X49453Y22953
X49453Y24203
X50703Y24203
X49453Y25453
X48203Y24203
X43140Y23640
X42140Y23640
X42140Y22140
X42640Y21015
X42140Y20203
X41328Y20203
X41328Y19390
X39578Y19390
X42640Y18203
X44140Y18203
X44390Y21015
X46453Y21015
X51078Y18078
X51078Y17703
X51078Y17328
X51390Y17328
X51703Y17328
X52015Y17328
X52328Y17328
X52703Y17140
X53015Y16765
X53328Y17140
X53640Y16765
X53953Y16890
X54265Y16578
X53953Y16265
X54265Y15953
X54265Y15328
X53953Y15328
X53953Y14703
X54265Y14703
X53640Y14390
X53328Y14703
X53015Y14390
X52703Y14703
X52390Y14703
X52390Y15078
X52078Y15078
X51765Y15078
X51453Y15078
X51140Y15078
X53640Y13640
X53953Y17515
X54203Y17765
X53953Y18015
X54203Y18265
X53203Y17953
X51953Y17953
X39140Y24390
X38390Y23640
X37640Y24390
X34640Y23140
X34140Y23140
X34140Y22640
X34640Y22640
X29953Y25578
X29640Y25828
X29953Y26078
X34140Y19390
X34140Y18890
X34640Y18890
X34640Y19390
T02
X34140Y16703
X33640Y16703
X33140Y16703
X32640Y16703
X32640Y16140
X33140Y16140
X33640Y16140
X34140Y16140
X34140Y15578
X33640Y15578
X33140Y15578
X32640Y15578
X32640Y15015
X33140Y15015
X33640Y15015
X34140Y15015
T03
X8890Y9640
X6890Y8640
X6890Y10640
X6890Y20890
X8890Y21890
X6890Y22890
T04
X19703Y19015
X19703Y18015
X19703Y17015
X19703Y16015
X7078Y13390
X7078Y12390
T05
X18703Y12578
X19703Y12578
X19703Y13578
X18703Y13578
X18703Y14578
X19703Y14578
X24015Y14390
X24015Y13390
X24015Y15390
X24015Y16390
X24015Y17390
X24015Y18390
X24195Y20328
X25335Y20328
X25335Y21453
X24195Y21453
T06
X26701Y24726
X28079Y24726
X21079Y24726
X19701Y24726
X18079Y24726
X16701Y24726
X15079Y24726
X13701Y24726
X12079Y24726
X10701Y24726
X10951Y6929
X12329Y6929
X13951Y6929
X15329Y6929
X16951Y6929
X18329Y6929
X19951Y6929
X21329Y6929
X26701Y6929
X28079Y6929
T07
X7015Y6265
X7015Y25390
X54265Y25390
X54265Y6265
M30
