G75*
G70*
%OFA0B0*%
%FSLAX24Y24*%
%IPPOS*%
%LPD*%
%AMOC8*
5,1,8,0,0,1.08239X$1,22.5*
%
%ADD10C,0.0080*%
%ADD11R,0.0340X0.0300*%
%ADD12R,0.0300X0.0340*%
%ADD13C,0.0120*%
D10*
X010734Y005444D02*
X012546Y005444D01*
X012546Y005621D01*
X012034Y005621D02*
X012034Y006409D01*
X012546Y006409D02*
X012546Y006586D01*
X010734Y006586D01*
X010734Y006409D01*
X010734Y005621D02*
X010734Y005444D01*
X013734Y005444D02*
X015546Y005444D01*
X015546Y005621D01*
X015034Y005621D02*
X015034Y006409D01*
X015546Y006409D02*
X015546Y006586D01*
X013734Y006586D01*
X013734Y006409D01*
X013734Y005621D02*
X013734Y005444D01*
X016734Y005444D02*
X018546Y005444D01*
X018546Y005621D01*
X018034Y005621D02*
X018034Y006409D01*
X018546Y006409D02*
X018546Y006586D01*
X016734Y006586D01*
X016734Y006409D01*
X016734Y005621D02*
X016734Y005444D01*
X019734Y005444D02*
X021546Y005444D01*
X021546Y005621D01*
X021034Y005621D02*
X021034Y006409D01*
X021546Y006409D02*
X021546Y006586D01*
X019734Y006586D01*
X019734Y006409D01*
X019734Y005621D02*
X019734Y005444D01*
X019350Y008294D02*
X019350Y010733D01*
X021930Y010733D01*
X021930Y008294D01*
X018930Y008294D02*
X018930Y010733D01*
X016350Y010733D01*
X016350Y008294D01*
X015930Y008294D02*
X015930Y010733D01*
X013350Y010733D01*
X013350Y008294D01*
X012930Y008294D02*
X012930Y010733D01*
X010350Y010733D01*
X010350Y008294D01*
X026165Y009850D02*
X028525Y009850D01*
X026165Y009850D02*
X026165Y012430D01*
X028525Y012430D01*
X039018Y018196D02*
X039055Y018196D01*
X039018Y018196D02*
X039018Y018834D01*
X039055Y018834D01*
X040100Y018834D02*
X040138Y018834D01*
X040138Y018196D01*
X040100Y018196D01*
X021680Y020797D02*
X021680Y023236D01*
X019100Y023236D02*
X019100Y020797D01*
X021680Y020797D01*
X018680Y020797D02*
X018680Y023236D01*
X016100Y023236D02*
X016100Y020797D01*
X018680Y020797D01*
X015680Y020797D02*
X015680Y023236D01*
X013100Y023236D02*
X013100Y020797D01*
X015680Y020797D01*
X012680Y020797D02*
X012680Y023236D01*
X010100Y023236D02*
X010100Y020797D01*
X012680Y020797D01*
X012296Y025194D02*
X010484Y025194D01*
X010484Y025371D01*
X010996Y025371D02*
X010996Y026159D01*
X010484Y026159D02*
X010484Y026336D01*
X012296Y026336D01*
X012296Y026159D01*
X013484Y026159D02*
X013484Y026336D01*
X015296Y026336D01*
X015296Y026159D01*
X016484Y026159D02*
X016484Y026336D01*
X018296Y026336D01*
X018296Y026159D01*
X019484Y026159D02*
X019484Y026336D01*
X021296Y026336D01*
X021296Y026159D01*
X019996Y026159D02*
X019996Y025371D01*
X019484Y025371D02*
X019484Y025194D01*
X021296Y025194D01*
X021296Y025371D01*
X018296Y025371D02*
X018296Y025194D01*
X016484Y025194D01*
X016484Y025371D01*
X016996Y025371D02*
X016996Y026159D01*
X015296Y025371D02*
X015296Y025194D01*
X013484Y025194D01*
X013484Y025371D01*
X013996Y025371D02*
X013996Y026159D01*
X012296Y025371D02*
X012296Y025194D01*
D11*
X011390Y020607D03*
X014390Y020607D03*
X017390Y020607D03*
X020390Y020607D03*
X020640Y010923D03*
X017640Y010923D03*
X014640Y010923D03*
X011640Y010923D03*
D12*
X025975Y011140D03*
D13*
X039934Y018665D02*
X039936Y018672D01*
X039941Y018677D01*
X039948Y018679D01*
X039955Y018677D01*
X039960Y018672D01*
X039962Y018665D01*
X039960Y018658D01*
X039955Y018653D01*
X039948Y018651D01*
X039941Y018653D01*
X039936Y018658D01*
X039934Y018665D01*
M02*
